SplineFontDB: 3.0
FontName: ShofarRegular
FullName: Shofar Regular
FamilyName: Shofar
Weight: Regular
Copyright: Copyright 2011-2012 by Yoram Gnat (yoram.gnat@gmail.com)\nDistributed under the terms of GNU General Public License version 2(http://www.gnu.org/licenses/gpl.html).\n\nLatin glyphs and punctuation Copyright (URW)++,Copyright 1999 by (URW)++ Design & Development;\n\nHebrew Cantillation marks GSUB and GPOS OpenType positioning rules copyright (c) 2010 by Yoram Gnat (yoram.gnat@gmail.com)\nDistributed under the terms of GNU General Public License version 2(http://www.gnu.org/licenses/gpl.html).\nInspired by the Hebrew OpenType Layout logic copyright (c) 2003 & 2007, Ralph Hancock & John Hudson published under the MIT License.\n\nAs a special exception, if you create a document which uses this font, and embed this font or unaltered portions of this font into the document, this font does not by itself cause the resulting document to be covered by the GNU General Public License. This exception does not however invalidate any other reasons why the document might be covered by the GNU General Public License. If you modify this font, you may extend this exception to your version of the font, but you are not obligated to do so. If you do not wish to do so, delete this exception statement from your version.
UComments: "The average width of a character (not including narrow chars) is 945.4" 
Version: 0.150yg
ItalicAngle: 0
UnderlinePosition: -170
UnderlineWidth: 70
Ascent: 1638
Descent: 410
LayerCount: 2
Layer: 0 0 "Back"  1
Layer: 1 0 "Fore"  0
XUID: [1021 594 1227166039 12540753]
FSType: 0
OS2Version: 0
OS2_WeightWidthSlopeOnly: 0
OS2_UseTypoMetrics: 1
CreationTime: 1244295734
ModificationTime: 1336910919
PfmFamily: 17
TTFWeight: 500
TTFWidth: 5
LineGap: 184
VLineGap: 0
Panose: 2 0 0 0 0 0 0 0 0 0
OS2TypoAscent: 0
OS2TypoAOffset: 1
OS2TypoDescent: 0
OS2TypoDOffset: 1
OS2TypoLinegap: 184
OS2WinAscent: 0
OS2WinAOffset: 1
OS2WinDescent: 150
OS2WinDOffset: 1

StartChar: .null
Encoding: 0 -1 0
AltUni2: 000000.ffffffff.0 000000.ffffffff.0 000000.ffffffff.0 000000.ffffffff.0 000000.ffffffff.0 000000.ffffffff.0 000000.ffffffff.0 000000.ffffffff.0 000000.ffffffff.0 000000.ffffffff.0 000000.ffffffff.0 000000.ffffffff.0 000000.ffffffff.0 000000.ffffffff.0 000000.ffffffff.0 000000.ffffffff.0 000000.ffffffff.0 000000.ffffffff.0 000000.ffffffff.0 000000.ffffffff.0 000000.ffffffff.0 000000.ffffffff.0 000000.ffffffff.0 000000.ffffffff.0 000000.ffffffff.0 000000.ffffffff.0 000000.ffffffff.0 000000.ffffffff.0 000000.ffffffff.0 000000.ffffffff.0 000000.ffffffff.0 000000.ffffffff.0 000000.ffffffff.0 000000.ffffffff.0 000000.ffffffff.0 000000.ffffffff.0 000000.ffffffff.0 000000.ffffffff.0 000000.ffffffff.0 000000.ffffffff.0 000000.ffffffff.0 000000.ffffffff.0 000000.ffffffff.0 000000.ffffffff.0 000000.ffffffff.0 000000.ffffffff.0 000000.ffffffff.0
Width: 1008
VWidth: 2273
GlyphClass: 2
Flags: W
HStem: -64 78<126 882> 154 132<401.055 524.945> 898 47<386.972 537.159> 1095 94<126 882>
VStem: 40 86<14 1095> 287 81<752.902 885.311> 397 132<157.521 282.595> 442 46<371 500.177> 583 111<643.92 875.285> 882 87<14 1095>
LayerCount: 2
Fore
SplineSet
488 371 m 1xfdc0
 442 371 l 1
 442 406 l 2
 442 455 447 482 457 512 c 0
 471 549 471 548 549 655 c 1
 570 685 583 725 583 769 c 0
 583 850 539 898 464 898 c 0
 414 898 368 872 368 845 c 0
 368 837 368 835 385 823 c 0
 404 806 415 787 415 766 c 0
 415 734 389 709 355 709 c 0
 316 709 287 743 287 790 c 0
 287 880 373 945 492 945 c 0
 612 945 694 872 694 762 c 0
 694 688 670 653 567 561 c 1
 502 505 488 477 488 381 c 0
 488 378 488 375 488 371 c 1xfdc0
463 286 m 0
 499 286 529 257 529 221 c 0
 529 184 500 154 463 154 c 0
 427 154 397 184 397 221 c 0xfec0
 397 257 426 286 463 286 c 0
126 1095 m 1
 126 14 l 1
 882 14 l 1
 882 1095 l 1
 126 1095 l 1
40 1189 m 1
 969 1189 l 1
 969 -64 l 1
 40 -64 l 1
 40 1189 l 1
EndSplineSet
Validated: 1
Substitution2: "L1ccmpZWJbuginLinuxoverride subtable" zerojoin
EndChar

StartChar: exclam
Encoding: 2 33 2
Width: 422
VWidth: 1755
GlyphClass: 2
Flags: W
HStem: -25 220<122.486 298.153>
VStem: 101 219<-3.15295 173.287 845.393 1267.85> 176 68<335 741.803>
LayerCount: 2
Fore
SplineSet
244 335 m 1xa0
 176 335 l 1xa0
 173 649 167 732 134 897 c 0
 109 1020 101 1075 101 1127 c 0xc0
 101 1236 139 1291 211 1291 c 0
 283 1291 318 1237 318 1125 c 0
 318 1074 311 1020 286 897 c 0
 253 732 246 643 244 335 c 1xa0
211 195 m 0
 271 195 320 146 320 86 c 0
 320 24 271 -25 209 -25 c 0
 149 -25 101 24 101 86 c 0xc0
 101 146 149 195 211 195 c 0
EndSplineSet
Validated: 1
EndChar

StartChar: quotedbl
Encoding: 3 34 3
Width: 772
VWidth: 1755
GlyphClass: 2
Flags: W
HStem: 1083 208<131.84 273.915 448.84 590.915>
VStem: 276 94<956.761 1173.5> 593 94<956.761 1173.5>
LayerCount: 2
Fore
SplineSet
456 780 m 1
 416 829 l 1
 532 903 593 985 593 1067 c 0
 593 1077 588 1083 581 1083 c 2
 576 1083 l 1
 569 1081 562 1083 553 1083 c 0
 476 1083 428 1120 428 1185 c 0
 428 1245 478 1291 543 1291 c 0
 627 1291 687 1223 687 1124 c 0
 687 1050 660 974 613 911 c 0
 588 878 560 856 485 799 c 0
 478 796 465 785 456 780 c 1
139 780 m 1
 99 829 l 1
 215 903 276 985 276 1067 c 0
 276 1077 271 1083 264 1083 c 2
 259 1083 l 1
 252 1081 245 1083 236 1083 c 0
 159 1083 111 1120 111 1185 c 0
 111 1245 161 1291 226 1291 c 0
 310 1291 370 1223 370 1124 c 0
 370 1050 343 974 296 911 c 0
 271 878 243 856 168 799 c 0
 161 796 148 785 139 780 c 1
EndSplineSet
Validated: 1
EndChar

StartChar: numbersign
Encoding: 4 35 4
Width: 975
VWidth: 1755
GlyphClass: 2
Flags: W
HStem: 0 21G<170 286.9 500 616.9> 400 99<49 228 356 558 686 863> 730 99<96 276 403 605 733 910>
LayerCount: 2
Fore
SplineSet
228 400 m 1
 49 400 l 1
 49 499 l 1
 242 499 l 1
 276 730 l 1
 96 730 l 1
 96 829 l 1
 289 829 l 1
 344 1204 l 1
 458 1204 l 1
 403 829 l 1
 619 829 l 1
 674 1204 l 1
 788 1204 l 1
 733 829 l 1
 910 829 l 1
 910 730 l 1
 719 730 l 1
 686 499 l 1
 863 499 l 1
 863 400 l 1
 672 400 l 1
 614 0 l 1
 500 0 l 1
 558 400 l 1
 342 400 l 1
 284 0 l 1
 170 0 l 1
 228 400 l 1
389 730 m 1
 356 499 l 1
 572 499 l 1
 605 730 l 1
 389 730 l 1
EndSplineSet
Validated: 1
EndChar

StartChar: dollar
Encoding: 5 36 5
Width: 960
VWidth: 1755
GlyphClass: 2
Flags: W
HStem: -20 77<276.991 437 520 640.109> 1141 80<309.838 437 520 664.76>
VStem: 76 137<120.385 303.5> 99 126<827.784 1055.99> 437 83<-228 -20 58 523 737 1141 1223 1405> 699 140<926.5 1098.91> 762 130<162.999 416.311>
LayerCount: 2
Fore
SplineSet
520 1405 m 1xd8
 520 1223 l 1
 711 1223 839 1106 839 965 c 0
 839 888 798 842 731 842 c 0
 668 842 625 882 625 944 c 0
 625 984 638 1003 689 1040 c 0
 694 1045 699 1053 699 1058 c 0xdc
 699 1095 615 1144 520 1144 c 1
 520 710 l 1
 530 707 535 705 560 698 c 0
 690 659 755 628 809 576 c 0
 863 522 892 448 892 355 c 0
 892 134 751 -17 520 -17 c 1
 520 -228 l 1
 437 -228 l 1
 437 -20 l 1
 365 -20 332 -10 283 5 c 0
 154 47 76 144 76 260 c 0
 76 347 129 410 201 410 c 0
 261 410 307 364 307 302 c 0
 307 251 287 223 227 188 c 0
 217 183 213 178 213 169 c 0xea
 213 115 311 57 437 57 c 1
 437 546 l 1
 344 574 291 594 246 621 c 0
 151 679 99 775 99 889 c 0
 99 1072 223 1194 437 1221 c 1
 437 1405 l 1
 520 1405 l 1xd8
437 737 m 1
 437 1141 l 1
 313 1141 225 1050 225 946 c 0
 225 844 283 788 437 737 c 1
520 523 m 1
 520 58 l 1
 565 63 587 69 617 81 c 0
 704 118 762 202 762 291 c 0xca
 762 386 704 458 593 500 c 0
 570 509 571 509 520 523 c 1
EndSplineSet
Validated: 1
EndChar

StartChar: percent
Encoding: 6 37 6
Width: 1450
VWidth: 1755
GlyphClass: 2
Flags: W
HStem: 0 21G<318 417.476> 27 68<946.777 1120.71> 563 67<247.803 422.117> 633 71<1123.68 1276.88> 1057 65<673.865 916.072> 1223 20G<442.5 515>
VStem: 71 152<646.706 887.317> 612 65<868.472 1075.96> 773 149<112.656 350.532> 1315 67<337.526 592.113>
LayerCount: 2
Fore
SplineSet
1133 1267 m 1
 406 0 l 1
 318 0 l 1
 950 1107 l 1
 885 1068 842 1057 782 1057 c 0
 745 1057 716 1062 672 1077 c 1
 675 1050 677 1036 677 1021 c 0
 677 914 627 786 552 697 c 0
 475 606 394 563 295 563 c 0
 165 563 71 655 71 781 c 0
 71 898 153 1062 257 1151 c 0
 326 1209 405 1243 480 1243 c 0
 550 1243 595 1220 640 1160 c 1
 692 1130 724 1122 768 1122 c 0
 880 1122 982 1172 1052 1267 c 1
 1133 1267 l 1
494 1174 m 1
 422 1149 399 1128 332 1011 c 0
 250 867 223 799 223 734 c 0
 223 672 264 630 322 630 c 0
 463 630 612 837 612 1030 c 0
 612 1057 610 1074 601 1102 c 1
 552 1119 526 1137 494 1174 c 1
1176 704 m 0
 1295 704 1382 616 1382 495 c 0
 1382 391 1329 256 1248 156 c 0
 1183 74 1092 27 1001 27 c 0
 869 27 773 116 773 239 c 0
 773 338 820 458 894 551 c 1
 975 650 1072 704 1176 704 c 0
1206 633 m 0
 1152 633 1106 595 1052 506 c 0
 959 355 922 265 922 195 c 0
 922 138 966 95 1020 95 c 0
 1161 95 1315 300 1315 491 c 0
 1315 570 1266 633 1206 633 c 0
EndSplineSet
Validated: 1
EndChar

StartChar: ampersand
Encoding: 7 38 7
Width: 1387
VWidth: 1755
GlyphClass: 2
Flags: W
HStem: -27 120<403.114 640.423> -20 139<972.016 1182.91> 633 76<795 952.699 1144.1 1289> 1218 75<502.697 679.541>
VStem: 57 189<257.557 498.838> 288 164<865.981 1155.58> 728 141<908.801 1175.7> 1251 77<191.217 287.862>
LayerCount: 2
Fore
SplineSet
1251 296 m 1x7f
 1328 286 l 1
 1319 217 1304 166 1269 114 c 0
 1207 21 1133 -20 1021 -20 c 0x7f
 924 -20 856 13 772 99 c 1
 658 12 561 -27 435 -27 c 0xbf
 318 -27 222 11 157 81 c 0
 95 148 57 246 57 332 c 0
 57 490 165 627 361 722 c 1
 307 838 288 906 288 983 c 0
 288 1169 410 1293 594 1293 c 0
 757 1293 869 1198 869 1057 c 0
 869 964 816 868 735 811 c 0
 690 779 659 764 564 722 c 1
 669 529 761 388 847 286 c 1
 922 373 970 476 970 551 c 0
 970 605 916 633 812 633 c 2
 795 633 l 1
 795 709 l 1
 1289 709 l 1
 1289 633 l 1
 1271 633 l 2
 1214 633 1165 616 1133 586 c 1
 1103 554 1104 554 1018 395 c 0
 979 325 976 317 902 226 c 1
 972 151 1030 119 1095 119 c 0
 1172 119 1230 185 1251 296 c 1x7f
528 795 m 1
 563 812 565 812 579 821 c 0
 679 875 728 953 728 1053 c 0
 728 1150 670 1218 589 1218 c 0
 510 1218 452 1147 452 1045 c 0
 452 980 477 900 528 795 c 1
395 650 m 1
 290 588 246 524 246 427 c 0
 246 251 386 93 540 93 c 0xbf
 598 93 640 109 717 158 c 1
 568 332 511 422 395 650 c 1
EndSplineSet
Validated: 1
EndChar

StartChar: quotesingle
Encoding: 8 39 8
Width: 456
VWidth: 1755
GlyphClass: 2
Flags: W
HStem: 1093 208<132.84 274.915>
VStem: 277 94<966.761 1183.5>
LayerCount: 2
Fore
SplineSet
140 790 m 1
 100 839 l 1
 216 913 277 995 277 1077 c 0
 277 1087 272 1093 265 1093 c 2
 260 1093 l 1
 253 1091 246 1093 237 1093 c 0
 160 1093 112 1130 112 1195 c 0
 112 1255 162 1301 227 1301 c 0
 311 1301 371 1233 371 1134 c 0
 371 1060 344 984 297 921 c 0
 272 888 244 866 169 809 c 0
 162 806 149 795 140 790 c 1
EndSplineSet
Validated: 1
EndChar

StartChar: parenleft
Encoding: 9 40 9
Width: 551
VWidth: 1755
GlyphClass: 2
Flags: W
VStem: 89 181<369.874 927.577>
LayerCount: 2
Fore
SplineSet
515 1400 m 1
 515 1337 l 1
 339 1183 270 986 270 649 c 0
 270 312 339 113 515 -41 c 1
 515 -106 l 1
 396 -32 337 21 270 105 c 1
 153 261 89 449 89 649 c 0
 89 862 160 1063 294 1221 c 0
 354 1291 410 1335 515 1400 c 1
EndSplineSet
Validated: 1
EndChar

StartChar: parenright
Encoding: 10 41 10
Width: 557
VWidth: 1755
GlyphClass: 2
Flags: W
VStem: 283 181<366.633 924.78>
LayerCount: 2
Fore
SplineSet
38 -109 m 1
 38 -44 l 1
 214 110 283 308 283 646 c 0
 283 983 214 1180 38 1334 c 1
 38 1400 l 1
 157 1328 216 1274 283 1188 c 0
 400 1034 464 846 464 646 c 0
 464 433 393 230 259 74 c 0
 199 2 143 -44 38 -109 c 1
EndSplineSet
Validated: 1
EndChar

StartChar: asterisk
Encoding: 11 42 11
Width: 885
VWidth: 1755
GlyphClass: 2
Flags: W
HStem: 445 153<103.789 242.293 625.499 763.747> 747 152<102.932 241.126 624.874 763.747>
VStem: 359 148<296.387 492.145 851.877 1044.81> 415 36<477.897 640 705 866.032>
LayerCount: 2
Fore
SplineSet
415 705 m 1xd0
 415 768 l 2xd0
 415 825 411 838 375 924 c 0
 365 945 359 964 359 976 c 0
 359 1015 395 1053 433 1053 c 0
 469 1053 507 1016 507 976 c 0xe0
 507 959 505 953 477 886 c 0
 459 847 451 810 451 768 c 2
 451 705 l 1xd0
 507 736 l 2
 553 764 575 785 621 850 c 0
 649 887 667 899 699 899 c 0
 739 899 773 870 773 831 c 0
 773 782 741 754 681 747 c 0
 601 738 575 731 525 703 c 2
 471 671 l 1
 525 640 l 1
 575 613 597 607 681 598 c 0
 741 591 773 563 773 514 c 0
 773 475 739 445 699 445 c 0
 667 445 649 457 621 494 c 0
 575 559 553 580 507 608 c 2xe0
 451 640 l 1
 451 576 l 2xd0
 451 519 457 502 493 418 c 0
 501 397 507 378 507 364 c 0
 507 327 469 288 433 288 c 0
 395 288 359 327 359 366 c 0xe0
 359 378 363 397 373 418 c 0
 411 504 415 519 415 576 c 2
 415 640 l 1xd0
 359 608 l 2
 309 578 291 559 245 492 c 0
 217 457 199 445 167 445 c 0
 127 445 95 475 95 514 c 0
 95 563 125 591 185 598 c 0
 267 607 291 613 341 641 c 2
 395 671 l 1
 341 703 l 2
 293 731 265 747 185 747 c 0
 125 747 95 782 95 831 c 0
 95 868 127 899 167 899 c 0
 199 899 217 887 245 850 c 0
 291 785 313 763 359 736 c 2xe0
 415 705 l 1xd0
EndSplineSet
Validated: 1
EndChar

StartChar: plus
Encoding: 12 43 12
Width: 1001
VWidth: 1755
GlyphClass: 2
Flags: W
HStem: 568 140<58 431 571 943>
VStem: 431 140<194 568 708 1080>
LayerCount: 2
Fore
SplineSet
431 708 m 1
 431 1080 l 1
 571 1080 l 1
 571 708 l 1
 943 708 l 1
 943 568 l 1
 571 568 l 1
 571 194 l 1
 431 194 l 1
 431 568 l 1
 58 568 l 1
 58 708 l 1
 431 708 l 1
EndSplineSet
Validated: 1
EndChar

StartChar: comma
Encoding: 13 44 13
Width: 466
VWidth: 1755
GlyphClass: 2
Flags: W
HStem: -17 206<117.802 260.582>
VStem: 263 92<-140.074 67.5>
LayerCount: 2
Fore
SplineSet
126 -321 m 1
 85 -272 l 1
 202 -190 263 -107 263 -33 c 0
 263 -23 260 -17 251 -17 c 2
 245 -17 l 1
 242 -19 224 -20 217 -20 c 0
 145 -20 97 21 97 84 c 0
 97 144 147 189 212 189 c 0
 298 189 355 120 355 15 c 0
 355 -108 282 -214 126 -321 c 1
EndSplineSet
Validated: 1
EndChar

StartChar: hyphen
Encoding: 14 45 14
Width: 674
VWidth: 1755
GlyphClass: 2
Flags: W
HStem: 556 146<119 556>
VStem: 119 437<556 702>
LayerCount: 2
Fore
SplineSet
119 702 m 1
 556 702 l 1
 556 556 l 1
 119 556 l 1
 119 702 l 1
EndSplineSet
Validated: 1
EndChar

StartChar: period
Encoding: 15 46 15
Width: 427
VWidth: 1755
GlyphClass: 2
Flags: W
HStem: -25 220<116.847 293.153>
VStem: 95 220<-3.15295 173.287>
LayerCount: 2
Fore
SplineSet
206 195 m 0
 266 195 315 146 315 86 c 0
 315 24 266 -25 204 -25 c 0
 144 -25 95 24 95 86 c 0
 95 146 144 195 206 195 c 0
EndSplineSet
Validated: 1
EndChar

StartChar: slash
Encoding: 16 47 16
Width: 638
VWidth: 1755
GlyphClass: 2
Flags: W
VStem: 39 570
LayerCount: 2
Fore
SplineSet
507 1291 m 1
 609 1291 l 1
 141 -25 l 1
 39 -25 l 1
 507 1291 l 1
EndSplineSet
Validated: 1
EndChar

StartChar: zero
Encoding: 17 48 17
Width: 975
VWidth: 1755
GlyphClass: 2
Flags: W
HStem: -27 76<395.034 583.122> 1160 76<395.19 582.24>
VStem: 74 194<307.551 895.026> 705 197<301.774 905.659>
LayerCount: 2
Fore
SplineSet
499 1236 m 0
 610 1236 721 1168 790 1057 c 0
 864 936 902 781 902 595 c 0
 902 230 730 -27 484 -27 c 0
 247 -27 74 238 74 600 c 0
 74 967 253 1236 499 1236 c 0
486 1160 m 0
 419 1160 356 1109 316 1020 c 0
 281 945 268 841 268 637 c 0
 268 351 283 240 332 158 c 0
 374 88 430 49 488 49 c 0
 555 49 618 102 658 188 c 0
 693 265 705 380 705 626 c 0
 705 867 690 970 643 1051 c 0
 601 1121 544 1160 486 1160 c 0
EndSplineSet
Validated: 1
EndChar

StartChar: one
Encoding: 18 49 18
Width: 975
VWidth: 1755
GlyphClass: 2
Flags: W
HStem: 0 82<176 442.099 628.675 871> 1030 75<183 405.028> 1216 20G<535 628>
VStem: 446 170<107.554 1022.55>
LayerCount: 2
Fore
SplineSet
565 1236 m 1
 628 1236 l 1
 619 1112 616 1027 616 941 c 2
 616 216 l 2
 616 119 616 119 628 107 c 1
 642 90 681 82 774 82 c 2
 871 82 l 1
 871 0 l 1
 176 0 l 1
 176 82 l 1
 290 82 l 2
 431 82 446 91 446 165 c 2
 446 216 l 1
 446 919 l 2
 446 1023 439 1030 337 1030 c 2
 183 1030 l 1
 183 1105 l 1
 344 1108 505 1164 565 1236 c 1
EndSplineSet
Validated: 1
EndChar

StartChar: two
Encoding: 19 50 19
Width: 975
VWidth: 1755
GlyphClass: 2
Flags: W
HStem: 0 165<253 768.592> 720 206<210.821 319.568> 1160 76<308.839 585.845>
VStem: 89 118<850.5 1059.88> 681 198<741.89 1055.4> 809 77<303.947 379>
LayerCount: 2
Fore
SplineSet
886 379 m 1xf4
 853 0 l 1
 62 0 l 1
 62 49 l 1
 139 151 170 191 233 265 c 1
 370 412 l 1
 474 521 l 2
 620 675 681 793 681 923 c 0
 681 1070 593 1160 449 1160 c 0
 367 1160 293 1127 249 1075 c 0
 224 1045 207 1006 207 979 c 0
 207 956 211 954 276 926 c 0
 315 911 338 871 338 827 c 0
 338 764 295 720 230 720 c 0
 146 720 89 795 89 906 c 0
 89 1092 261 1236 484 1236 c 0
 712 1236 879 1091 879 893 c 0xf8
 879 809 852 730 795 653 c 0
 755 601 685 539 526 416 c 0
 414 329 374 291 253 165 c 1
 646 165 l 2
 755 165 769 178 792 290 c 2
 809 379 l 1
 886 379 l 1xf4
EndSplineSet
Validated: 1
EndChar

StartChar: three
Encoding: 20 51 20
Width: 975
VWidth: 1755
GlyphClass: 2
Flags: W
HStem: -27 76<280.017 568.245> 598 90<300.058 593.639> 1160 76<321.239 586.214>
VStem: 74 130<117.956 306.5> 121 142<919 1092.62> 658 183<779.687 1092.72> 680 194<158.634 500.014>
LayerCount: 2
Fore
SplineSet
356 688 m 0xf2
 385 688 442 683 465 683 c 0
 591 683 658 768 658 931 c 0
 658 1080 591 1160 465 1160 c 0
 366 1160 263 1107 263 1058 c 0
 263 1048 269 1039 286 1027 c 0
 326 999 340 974 340 937 c 0
 340 874 299 832 237 832 c 0
 170 832 121 883 121 955 c 0
 121 1114 276 1236 482 1236 c 0
 700 1236 841 1117 841 934 c 0xec
 841 810 771 711 648 660 c 0
 636 655 633 655 608 646 c 1
 789 595 874 495 874 330 c 0
 874 114 707 -27 454 -27 c 0
 229 -27 74 90 74 261 c 0
 74 352 124 416 198 416 c 0
 263 416 310 368 310 305 c 0
 310 261 292 232 243 202 c 1
 208 182 204 178 204 163 c 0
 204 109 323 49 434 49 c 0
 590 49 680 152 680 333 c 0
 680 518 593 604 446 604 c 0
 430 604 414 603 397 601 c 0
 374 598 360 598 355 598 c 0
 320 598 300 611 300 641 c 0
 300 673 319 688 356 688 c 0xf2
EndSplineSet
Validated: 1
EndChar

StartChar: four
Encoding: 21 52 21
Width: 975
VWidth: 1755
GlyphClass: 2
Flags: W
HStem: 0 82<365 538.086 716.192 878> 307 98<156 542 712 925> 1216 20G<631.632 722>
VStem: 542 170<89.4577 307 405 937>
LayerCount: 2
Fore
SplineSet
646 1236 m 1
 722 1236 l 1
 713 1104 712 1105 712 886 c 2
 712 405 l 1
 925 405 l 1
 925 307 l 1
 712 307 l 1
 712 216 l 1
 712 165 l 2
 712 91 729 82 871 82 c 2
 878 82 l 1
 878 0 l 1
 365 0 l 1
 365 82 l 1
 385 82 l 2
 527 82 542 91 542 165 c 2
 542 216 l 1
 542 307 l 1
 49 307 l 1
 49 405 l 1
 646 1236 l 1
542 405 m 1
 542 937 l 1
 156 405 l 1
 542 405 l 1
EndSplineSet
Validated: 1
EndChar

StartChar: five
Encoding: 22 53 22
Width: 975
VWidth: 1755
GlyphClass: 2
Flags: W
HStem: -27 76<276.646 575.58> 704 88<282.46 578.028> 1008 175<287.223 703.04> 1216 20G<207.5 303>
VStem: 79 135<120.027 302> 114 135<542.695 667.438> 690 191<189.978 583.516>
LayerCount: 2
Fore
SplineSet
288 1037 m 1xf6
 258 739 l 1
 355 779 410 792 484 792 c 0
 721 792 881 632 881 393 c 0
 881 135 708 -27 432 -27 c 0
 341 -27 269 -7 209 32 c 1
 130 86 79 174 79 261 c 0
 79 343 136 409 206 409 c 0
 269 409 316 362 316 300 c 0
 316 253 300 229 246 196 c 0
 225 184 214 170 214 158 c 0xfa
 214 104 323 49 428 49 c 0
 500 49 573 74 608 111 c 0
 660 165 690 265 690 382 c 0
 690 582 595 704 439 704 c 0
 369 704 311 685 249 641 c 1
 242 571 215 534 171 534 c 0
 138 534 114 558 114 593 c 0
 114 621 126 644 163 683 c 1
 188 901 204 1089 211 1236 c 1
 395 1192 460 1183 572 1183 c 0
 672 1183 720 1192 806 1229 c 0
 815 1234 824 1236 829 1236 c 0
 838 1236 842 1229 842 1219 c 0
 842 1205 836 1190 816 1157 c 0
 758 1060 649 1008 500 1008 c 0
 431 1008 383 1014 288 1037 c 1xf6
EndSplineSet
Validated: 1
EndChar

StartChar: six
Encoding: 23 54 23
Width: 975
VWidth: 1755
GlyphClass: 2
Flags: W
HStem: -27 76<396.459 612.054> 648 107<390.079 632.348> 1160 76<460.079 682.035>
VStem: 74 207<267.568 688.63> 686 188<963.842 1140.93> 715 191<205.343 559.637>
LayerCount: 2
Fore
SplineSet
268 596 m 1xf8
 350 707 439 755 558 755 c 0
 756 755 906 600 906 393 c 0xf4
 906 282 859 166 784 89 c 0
 710 12 616 -27 502 -27 c 0
 242 -27 74 199 74 541 c 0
 74 732 128 915 223 1050 c 0
 307 1167 442 1236 586 1236 c 0
 751 1236 874 1146 874 1025 c 0
 874 951 825 899 758 899 c 0
 696 899 651 942 651 1002 c 0
 651 1027 661 1052 678 1085 c 0
 685 1097 686 1102 686 1109 c 0
 686 1141 650 1160 588 1160 c 0
 477 1160 384 1087 333 963 c 1
 294 874 285 815 268 596 c 1xf8
511 648 m 0
 369 648 281 537 281 356 c 0
 281 291 295 231 323 177 c 0
 365 93 427 49 506 49 c 0
 635 49 715 178 715 380 c 0
 715 547 637 648 511 648 c 0
EndSplineSet
Validated: 1
EndChar

StartChar: seven
Encoding: 24 55 24
Width: 975
VWidth: 1755
GlyphClass: 2
Flags: W
HStem: 1070 146<242.713 746.015> 1216 20G<155.459 253.5 836.5 891>
VStem: 104 77<808.766 860.824> 358 226<-1.29111 315.964>
LayerCount: 2
Fore
SplineSet
104 811 m 1xb0
 158 1236 l 1x70
 349 1224 469 1216 618 1216 c 0
 725 1216 782 1220 891 1229 c 1
 891 1177 l 1
 881 1154 876 1138 874 1135 c 2
 795 971 l 1
 626 599 583 461 583 252 c 0
 583 230 583 207 584 184 c 1
 584 180 584 176 584 171 c 0
 584 30 551 -25 469 -25 c 0
 400 -25 358 26 358 105 c 0
 358 179 388 290 440 422 c 0
 484 529 498 558 630 819 c 2
 749 1058 l 1
 733 1057 719 1057 706 1057 c 0
 679 1057 658 1058 641 1058 c 0
 569 1058 442 1065 340 1070 c 0
 326 1072 311 1070 302 1070 c 0
 251 1070 240 1053 213 937 c 2
 181 799 l 1
 104 811 l 1xb0
EndSplineSet
Validated: 1
EndChar

StartChar: eight
Encoding: 25 56 25
Width: 975
VWidth: 1755
GlyphClass: 2
Flags: W
HStem: -27 76<323.526 643.939> 1160 76<349.921 630.852>
VStem: 72 146<143.372 451.45> 130 135<851.481 1065.27> 720 129<808.474 1081.43> 760 141<174.366 421.16>
LayerCount: 2
Fore
SplineSet
656 685 m 1xd8
 723 655 755 636 790 606 c 0
 862 543 901 453 901 353 c 0
 901 246 854 139 779 74 c 1
 707 9 599 -27 469 -27 c 0
 357 -27 262 0 193 49 c 1
 119 106 72 200 72 295 c 0xe4
 72 384 110 467 179 524 c 0
 218 556 251 574 328 604 c 1
 265 637 237 657 207 692 c 0
 158 746 130 826 130 901 c 0
 130 1094 286 1236 500 1236 c 0
 702 1236 849 1117 849 956 c 0
 849 842 788 757 656 685 c 1xd8
469 753 m 2
 584 710 l 1
 684 794 720 855 720 946 c 0
 720 1075 630 1160 495 1160 c 0
 356 1160 265 1085 265 974 c 0xd8
 265 872 327 805 469 753 c 2
571 511 m 2
 409 569 l 1
 272 506 218 427 218 295 c 0
 218 141 314 49 477 49 c 0
 649 49 760 138 760 279 c 0xe4
 760 395 705 464 571 511 c 2
EndSplineSet
Validated: 1
EndChar

StartChar: nine
Encoding: 26 57 26
Width: 975
VWidth: 1755
GlyphClass: 2
Flags: W
HStem: -27 76<290.461 515.099> 449 105<343.826 587.403> 1160 76<364.255 585.04>
VStem: 69 191<647.311 1007.77> 100 188<65.132 237.546> 693 208<508.462 935.65>
LayerCount: 2
Fore
SplineSet
709 609 m 1xec
 614 490 540 449 416 449 c 0
 216 449 69 603 69 812 c 0xf4
 69 1049 245 1236 470 1236 c 0
 731 1236 901 1009 901 656 c 0
 901 475 853 306 767 176 c 0
 681 46 544 -27 385 -27 c 0
 224 -27 100 61 100 177 c 0
 100 247 152 303 219 303 c 0
 277 303 323 258 323 200 c 0
 323 175 319 165 298 123 c 0
 291 109 288 100 288 93 c 0
 288 66 328 49 386 49 c 0
 503 49 601 125 646 255 c 0
 678 344 686 396 709 609 c 1xec
477 1160 m 0
 400 1160 353 1132 313 1063 c 1
 280 1011 260 928 260 844 c 0
 260 658 335 554 469 554 c 0
 544 554 613 593 653 656 c 0
 680 696 693 762 693 834 c 0
 693 1030 607 1160 477 1160 c 0
EndSplineSet
Validated: 1
EndChar

StartChar: colon
Encoding: 27 58 27
Width: 487
VWidth: 1755
GlyphClass: 2
Flags: W
HStem: -25 220<172.713 348.287> 611 219<172.713 348.287>
VStem: 151 219<-3.15295 173.287 632.847 808.648>
LayerCount: 2
Fore
SplineSet
261 195 m 0
 321 195 370 146 370 86 c 0
 370 24 322 -25 260 -25 c 0
 200 -25 151 24 151 86 c 0
 151 146 199 195 261 195 c 0
261 830 m 0
 321 830 370 782 370 722 c 0
 370 660 322 611 260 611 c 0
 200 611 151 660 151 722 c 0
 151 782 199 830 261 830 c 0
EndSplineSet
Validated: 1
EndChar

StartChar: semicolon
Encoding: 28 59 28
Width: 487
VWidth: 1755
GlyphClass: 2
Flags: W
HStem: -17 206<159.463 301.689> 609 220<174.486 350.153>
VStem: 153 219<630.847 807.287> 303 94<-138.195 67.5>
LayerCount: 2
Fore
SplineSet
167 -321 m 1xd0
 126 -272 l 1
 243 -190 303 -107 303 -33 c 0
 303 -23 300 -17 291 -17 c 2
 286 -17 l 1
 283 -19 265 -20 258 -20 c 0
 186 -20 139 21 139 84 c 0
 139 144 188 189 253 189 c 0
 339 189 397 120 397 15 c 0
 397 -108 323 -214 167 -321 c 1xd0
263 829 m 0
 323 829 372 780 372 720 c 0
 372 658 323 609 261 609 c 0
 201 609 153 658 153 720 c 0xe0
 153 780 201 829 263 829 c 0
EndSplineSet
Validated: 1
EndChar

StartChar: less
Encoding: 29 60 29
Width: 1063
VWidth: 1755
GlyphClass: 2
Flags: W
LayerCount: 2
Fore
SplineSet
979 769 m 1
 281 444 l 1
 979 119 l 1
 979 -30 l 1
 86 377 l 1
 86 511 l 1
 979 918 l 1
 979 769 l 1
EndSplineSet
Validated: 1
EndChar

StartChar: equal
Encoding: 30 61 30
Width: 1063
VWidth: 1755
GlyphClass: 2
Flags: W
HStem: 196 141<89 974> 551 141<89 974>
LayerCount: 2
Fore
SplineSet
89 196 m 1
 89 337 l 1
 974 337 l 1
 974 196 l 1
 89 196 l 1
89 551 m 1
 89 692 l 1
 974 692 l 1
 974 551 l 1
 89 551 l 1
EndSplineSet
Validated: 1
EndChar

StartChar: greater
Encoding: 31 62 31
Width: 1063
VWidth: 1755
GlyphClass: 2
Flags: W
LayerCount: 2
Fore
SplineSet
84 769 m 1
 84 918 l 1
 978 511 l 1
 978 377 l 1
 84 -30 l 1
 84 119 l 1
 782 444 l 1
 84 769 l 1
EndSplineSet
Validated: 1
EndChar

StartChar: question
Encoding: 32 63 32
Width: 778
VWidth: 1755
GlyphClass: 2
Flags: W
HStem: -27 220<249.713 425.287> 1213 78<210.895 461.129>
VStem: 44 135<993.5 1164.9> 228 219<-5.15295 171.287> 303 77<335 550.106> 537 185<824.708 1144.51>
LayerCount: 2
Fore
SplineSet
380 335 m 1xec
 303 335 l 1
 303 392 l 2
 303 474 311 520 328 569 c 0
 351 631 351 630 481 807 c 1
 516 858 537 925 537 997 c 0
 537 1132 464 1213 340 1213 c 0
 256 1213 179 1170 179 1125 c 0
 179 1111 180 1108 207 1087 c 0
 240 1059 258 1028 258 993 c 0
 258 939 215 897 158 897 c 0
 93 897 44 955 44 1032 c 0
 44 1183 188 1291 386 1291 c 0
 586 1291 722 1169 722 986 c 0
 722 863 683 804 511 651 c 1
 404 558 380 511 380 356 c 0
 380 349 380 342 380 335 c 1xec
338 193 m 0
 398 193 447 144 447 84 c 0
 447 22 399 -27 337 -27 c 0
 277 -27 228 22 228 84 c 0xf4
 228 144 276 193 338 193 c 0
EndSplineSet
Validated: 1
EndChar

StartChar: at
Encoding: 33 64 33
Width: 1293
VWidth: 1755
GlyphClass: 2
Flags: W
HStem: -25 90<487.704 895.445> 268 70<491.575 624.436 805.604 974.036> 881 72<608.938 743.599> 1202 89<482.446 887.306>
VStem: 75 99<394.639 875.456> 308 159<367.192 678.693> 716 130<335.857 406.347> 1146 91<548.665 936.223>
LayerCount: 2
Fore
SplineSet
1118 330 m 1
 1225 330 l 1
 1192 253 1138 185 1063 116 c 0
 959 25 827 -25 686 -25 c 0
 341 -25 75 257 75 625 c 0
 75 814 140 988 256 1109 c 0
 367 1223 527 1291 683 1291 c 0
 988 1291 1237 1055 1237 764 c 0
 1237 605 1165 447 1046 348 c 0
 977 290 902 258 837 258 c 0
 765 258 716 303 716 372 c 0
 716 384 714 393 716 407 c 1
 647 305 598 268 528 268 c 0
 470 268 407 301 367 348 c 0
 328 393 308 456 308 530 c 0
 308 637 350 745 422 827 c 1
 491 902 585 953 662 953 c 0
 729 953 778 911 799 839 c 1
 827 937 l 1
 981 937 l 1
 853 430 l 2
 848 409 846 391 846 377 c 0
 846 352 864 335 891 335 c 0
 936 335 1001 382 1053 456 c 0
 1110 537 1146 655 1146 752 c 0
 1146 871 1091 995 1000 1081 c 0
 916 1162 815 1202 692 1202 c 0
 392 1202 174 963 174 633 c 0
 174 301 393 65 700 65 c 0
 874 65 1019 156 1118 330 c 1
686 881 m 0
 646 881 606 854 576 807 c 0
 511 707 467 575 467 476 c 0
 467 390 499 338 551 338 c 0
 605 338 660 394 702 491 c 0
 739 573 765 686 765 755 c 0
 765 832 735 881 686 881 c 0
EndSplineSet
Validated: 1
EndChar

StartChar: bracketleft
Encoding: 60 91 34
Width: 583
VWidth: 1755
GlyphClass: 2
Flags: W
HStem: -106 63<273 521> 1285 65<273 521>
VStem: 116 157<-43 1285>
LayerCount: 2
Fore
SplineSet
273 -43 m 1
 521 -43 l 1
 521 -106 l 1
 116 -106 l 1
 116 1350 l 1
 521 1350 l 1
 521 1285 l 1
 273 1285 l 1
 273 -43 l 1
EndSplineSet
Validated: 1
EndChar

StartChar: backslash
Encoding: 61 92 35
Width: 1063
VWidth: 1755
GlyphClass: 2
Flags: W
HStem: 0 21G<821.142 934>
LayerCount: 2
Fore
SplineSet
231 1293 m 1
 934 0 l 1
 832 0 l 1
 130 1293 l 1
 231 1293 l 1
EndSplineSet
Validated: 1
EndChar

StartChar: bracketright
Encoding: 62 93 36
Width: 583
VWidth: 1755
GlyphClass: 2
Flags: W
HStem: -106 65<63 308> 1287 63<63 308>
VStem: 308 159<-41 1287>
LayerCount: 2
Fore
SplineSet
308 1287 m 1
 63 1287 l 1
 63 1350 l 1
 467 1350 l 1
 467 -106 l 1
 63 -106 l 1
 63 -41 l 1
 308 -41 l 1
 308 1287 l 1
EndSplineSet
Validated: 1
EndChar

StartChar: asciicircum
Encoding: 63 94 37
Width: 1063
VWidth: 1755
GlyphClass: 2
Flags: W
LayerCount: 2
Fore
SplineSet
973 558 m 1
 819 558 l 1
 534 1104 l 1
 244 558 l 1
 91 558 l 1
 458 1267 l 1
 608 1267 l 1
 973 558 l 1
EndSplineSet
Validated: 1
EndChar

StartChar: dotnosp
Encoding: 96 775 38
Width: 0
GlyphClass: 4
Flags: W
HStem: 1275 208<-73.7598 73.3657>
VStem: -89 178<1288.01 1469.34>
AnchorPoint: "m2b-1" -1.52441 0 mark 0
LayerCount: 2
Fore
SplineSet
0 1275 m 256
 -49 1275 -89 1318 -89 1379 c 256
 -89 1440 -49 1483 0 1483 c 256
 52 1483 89 1437 89 1379 c 0
 89 1318 60 1275 0 1275 c 256
EndSplineSet
Validated: 1
EndChar

StartChar: dieresisnosp
Encoding: 97 776 39
Width: 0
GlyphClass: 4
Flags: W
HStem: 1265 205<-217.445 -74.6103 74.5547 217.39>
VStem: -232 172<1277.81 1457.62> 60 172<1277.81 1457.62>
AnchorPoint: "m2b-1" 1 0 mark 0
LayerCount: 2
Fore
SplineSet
-146 1265 m 256
 -199 1265 -232 1313 -232 1368 c 256
 -232 1428 -194 1470 -146 1470 c 256
 -94 1470 -60 1424 -60 1368 c 256
 -60 1308 -98 1265 -146 1265 c 256
146 1265 m 256
 93 1265 60 1313 60 1368 c 256
 60 1428 98 1470 146 1470 c 256
 198 1470 232 1424 232 1368 c 256
 232 1308 194 1265 146 1265 c 256
EndSplineSet
Validated: 1
EndChar

StartChar: ringnosp
Encoding: 98 778 40
Width: 0
GlyphClass: 4
Flags: W
HStem: 1275 63<-67.9897 68.5968> 1561 64<-70.0436 68.736>
VStem: -151 56<1368.35 1531.62> 95 56<1367.69 1531.3>
AnchorPoint: "m2b-1" -0.5 0 mark 0
LayerCount: 2
Fore
SplineSet
0 1275 m 0
 -95 1275 -151 1359 -151 1450 c 256
 -151 1544 -94 1625 0 1625 c 256
 88 1625 151 1551 151 1450 c 0
 151 1356 90 1275 0 1275 c 0
0 1561 m 256
 -64 1561 -95 1508 -95 1450 c 0
 -95 1395 -65 1338 0 1338 c 256
 65 1338 95 1395 95 1450 c 0
 95 1508 64 1561 0 1561 c 256
EndSplineSet
Validated: 1
EndChar

StartChar: atnah
Encoding: 100 1425 42
Width: 0
GlyphClass: 4
Flags: W
HStem: -435 309
AnchorPoint: "m2b-mback" 0 0 mark 0
AnchorPoint: "m2m-4" 192.192 -0.0517578 mark 0
AnchorPoint: "m2m-4" -271.808 0 basemark 0
AnchorPoint: "m2m-3" -271.808 0 basemark 0
AnchorPoint: "m2m-1" 192.192 -0.0517578 mark 0
AnchorPoint: "m2b-5a" 0.192383 0 mark 0
LayerCount: 2
Fore
SplineSet
174 -359 m 2
 200 -395 199 -395 163 -420 c 0
 127 -445 128 -444 103 -409 c 2
 31 -307 l 2
 0 -263 0 -262 -31 -307 c 2
 -99 -404 l 2
 -114 -426 -123 -435 -133 -435 c 0
 -142 -435 -151 -429 -167 -417 c 0
 -199 -394 -200 -395 -174 -359 c 2
 -40 -169 l 2
 -20 -140 -10 -126 0 -126 c 0
 10 -126 20 -141 41 -170 c 2
 174 -359 l 2
EndSplineSet
Validated: 1
MultipleSubs2: "AddHairspaceAfterMark subtable" atnah hairspace
MultipleSubs2: "AddThinspaceAfterMark subtable" atnah thinspace
Position2: "'position' Move Low Accent to Right-1" dx=200 dy=0 dh=0 dv=0
EndChar

StartChar: segolta
Encoding: 101 1426 43
Width: 0
GlyphClass: 4
Flags: W
HStem: 1276 157<-174.075 -52.6075 52.0958 174.075> 1510 157<-61.0748 61.0748>
VStem: -180 134<1280.29 1428.7> -67 134<1514.3 1662.71> 46 134<1280.29 1428.7>
AnchorPoint: "m2m-8" 180 2.3 mark 0
AnchorPoint: "m2m-7" 180 0 mark 0
AnchorPoint: "m2m-rafe" 350 0 mark 0
AnchorPoint: "m2b-8b" -0.232422 0 mark 0
LayerCount: 2
Fore
SplineSet
-113 1276 m 256xe0
 -154 1276 -180 1311 -180 1354 c 256
 -180 1402 -151 1433 -113 1433 c 256
 -73 1433 -46 1398 -46 1354 c 256
 -46 1307 -76 1276 -113 1276 c 256xe0
0 1510 m 256
 -41 1510 -67 1545 -67 1589 c 256
 -67 1636 -37 1667 0 1667 c 256
 41 1667 67 1632 67 1589 c 256xd0
 67 1541 37 1510 0 1510 c 256
113 1276 m 256
 73 1276 46 1311 46 1354 c 256
 46 1402 76 1433 113 1433 c 256
 154 1433 180 1398 180 1354 c 256xc8
 180 1307 151 1276 113 1276 c 256
EndSplineSet
Validated: 1
MultipleSubs2: "AddHairspaceAfterMark subtable" segolta hairspace
MultipleSubs2: "AddThinspaceAfterMark subtable" segolta thinspace
Substitution2: "UpperMarksChanges subtable" segolta_on_right
EndChar

StartChar: shalshelet
Encoding: 102 1427 44
Width: 0
GlyphClass: 4
Flags: W
HStem: 1273 431
AnchorPoint: "m2m-7" -188 0 basemark 0
AnchorPoint: "m2m-7" 108 0 mark 0
AnchorPoint: "m2m-rafe" 0 0 mark 0
AnchorPoint: "m2m-7n" 108 0 mark 0
AnchorPoint: "m2b-9" -0.5 0 mark 0
AnchorPoint: "m2b-8a" -0.5 0 mark 0
LayerCount: 2
Fore
SplineSet
74 1510 m 2
 0 1463 l 1
 -24 1446 -23 1446 0 1432 c 2
 82 1378 l 1
 106 1364 106 1362 82 1346 c 2
 3 1292 l 2
 -24 1273 -24 1273 -64 1273 c 0
 -106 1273 -106 1274 -76 1294 c 2
 0 1347 l 2
 24 1363 24 1364 0 1377 c 1
 -84 1432 l 1
 -106 1445 -105 1448 -84 1463 c 1
 0 1516 l 2
 21 1530 23 1530 0 1545 c 2
 -80 1596 l 2
 -107 1614 -106 1615 -80 1632 c 2
 -4 1684 l 2
 25 1704 24 1704 56 1704 c 0
 102 1704 102 1703 69 1680 c 2
 -4 1630 l 2
 -27 1614 -27 1614 -5 1600 c 2
 72 1550 l 2
 104 1530 104 1530 74 1510 c 2
EndSplineSet
Validated: 1
MultipleSubs2: "AddHairspaceAfterMark subtable" shalshelet hairspace
MultipleSubs2: "AddThinspaceAfterMark subtable" shalshelet thinspace
EndChar

StartChar: zaqefqatan
Encoding: 103 1428 45
Width: 0
GlyphClass: 4
Flags: W
HStem: 1275 157<-61.0748 61.0748> 1518 158<-61.0748 61.0748>
VStem: -67 134<1279.3 1427.71 1522.42 1671.58>
AnchorPoint: "m2m-7" -147 0 basemark 0
AnchorPoint: "m2m-7" 67 0 mark 0
AnchorPoint: "m2m-rafe" 0 0 mark 0
AnchorPoint: "m2m-7n" 67 0 mark 0
AnchorPoint: "m2b-9" 0.0195312 0 mark 0
AnchorPoint: "m2b-8a" 0.0195312 0 mark 0
LayerCount: 2
Fore
SplineSet
0 1275 m 256
 -41 1275 -67 1310 -67 1354 c 256
 -67 1401 -37 1432 0 1432 c 256
 41 1432 67 1397 67 1354 c 256
 67 1306 37 1275 0 1275 c 256
0 1518 m 256
 -41 1518 -67 1553 -67 1597 c 256
 -67 1644 -37 1676 0 1676 c 256
 41 1676 67 1641 67 1597 c 256
 67 1550 37 1518 0 1518 c 256
EndSplineSet
Validated: 1
MultipleSubs2: "AddHairspaceAfterMark subtable" zaqefqatan hairspace
MultipleSubs2: "AddThinspaceAfterMark subtable" zaqefqatan thinspace
EndChar

StartChar: zaqefgadol
Encoding: 104 1429 46
Width: 0
GlyphClass: 4
Flags: W
HStem: 1276 157<5.94745 128.097> 1519 158<6.6297 127.415>
VStem: -134 68<1290 1672> 0 134<1280.29 1428.7 1523.43 1672.71>
AnchorPoint: "m2m-7" -214 0 basemark 0
AnchorPoint: "m2m-7" 134 0 mark 0
AnchorPoint: "m2m-rafe" 0 0 mark 0
AnchorPoint: "m2m-7n" 134 0 mark 0
AnchorPoint: "m2b-9" -72.7188 0 mark 0
AnchorPoint: "m2b-8a" 0 0 mark 0
LayerCount: 2
Fore
SplineSet
68 1276 m 256
 26 1276 0 1311 0 1354 c 256
 0 1402 30 1433 68 1433 c 256
 108 1433 134 1398 134 1354 c 256
 134 1307 104 1276 68 1276 c 256
68 1519 m 256
 26 1519 0 1555 0 1599 c 256
 0 1646 30 1677 68 1677 c 256
 108 1677 134 1642 134 1599 c 256
 134 1551 104 1519 68 1519 c 256
-66 1324 m 2
 -66 1290 -67 1290 -99 1290 c 0
 -133 1290 -134 1291 -134 1325 c 2
 -134 1639 l 2
 -134 1671 -133 1672 -102 1672 c 0
 -67 1672 -66 1672 -66 1641 c 2
 -66 1324 l 2
EndSplineSet
Validated: 1
MultipleSubs2: "AddHairspaceAfterMark subtable" zaqefgadol hairspace
MultipleSubs2: "AddThinspaceAfterMark subtable" zaqefgadol thinspace
EndChar

StartChar: tipeha
Encoding: 105 1430 47
Width: 0
GlyphClass: 4
Flags: W
VStem: 19 93<-512.339 -479>
AnchorPoint: "m2b-mback" -52 0.900024 mark 0
AnchorPoint: "m2m-4" -197 0 basemark 0
AnchorPoint: "m2m-4" 112 0 mark 0
AnchorPoint: "m2m-3" -197 0 basemark 0
AnchorPoint: "m2m-1" 112 0 mark 0
AnchorPoint: "m2b-5a" -51.5 0 mark 0
LayerCount: 2
Fore
SplineSet
112 -481 m 0
 112 -497 54 -519 48 -519 c 0
 37 -519 32 -508 19 -479 c 2
 -105 -215 l 2
 -123 -175 -123 -173 -86 -156 c 0
 -47 -137 -46 -137 -27 -177 c 2
 99 -446 l 2
 107 -463 112 -474 112 -481 c 0
EndSplineSet
Validated: 1
MultipleSubs2: "AddHairspaceAfterMark subtable" tipeha hairspace
MultipleSubs2: "AddThinspaceAfterMark subtable" tipeha thinspace
Position2: "'position' Move Low Accent to Right-1" dx=200 dy=0 dh=0 dv=0
EndChar

StartChar: revia
Encoding: 106 1431 48
Width: 0
GlyphClass: 4
Flags: W
HStem: 1296 234<-45.1409 45.1409>
VStem: -89 178<1340.31 1485.69>
AnchorPoint: "m2m-7" -180 0 basemark 0
AnchorPoint: "m2m-7" 100 0 mark 0
AnchorPoint: "m2m-7n" 100 0 mark 0
AnchorPoint: "m2b-9" 4.5 0 mark 0
AnchorPoint: "m2b-8a" 0 0 mark 0
LayerCount: 2
Fore
SplineSet
-57 1356 m 1
 -79 1383 -89 1397 -89 1412 c 0
 -89 1426 -79 1442 -58 1472 c 0
 -31 1511 -18 1530 -3 1530 c 0
 11 1530 27 1510 57 1470 c 1
 79 1439 89 1424 89 1410 c 0
 89 1396 79 1382 58 1356 c 1
 31 1316 17 1296 3 1296 c 0
 -11 1296 -27 1316 -57 1356 c 1
EndSplineSet
Validated: 1
MultipleSubs2: "AddHairspaceAfterMark subtable" revia hairspace
MultipleSubs2: "AddThinspaceAfterMark subtable" revia thinspace
EndChar

StartChar: zarqa
Encoding: 107 1432 49
Width: 0
GlyphClass: 4
Flags: W
HStem: 1532 88<-70.1636 77.8237>
VStem: -158 84<1451.01 1524.37> 86 86<1284 1522.43>
AnchorPoint: "m2m-rafe" 0 0 mark 0
AnchorPoint: "m2m-7" -240 0 basemark 0
AnchorPoint: "m2m-7" 172 0 mark 0
AnchorPoint: "m2m-7n" 172 0 mark 0
AnchorPoint: "m2b-8a" 0 0 mark 0
AnchorPoint: "m2b-9" 0 0 mark 0
LayerCount: 2
Fore
SplineSet
-158 1503 m 0
 -134 1583 -67 1620 0 1620 c 0
 85 1620 172 1559 172 1451 c 2
 172 1339 l 2
 172 1286 172 1284 133 1284 c 0
 124 1284 l 0
 87 1284 86 1285 86 1338 c 2
 86 1451 l 2
 86 1505 45 1532 4 1532 c 0
 -29 1532 -62 1514 -74 1479 c 0
 -81 1455 -80 1451 -103 1451 c 2
 -128 1451 l 2
 -165 1451 -171 1459 -158 1503 c 0
EndSplineSet
Validated: 1
MultipleSubs2: "AddHairspaceAfterMark subtable" zarqa hairspace
MultipleSubs2: "AddThinspaceAfterMark subtable" zarqa thinspace
EndChar

StartChar: pashta
Encoding: 108 1433 50
Width: 0
GlyphClass: 4
Flags: W
VStem: 14 93<1302.66 1336>
AnchorPoint: "m2m-8" 107 0 mark 0
AnchorPoint: "m2m-rafe" 300 0 mark 0
AnchorPoint: "m2m-7" 107 0 mark 0
AnchorPoint: "m2b-8b" 0 0 mark 0
LayerCount: 2
Fore
SplineSet
107 1334 m 0
 107 1318 49 1296 43 1296 c 0
 32 1296 27 1307 14 1336 c 2
 -90 1564 l 2
 -108 1604 -108 1606 -71 1623 c 0
 -32 1642 -30 1643 -12 1602 c 2
 94 1369 l 2
 102 1352 107 1341 107 1334 c 0
EndSplineSet
Validated: 1
MultipleSubs2: "AddHairspaceAfterMark subtable" pashta hairspace
MultipleSubs2: "AddThinspaceAfterMark subtable" pashta thinspace
Substitution2: "UpperMarksChanges subtable" qadma
EndChar

StartChar: yetiv
Encoding: 109 1434 51
Width: 0
GlyphClass: 4
Flags: W
VStem: -154 309
AnchorPoint: "m2m-6d" -154 0.5 mark 0
AnchorPoint: "m2m-6e" -154 0.5 mark 0
AnchorPoint: "m2m-6a" -154 0.5 mark 0
AnchorPoint: "m2m-6b" -154 0.5 mark 0
AnchorPoint: "m2m-6c" -154 0.5 mark 0
AnchorPoint: "m2m-5" -154 0.5 mark 0
AnchorPoint: "m2b-5b" -487.5 0 mark 0
LayerCount: 2
Fore
SplineSet
79 -156 m 2
 115 -130 115 -131 140 -167 c 0
 165 -203 164 -202 129 -227 c 2
 27 -299 l 2
 -17 -330 -18 -330 27 -361 c 2
 124 -429 l 2
 146 -444 155 -453 155 -463 c 0
 155 -472 149 -481 137 -497 c 0
 114 -529 115 -530 79 -504 c 2
 -111 -370 l 2
 -140 -350 -154 -340 -154 -330 c 0
 -154 -320 -139 -310 -110 -289 c 2
 79 -156 l 2
EndSplineSet
Validated: 1
MultipleSubs2: "AddHairspaceAfterMark subtable" yetiv hairspace
MultipleSubs2: "AddThinspaceAfterMark subtable" yetiv thinspace
EndChar

StartChar: tevir
Encoding: 110 1435 52
Width: 0
GlyphClass: 4
Flags: W
HStem: -350 148<-142.796 -27.8585>
VStem: -148 126<-346.691 -205.665>
AnchorPoint: "m2b-mback" 13 0 mark 0
AnchorPoint: "m2m-4" -228 0 basemark 0
AnchorPoint: "m2m-4" 192 0 mark 0
AnchorPoint: "m2m-3" -228 0 basemark 0
AnchorPoint: "m2m-1" 192 -1 mark 0
AnchorPoint: "m2b-5a" 11.5 0 mark 0
LayerCount: 2
Fore
SplineSet
36 -525 m 0
 34 -526 32 -527 29 -527 c 0
 10 -527 -31 -504 -34 -500 c 0
 -41 -492 -36 -481 -22 -452 c 2
 101 -187 l 2
 120 -148 121 -147 158 -164 c 0
 199 -183 198 -182 180 -223 c 2
 55 -492 l 2
 47 -509 42 -520 36 -525 c 0
-86 -350 m 0
 -122 -350 -148 -317 -148 -277 c 0
 -148 -236 -122 -202 -86 -202 c 0
 -48 -202 -22 -239 -22 -277 c 0
 -22 -320 -50 -350 -86 -350 c 0
EndSplineSet
Validated: 1
MultipleSubs2: "AddHairspaceAfterMark subtable" tevir hairspace
MultipleSubs2: "AddThinspaceAfterMark subtable" tevir thinspace
Position2: "'position' Move Low Accent to Right-1" dx=200 dy=0 dh=0 dv=0
EndChar

StartChar: gereshaccent
Encoding: 111 1436 53
Width: 0
GlyphClass: 4
Flags: W
AnchorPoint: "m2m-rafe" 0 0 mark 0
AnchorPoint: "m2m-7" -187 0 basemark 0
AnchorPoint: "m2m-7" 107 0 mark 0
AnchorPoint: "m2m-7n" 107 0 mark 0
AnchorPoint: "m2b-9" 0 0 mark 0
AnchorPoint: "m2b-8a" 0 0 mark 0
LayerCount: 2
Fore
SplineSet
-34 1304 m 0
 -36 1303 -38 1302 -41 1302 c 0
 -60 1302 -101 1325 -104 1328 c 0
 -111 1337 -106 1348 -92 1376 c 2
 16 1603 l 2
 35 1642 36 1643 73 1626 c 0
 113 1608 115 1607 95 1567 c 2
 -15 1336 l 2
 -23 1319 -28 1308 -34 1304 c 0
EndSplineSet
Validated: 1
MultipleSubs2: "AddHairspaceAfterMark subtable" gereshaccent hairspace
MultipleSubs2: "AddThinspaceAfterMark subtable" gereshaccent thinspace
EndChar

StartChar: gereshmuqdam
Encoding: 112 1437 54
Width: 0
GlyphClass: 4
Flags: W
AnchorPoint: "m2m-rafe" -300 0 mark 0
AnchorPoint: "m2m-7n" -184 0 basemark 0
AnchorPoint: "m2b-8c" -212 0 mark 0
LayerCount: 2
Fore
SplineSet
-34 1304 m 0
 -36 1303 -38 1302 -41 1302 c 0
 -60 1302 -101 1325 -104 1328 c 0
 -111 1337 -106 1348 -92 1376 c 2
 16 1603 l 2
 35 1642 36 1643 73 1626 c 0
 113 1608 115 1607 95 1567 c 2
 -15 1336 l 2
 -23 1319 -28 1308 -34 1304 c 0
EndSplineSet
Validated: 1
MultipleSubs2: "AddHairspaceAfterMark subtable" gereshmuqdam hairspace
MultipleSubs2: "AddThinspaceAfterMark subtable" gereshmuqdam thinspace
EndChar

StartChar: gershayimaccent
Encoding: 113 1438 55
Width: 0
GlyphClass: 4
Flags: W
AnchorPoint: "m2m-rafe" 0 0 mark 0
AnchorPoint: "m2m-7" -288 0 basemark 0
AnchorPoint: "m2m-7" 208 0 mark 0
AnchorPoint: "m2m-7n" 210 0 mark 0
AnchorPoint: "m2b-9" 0 0 mark 0
AnchorPoint: "m2b-8a" -2.1377 0 mark 0
LayerCount: 2
Fore
SplineSet
67 1299 m 0
 65 1298 63 1297 60 1297 c 0
 41 1297 -0 1320 -3 1323 c 0
 -10 1332 -5 1344 9 1372 c 2
 117 1598 l 2
 136 1637 137 1638 174 1621 c 0
 214 1603 216 1602 196 1562 c 2
 86 1331 l 2
 78 1314 73 1303 67 1299 c 0
-135 1298 m 0
 -137 1297 -139 1296 -142 1296 c 0
 -161 1296 -202 1319 -205 1322 c 0
 -212 1331 -207 1344 -193 1372 c 2
 -85 1597 l 2
 -66 1636 -65 1637 -28 1620 c 0
 12 1602 14 1601 -6 1561 c 2
 -116 1330 l 2
 -124 1313 -129 1302 -135 1298 c 0
EndSplineSet
Validated: 1
MultipleSubs2: "AddHairspaceAfterMark subtable" gershayimaccent hairspace
MultipleSubs2: "AddThinspaceAfterMark subtable" gershayimaccent thinspace
EndChar

StartChar: qarneypara
Encoding: 114 1439 56
Width: 0
GlyphClass: 4
Flags: W
HStem: 1280 76<-52.789 53.3168> 1372 64<-217.892 -103.535 102.019 217.892> 1578 60<-217.272 -103.518 103.518 217.272>
VStem: -283 53<1450.82 1563.04> -90 55<1450.69 1563.04> 35 55<1450.49 1563.04> 230 53<1450.82 1563.04>
AnchorPoint: "m2m-rafe" 0 0 mark 0
AnchorPoint: "m2m-7" -363 0 basemark 0
AnchorPoint: "m2m-7" 283 0 mark 0
AnchorPoint: "m2m-7n" 280 0 mark 0
AnchorPoint: "m2b-8a" 0 0 mark 0
AnchorPoint: "m2b-9" 0 0 mark 0
LayerCount: 2
Fore
SplineSet
50 1390 m 0
 70 1409 71 1409 52 1437 c 1
 41 1458 35 1482 35 1507 c 0
 35 1583 93 1638 161 1638 c 0
 229 1638 283 1583 283 1507 c 0
 283 1431 227 1372 159 1372 c 0
 138 1372 129 1374 107 1353 c 0
 53 1304 27 1280 0 1280 c 0
 -27 1280 -53 1304 -106 1353 c 0
 -128 1373 -136 1372 -159 1372 c 0
 -227 1372 -283 1431 -283 1507 c 0
 -283 1583 -229 1638 -161 1638 c 0
 -93 1638 -35 1583 -35 1507 c 0
 -35 1482 -41 1459 -52 1439 c 1
 -70 1411 -70 1411 -50 1391 c 0
 -25 1367 -12 1356 0 1356 c 0
 12 1356 25 1367 50 1390 c 0
-161 1578 m 0
 -204 1578 -230 1545 -230 1508 c 0
 -230 1470 -204 1436 -161 1436 c 0
 -117 1436 -90 1470 -90 1508 c 256
 -90 1545 -117 1578 -161 1578 c 0
161 1578 m 0
 117 1578 90 1545 90 1508 c 256
 90 1470 117 1436 161 1436 c 0
 204 1436 230 1470 230 1508 c 0
 230 1545 204 1578 161 1578 c 0
EndSplineSet
Validated: 1
MultipleSubs2: "AddHairspaceAfterMark subtable" qarneypara hairspace
MultipleSubs2: "AddThinspaceAfterMark subtable" qarneypara thinspace
EndChar

StartChar: telishagedola
Encoding: 115 1440 57
Width: 0
GlyphClass: 4
Flags: W
HStem: 1400 68<-53.5688 75.799> 1706 66<-60.9568 76.0139>
VStem: -150 60<1499.9 1674.22> 106 60<1500.21 1673.11>
AnchorPoint: "m2m-rafe" -300 0 mark 0
AnchorPoint: "m2m-7n" -246 0 basemark 0
AnchorPoint: "m2b-9" 0 0 mark 0
AnchorPoint: "m2b-8c" -194.5 0 mark 0
LayerCount: 2
Fore
SplineSet
7 1706 m 0
 -54 1706 -90 1649 -90 1587 c 256
 -90 1525 -54 1468 7 1468 c 0
 68 1468 106 1525 106 1587 c 0
 106 1649 68 1706 7 1706 c 0
-94 1447 m 1
 -123 1477 -150 1522 -150 1587 c 0
 -150 1688 -87 1772 7 1772 c 256
 103 1772 166 1683 166 1587 c 256
 166 1489 102 1400 7 1400 c 0
 -3 1400 -25 1407 -47 1415 c 1
 -110 1275 l 1
 -166 1312 l 1
 -94 1447 l 1
EndSplineSet
Validated: 1
MultipleSubs2: "AddHairspaceAfterMark subtable" telishagedola hairspace
MultipleSubs2: "AddThinspaceAfterMark subtable" telishagedola thinspace
Substitution2: "UpperMarksChanges subtable" telishag_on_left
EndChar

StartChar: pazer
Encoding: 116 1441 58
Width: 0
GlyphClass: 4
Flags: W
HStem: 1420 87<-65.9945 165.996>
VStem: -152 86<1274 1420 1507.02 1645>
AnchorPoint: "m2m-rafe" 0 0 mark 0
AnchorPoint: "m2m-7" -232 0 basemark 0
AnchorPoint: "m2m-7" 152 0 mark 0
AnchorPoint: "m2m-7n" 166 0 mark 0
AnchorPoint: "m2b-9" 0 0 mark 0
AnchorPoint: "m2b-8a" 0 0 mark 0
LayerCount: 2
Fore
SplineSet
124 1420 m 0
 77 1420 31 1420 -16 1420 c 0
 -22 1420 l 0
 -66 1420 -66 1419 -66 1372 c 2
 -66 1318 l 2
 -66 1274 -66 1274 -111 1274 c 0
 -152 1274 -152 1274 -152 1320 c 2
 -152 1594 l 2
 -152 1643 -150 1645 -118 1645 c 0
 -110 1645 l 0
 -66 1645 -66 1646 -66 1599 c 2
 -66 1555 l 2
 -66 1507 -66 1507 -13 1507 c 2
 116 1507 l 2
 166 1507 166 1506 166 1468 c 0
 166 1421 166 1420 124 1420 c 0
EndSplineSet
Validated: 1
MultipleSubs2: "AddHairspaceAfterMark subtable" pazer hairspace
MultipleSubs2: "AddThinspaceAfterMark subtable" pazer thinspace
EndChar

StartChar: atnahhafukh
Encoding: 117 1442 59
Width: 0
GlyphClass: 4
Flags: W
HStem: -448 309
AnchorPoint: "m2b-mback" 0 0 mark 0
AnchorPoint: "m2m-4" -272 0 basemark 0
AnchorPoint: "m2m-4" 192 0 mark 0
AnchorPoint: "m2m-3" -272 0 basemark 0
AnchorPoint: "m2m-1" 192 0 mark 0
AnchorPoint: "m2b-5a" 0 0 mark 0
LayerCount: 2
Fore
SplineSet
-174 -215 m 2
 -200 -179 -199 -179 -163 -154 c 0
 -127 -129 -128 -130 -103 -165 c 2
 -31 -267 l 2
 0 -311 0 -312 31 -267 c 2
 99 -170 l 2
 114 -148 123 -139 133 -139 c 0
 142 -139 151 -145 167 -157 c 0
 199 -180 200 -179 174 -215 c 2
 40 -405 l 2
 20 -434 10 -448 0 -448 c 0
 -10 -448 -20 -433 -41 -404 c 2
 -174 -215 l 2
EndSplineSet
Validated: 1
MultipleSubs2: "AddHairspaceAfterMark subtable" atnahhafukh hairspace
MultipleSubs2: "AddThinspaceAfterMark subtable" atnahhafukh thinspace
Position2: "'position' Move Low Accent to Right-1" dx=200 dy=0 dh=0 dv=0
EndChar

StartChar: munah
Encoding: 118 1443 60
Width: 0
GlyphClass: 4
Flags: W
HStem: -518 81<-115.999 46>
VStem: 46 70<-437 -145.004>
AnchorPoint: "m2b-mback" 0 0 mark 0
AnchorPoint: "m2m-4" 116 0 mark 0
AnchorPoint: "m2m-4" -196 0 basemark 0
AnchorPoint: "m2m-3" -196 0 basemark 0
AnchorPoint: "m2m-1" 116 0 mark 0
AnchorPoint: "m2b-5a" 1 0 mark 0
LayerCount: 2
Fore
SplineSet
116 -476 m 2
 116 -518 116 -518 80 -518 c 2
 -87 -518 l 2
 -115 -518 -116 -518 -116 -476 c 0
 -116 -438 -116 -437 -79 -437 c 2
 10 -437 l 2
 46 -437 46 -437 46 -400 c 2
 46 -174 l 2
 46 -146 46 -145 79 -145 c 0
 115 -145 116 -146 116 -174 c 2
 116 -476 l 2
EndSplineSet
Validated: 1
MultipleSubs2: "AddHairspaceAfterMark subtable" munah hairspace
MultipleSubs2: "AddThinspaceAfterMark subtable" munah thinspace
Position2: "'position' Move Low Accent to Right-1" dx=200 dy=0 dh=0 dv=0
EndChar

StartChar: mahapakh
Encoding: 119 1444 61
Width: 0
GlyphClass: 4
Flags: W
VStem: -139 279
AnchorPoint: "m2b-mback" 0 0 mark 0
AnchorPoint: "m2m-4" -212 0 basemark 0
AnchorPoint: "m2m-4" 132 0 mark 0
AnchorPoint: "m2m-3" -212 0 basemark 0
AnchorPoint: "m2m-1" 132 0 mark 0
AnchorPoint: "m2b-5a" 4.5 0 mark 0
LayerCount: 2
Fore
SplineSet
71 -156 m 2
 104 -130 104 -131 126 -167 c 0
 149 -203 148 -202 116 -227 c 2
 24 -299 l 2
 -15 -330 -16 -330 24 -361 c 2
 112 -429 l 2
 131 -444 140 -453 140 -463 c 0
 140 -472 134 -481 123 -497 c 0
 103 -529 104 -530 71 -504 c 2
 -100 -370 l 2
 -126 -350 -139 -340 -139 -330 c 0
 -139 -320 -125 -310 -99 -289 c 2
 71 -156 l 2
EndSplineSet
Validated: 1
MultipleSubs2: "AddHairspaceAfterMark subtable" mahapakh hairspace
MultipleSubs2: "AddThinspaceAfterMark subtable" mahapakh thinspace
Position2: "'position' Move Low Accent to Right-1" dx=200 dy=0 dh=0 dv=0
EndChar

StartChar: merkha
Encoding: 120 1445 62
Width: 0
GlyphClass: 4
Flags: W
AnchorPoint: "m2b-mback" 38 0 mark 0
AnchorPoint: "m2m-4" -194 0 basemark 0
AnchorPoint: "m2m-4" 114 0 mark 0
AnchorPoint: "m2m-3" -194 0 basemark 0
AnchorPoint: "m2m-1" 114 0 mark 0
AnchorPoint: "m2b-5a" 38.2607 -0.2998 mark 0
LayerCount: 2
Fore
SplineSet
-41 -510 m 0
 -43 -511 -45 -512 -48 -512 c 0
 -67 -512 -108 -489 -111 -485 c 0
 -118 -477 -113 -466 -99 -437 c 2
 23 -172 l 2
 42 -133 44 -132 81 -149 c 0
 122 -168 121 -167 102 -208 c 2
 -23 -477 l 2
 -31 -494 -36 -505 -41 -510 c 0
EndSplineSet
Validated: 1
MultipleSubs2: "AddHairspaceAfterMark subtable" merkha hairspace
MultipleSubs2: "AddThinspaceAfterMark subtable" merkha thinspace
Position2: "'position' Move Low Accent to Right-1" dx=200 dy=0 dh=0 dv=0
EndChar

StartChar: merkhakefula
Encoding: 121 1446 63
Width: 0
GlyphClass: 4
Flags: W
HStem: -517 378
AnchorPoint: "m2b-mback" 0 0 mark 0
AnchorPoint: "m2m-4" -275 0 basemark 0
AnchorPoint: "m2m-4" 195 -0.666667 mark 0
AnchorPoint: "m2m-3" -275 0 basemark 0
AnchorPoint: "m2m-1" 195 0 mark 0
AnchorPoint: "m2b-5a" -0.416667 -0.666667 mark 0
LayerCount: 2
Fore
SplineSet
44 -517 m 0
 42 -518 40 -517 37 -517 c 0
 18 -517 -23 -496 -26 -492 c 0
 -33 -484 -28 -473 -14 -444 c 2
 108 -179 l 2
 127 -140 129 -139 166 -156 c 0
 206 -175 206 -174 187 -215 c 2
 62 -484 l 2
 54 -501 49 -512 44 -517 c 0
-122 -510 m 0
 -124 -511 -126 -512 -129 -512 c 0
 -148 -512 -189 -489 -192 -485 c 0
 -199 -477 -194 -466 -180 -437 c 2
 -58 -172 l 2
 -46 -148 -40 -139 -29 -139 c 0
 -22 -139 -14 -142 0 -149 c 0
 41 -168 40 -167 21 -208 c 2
 -104 -477 l 2
 -111 -494 -117 -505 -122 -510 c 0
EndSplineSet
Validated: 1
MultipleSubs2: "AddHairspaceAfterMark subtable" merkhakefula hairspace
MultipleSubs2: "AddThinspaceAfterMark subtable" merkhakefula thinspace
Position2: "'position' Move Low Accent to Right-1" dx=200 dy=0 dh=0 dv=0
EndChar

StartChar: darga
Encoding: 122 1447 64
Width: 0
GlyphClass: 4
Flags: W
HStem: -530 76<-88.9968 26.5906>
VStem: -101 69<-285.816 -216.902> 32 68<-441.652 -374.099>
AnchorPoint: "m2b-mback" 0 0 mark 0
AnchorPoint: "m2m-4" -181 0 basemark 0
AnchorPoint: "m2m-4" 101 0 mark 0
AnchorPoint: "m2m-3" -181 0 basemark 0
AnchorPoint: "m2m-1" 101 0 mark 0
AnchorPoint: "m2b-5a" 0 0 mark 0
LayerCount: 2
Fore
SplineSet
-32 -272 m 0
 -32 -282 99 -302 99 -353 c 0
 99 -363 100 -372 100 -384 c 0
 100 -488 37 -513 -40 -530 c 1
 -86 -538 -89 -538 -89 -496 c 0
 -89 -462 -89 -460 -58 -454 c 1
 -10 -442 32 -449 32 -389 c 0
 32 -377 -90 -362 -101 -308 c 0
 -102 -300 -101 -290 -101 -277 c 0
 -101 -173 -55 -155 32 -134 c 1
 75 -125 78 -126 78 -162 c 0
 78 -202 77 -202 40 -206 c 1
 9 -206 -32 -229 -32 -272 c 0
EndSplineSet
Validated: 1
MultipleSubs2: "AddHairspaceAfterMark subtable" darga hairspace
MultipleSubs2: "AddThinspaceAfterMark subtable" darga thinspace
Position2: "'position' Move Low Accent to Right-1" dx=200 dy=0 dh=0 dv=0
EndChar

StartChar: qadma
Encoding: 123 1448 65
Width: 0
GlyphClass: 4
Flags: W
AnchorPoint: "m2m-rafe" 0 0 mark 0
AnchorPoint: "m2m-7" -184 0 basemark 0
AnchorPoint: "m2m-7" 98 0 mark 0
AnchorPoint: "m2m-7n" 95 0 mark 0
AnchorPoint: "m2b-9" 0 0 mark 0
AnchorPoint: "m2b-8a" 0 0 mark 0
LayerCount: 2
Fore
SplineSet
25 1304 m 0
 19 1308 14 1319 6 1336 c 2
 -104 1567 l 2
 -124 1607 -122 1608 -82 1626 c 0
 -45 1643 -44 1642 -25 1603 c 2
 83 1376 l 2
 97 1348 102 1337 95 1328 c 0
 92 1325 51 1302 32 1302 c 0
 29 1302 27 1303 25 1304 c 0
EndSplineSet
Validated: 1
MultipleSubs2: "AddHairspaceAfterMark subtable" qadma hairspace
MultipleSubs2: "AddThinspaceAfterMark subtable" qadma thinspace
EndChar

StartChar: telishaqetana
Encoding: 124 1449 66
Width: 0
GlyphClass: 4
Flags: W
HStem: 1414 66<-75.799 53.5688> 1718 66<-76.0139 60.9568>
VStem: -166 60<1512.44 1685.11> 90 60<1512.12 1686.22>
AnchorPoint: "m2m-8" 166 0 mark 0
AnchorPoint: "m2m-rafe" 350 0 mark 0
AnchorPoint: "m2m-7" 166 0 mark 0
AnchorPoint: "m2b-8b" 50 0 mark 0
LayerCount: 2
Fore
SplineSet
-7 1480 m 0
 54 1480 90 1537 90 1599 c 256
 90 1661 54 1718 -7 1718 c 0
 -68 1718 -106 1661 -106 1599 c 0
 -106 1537 -68 1480 -7 1480 c 0
-7 1784 m 256
 87 1784 150 1700 150 1599 c 0
 150 1549 132 1499 94 1459 c 1
 166 1324 l 1
 110 1287 l 1
 47 1427 l 1
 25 1419 3 1414 -7 1414 c 0
 -102 1414 -166 1501 -166 1599 c 256
 -166 1695 -103 1784 -7 1784 c 256
EndSplineSet
Validated: 1
MultipleSubs2: "AddHairspaceAfterMark subtable" telishaqetana hairspace
MultipleSubs2: "AddThinspaceAfterMark subtable" telishaqetana thinspace
Substitution2: "UpperMarksChanges subtable" telishaq_on_right
EndChar

StartChar: yerahbenyomo
Encoding: 125 1450 67
Width: 0
GlyphClass: 4
Flags: W
HStem: -439 101<-53.0303 53.0303>
VStem: -193 111<-314.097 -135.494> 82 111<-314.097 -135.494>
AnchorPoint: "m2b-mback" 0 0 mark 0
AnchorPoint: "m2m-4" -273 0 basemark 0
AnchorPoint: "m2m-4" 193 0 mark 0
AnchorPoint: "m2m-3" -273 0 basemark 0
AnchorPoint: "m2m-1" 193 0 mark 0
AnchorPoint: "m2b-5a" -3.5 0 mark 0
LayerCount: 2
Fore
SplineSet
0 -338 m 0
 41 -338 82 -267 82 -144 c 1
 94 -138 124 -135 139 -135 c 0
 153 -135 176 -138 193 -144 c 1
 193 -332 106 -439 0 -439 c 0
 -106 -439 -193 -332 -193 -144 c 1
 -176 -138 -153 -135 -139 -135 c 0
 -124 -135 -94 -138 -82 -144 c 1
 -82 -267 -41 -338 0 -338 c 0
EndSplineSet
Validated: 1
MultipleSubs2: "AddHairspaceAfterMark subtable" yerahbenyomo hairspace
MultipleSubs2: "AddThinspaceAfterMark subtable" yerahbenyomo thinspace
Position2: "'position' Move Low Accent to Right-1" dx=200 dy=0 dh=0 dv=0
EndChar

StartChar: ole
Encoding: 126 1451 68
Width: 0
GlyphClass: 4
Flags: W
HStem: 1275 399
VStem: -133 266
AnchorPoint: "m2m-rafe" 0 0 mark 0
AnchorPoint: "m2m-7" -213 0 basemark 0
AnchorPoint: "m2m-7" 133 0 mark 0
AnchorPoint: "m2m-7n" 139 0 mark 0
AnchorPoint: "m2b-9" 0 0 mark 0
AnchorPoint: "m2b-8a" 0 0 mark 0
LayerCount: 2
Fore
SplineSet
133 1344 m 1
 85 1275 l 1
 -133 1474 l 1
 85 1674 l 1
 133 1605 l 1
 -23 1477 l 1
 133 1344 l 1
EndSplineSet
Validated: 1
MultipleSubs2: "AddHairspaceAfterMark subtable" ole hairspace
MultipleSubs2: "AddThinspaceAfterMark subtable" ole thinspace
EndChar

StartChar: iluy
Encoding: 127 1452 69
Width: 0
GlyphClass: 4
Flags: W
HStem: 1275 81<-120 50>
VStem: 50 70<1356 1648>
AnchorPoint: "m2m-rafe" 0 0 mark 0
AnchorPoint: "m2m-7" -200 0 basemark 0
AnchorPoint: "m2m-7" 120 0 mark 0
AnchorPoint: "m2m-7n" 120 0 mark 0
AnchorPoint: "m2b-9" 0 0 mark 0
AnchorPoint: "m2b-8a" 0 0 mark 0
LayerCount: 2
Fore
SplineSet
120 1275 m 1
 -120 1275 l 1
 -120 1356 l 1
 50 1356 l 1
 50 1648 l 1
 120 1648 l 1
 120 1275 l 1
EndSplineSet
Validated: 1
MultipleSubs2: "AddHairspaceAfterMark subtable" iluy hairspace
MultipleSubs2: "AddThinspaceAfterMark subtable" iluy thinspace
EndChar

StartChar: dehi
Encoding: 128 1453 70
Width: 0
GlyphClass: 4
Flags: W
VStem: 20 93<-503.339 -470>
AnchorPoint: "m2m-6d" -113 0 mark 0
AnchorPoint: "m2m-6e" -113 0 mark 0
AnchorPoint: "m2m-6b" -113 0 mark 0
AnchorPoint: "m2m-6c" -113 0 mark 0
AnchorPoint: "m2m-6a" -113 0 mark 0
AnchorPoint: "m2m-5" -113 0 mark 0
AnchorPoint: "m2b-5b" -488 0 mark 0
LayerCount: 2
Fore
SplineSet
113 -472 m 0
 113 -488 55 -510 49 -510 c 0
 38 -510 33 -499 20 -470 c 2
 -104 -206 l 2
 -122 -166 -122 -164 -85 -147 c 0
 -44 -128 -45 -128 -26 -168 c 2
 100 -437 l 2
 108 -454 113 -465 113 -472 c 0
EndSplineSet
Validated: 1
MultipleSubs2: "AddHairspaceAfterMark subtable" dehi hairspace
MultipleSubs2: "AddThinspaceAfterMark subtable" dehi thinspace
EndChar

StartChar: tsinor
Encoding: 129 1454 71
Width: 0
GlyphClass: 4
Flags: W
HStem: 1536 88<-70.1636 77.8237>
VStem: -158 84<1455.01 1528.37> 86 86<1288 1526.43>
AnchorPoint: "m2m-8" 172 0 mark 0
AnchorPoint: "m2m-rafe" 320 0 mark 0
AnchorPoint: "m2m-7" 172 0 mark 0
AnchorPoint: "m2m-7n" 172 0 mark 0
AnchorPoint: "m2b-8b" 0 0 mark 0
LayerCount: 2
Fore
SplineSet
-158 1507 m 0
 -134 1587 -67 1624 0 1624 c 0
 85 1624 172 1563 172 1455 c 2
 172 1343 l 2
 172 1290 172 1288 133 1288 c 0
 124 1288 l 0
 87 1288 86 1289 86 1342 c 2
 86 1455 l 2
 86 1509 45 1536 4 1536 c 0
 -29 1536 -62 1518 -74 1483 c 0
 -81 1459 -80 1455 -103 1455 c 2
 -128 1455 l 2
 -165 1455 -171 1463 -158 1507 c 0
EndSplineSet
Validated: 1
MultipleSubs2: "AddHairspaceAfterMark subtable" tsinor hairspace
MultipleSubs2: "AddThinspaceAfterMark subtable" tsinor thinspace
Substitution2: "UpperMarksChanges subtable" zarqa
EndChar

StartChar: masoracircle
Encoding: 130 1455 72
Width: 0
GlyphClass: 4
Flags: W
HStem: 1275 56<-66.8566 67.2012> 1604 56<-64.6522 68.0917>
VStem: -160 50<1380.55 1553.71> 114 46<1385.36 1548.03>
AnchorPoint: "m2m-rafe" 0 0 mark 0
AnchorPoint: "m2m-7" -240 0 basemark 0
AnchorPoint: "m2m-7" 160 0 mark 0
AnchorPoint: "m2m-7n" 160 0 mark 0
AnchorPoint: "m2b-8a" 0 80 mark 0
AnchorPoint: "m2b-9" 0 0 mark 0
LayerCount: 2
Fore
SplineSet
0 1275 m 0
 -89 1275 -160 1362 -160 1466 c 0
 -160 1564 -92 1660 0 1660 c 0
 85 1660 160 1574 160 1468 c 0
 160 1364 89 1275 0 1275 c 0
0 1604 m 0
 -60 1604 -110 1546 -110 1467 c 256
 -110 1388 -60 1331 0 1331 c 0
 58 1331 114 1385 114 1467 c 256
 114 1549 58 1604 0 1604 c 0
EndSplineSet
Validated: 1
MultipleSubs2: "AddHairspaceAfterMark subtable" masoracircle hairspace
MultipleSubs2: "AddThinspaceAfterMark subtable" masoracircle thinspace
EndChar

StartChar: sheva
Encoding: 131 1456 73
Width: 0
GlyphClass: 4
Flags: W
HStem: -533 157<-61.0748 61.0748> -289 157<-61.0748 61.0748>
VStem: -67 134<-528.707 -380.304 -284.696 -136.293>
AnchorPoint: "m2b-v2left" 30 0 mark 0
AnchorPoint: "m2b-vback" 0 0 mark 0
AnchorPoint: "m2b-v2r" -210 0 mark 0
AnchorPoint: "m2m-6e" 147 0 basemark 0
AnchorPoint: "VbWM" -67 0 mark 0
AnchorPoint: "VbNM" -67 0 mark 0
AnchorPoint: "m2m-5" 290 0 basemark 0
AnchorPoint: "m2m-2" 67 0 mark 0
AnchorPoint: "m2m-3" 67 0 mark 0
AnchorPoint: "m2m-1" -147 0 basemark 0
AnchorPoint: "m2b-4a" 0.0391006 -0.166667 mark 0
LayerCount: 2
Fore
SplineSet
0 -533 m 256
 -41 -533 -67 -498 -67 -455 c 256
 -67 -407 -37 -376 0 -376 c 256
 41 -376 67 -411 67 -455 c 256
 67 -502 37 -533 0 -533 c 256
0 -289 m 256
 -41 -289 -67 -254 -67 -210 c 256
 -67 -163 -37 -132 0 -132 c 256
 41 -132 67 -167 67 -210 c 256
 67 -258 37 -289 0 -289 c 256
EndSplineSet
Validated: 1
MultipleSubs2: "AddHairspaceAfterMark subtable" sheva hairspace
MultipleSubs2: "AddThinspaceAfterMark subtable" sheva thinspace
Substitution2: "ShevaAndQamatsForFinalkaf subtable" sheva_for_finalkaf
Position2: "'position' Move Vowel to left-1" dx=-30 dy=0 dh=0 dv=0
EndChar

StartChar: hatafsegol
Encoding: 132 1457 74
Width: 0
GlyphClass: 4
Flags: W
HStem: -533 157<-172.097 -50.6297 164.118 285.585> -289 157<-285.585 -164.118 -59.4293 61.7114 164.63 285.585>
VStem: -292 134<-284.696 -136.293> -178 134<-528.707 -380.752> -65 133<-284.248 -136.742> 158 134<-528.707 -380.304 -284.696 -136.293>
AnchorPoint: "m2m-6e" 372 0 basemark 0
AnchorPoint: "m2b-v2r" -250 0 mark 0
AnchorPoint: "HbWM" -292 0 mark 0
AnchorPoint: "HbNM" -292 0 mark 0
AnchorPoint: "m2m-5" 492 -1 basemark 0
AnchorPoint: "m2m-2" 292 0 mark 0
AnchorPoint: "m2m-1" -370 0 basemark 0
AnchorPoint: "m2b-4c" -11.5 0 mark 0
LayerCount: 2
Fore
SplineSet
226 -533 m 256xc4
 185 -533 158 -498 158 -455 c 256
 158 -407 188 -376 226 -376 c 256
 264 -376 292 -411 292 -455 c 256
 292 -502 263 -533 226 -533 c 256xc4
226 -289 m 256
 185 -289 158 -254 158 -210 c 256
 158 -163 188 -132 226 -132 c 256
 264 -132 292 -167 292 -210 c 256
 292 -258 263 -289 226 -289 c 256
0 -132 m 256
 40 -132 68 -167 68 -210 c 256
 68 -258 37 -289 0 -289 c 256
 -41 -289 -65 -254 -65 -210 c 256xcc
 -65 -163 -37 -132 0 -132 c 256
-112 -376 m 256
 -72 -376 -44 -411 -44 -455 c 256
 -44 -502 -74 -533 -112 -533 c 256
 -152 -533 -178 -498 -178 -455 c 256xd4
 -178 -407 -149 -376 -112 -376 c 256
-226 -132 m 256
 -185 -132 -158 -167 -158 -210 c 256
 -158 -258 -188 -289 -226 -289 c 256
 -264 -289 -292 -254 -292 -210 c 256xe4
 -292 -163 -263 -132 -226 -132 c 256
EndSplineSet
Validated: 1
MultipleSubs2: "AddHairspaceAfterMark subtable" hatafsegol hairspace
MultipleSubs2: "AddThinspaceAfterMark subtable" hatafsegol thinspace
Position2: "'position' Move Vowel to left-1" dx=-70 dy=0 dh=0 dv=0
EndChar

StartChar: hatafpatah
Encoding: 133 1458 75
Width: 0
GlyphClass: 4
Flags: W
HStem: -534 157<165.903 287.075> -290 157<165.903 287.075> -256 112<-291.959 67.9604>
VStem: 160 133<-529.707 -381.114 -285.707 -137.114>
AnchorPoint: "m2m-6e" 372 0 basemark 0
AnchorPoint: "m2b-v2r" -250 0 mark 0
AnchorPoint: "HbWM" -292 0 mark 0
AnchorPoint: "HbNM" -292 0 mark 0
AnchorPoint: "m2m-5" 492 0 basemark 0
AnchorPoint: "m2m-2" 292 0 mark 0
AnchorPoint: "m2m-1" -370 0 basemark 0
AnchorPoint: "m2b-4c" -1.31055 1.2998 mark 0
LayerCount: 2
Fore
SplineSet
-244 -256 m 2xb0
 -292 -256 -292 -256 -292 -198 c 0
 -292 -146 -292 -144 -242 -144 c 2
 16 -144 l 2
 66 -144 68 -146 68 -198 c 0
 68 -256 68 -256 20 -256 c 2
 -244 -256 l 2xb0
226 -534 m 256
 186 -534 160 -500 160 -456 c 256
 160 -409 189 -377 226 -377 c 256
 267 -377 293 -412 293 -456 c 256
 293 -503 263 -534 226 -534 c 256
226 -290 m 256xd0
 186 -290 160 -255 160 -212 c 256
 160 -164 189 -133 226 -133 c 256
 267 -133 293 -168 293 -212 c 256
 293 -259 263 -290 226 -290 c 256xd0
EndSplineSet
Validated: 1
MultipleSubs2: "AddHairspaceAfterMark subtable" hatafpatah hairspace
MultipleSubs2: "AddThinspaceAfterMark subtable" hatafpatah thinspace
Position2: "'position' Move Vowel to left-1" dx=-70 dy=0 dh=0 dv=0
EndChar

StartChar: hatafqamats
Encoding: 134 1459 76
Width: 0
GlyphClass: 4
Flags: W
HStem: -522 157<164.289 286.393> -278 157<164.63 286.393> -253 112<-289.959 -137 -83 69.9588>
VStem: -137 54<-409 -253> 158 135<-517.37 -369.752 -273.258 -125.304>
AnchorPoint: "m2m-6e" 372 0 basemark 0
AnchorPoint: "m2b-v2r" -250 0 mark 0
AnchorPoint: "HbWM" -292 0 mark 0
AnchorPoint: "HbNM" -292 0 mark 0
AnchorPoint: "m2m-5" 492 0 basemark 0
AnchorPoint: "m2m-2" 292 0 mark 0
AnchorPoint: "m2m-1" -370 0 basemark 0
AnchorPoint: "m2b-4c" -0.5 0 mark 0
LayerCount: 2
Fore
SplineSet
-25 -460 m 17xb8
 -33 -477 -49 -508 -83 -525 c 1
 -96 -525 -110 -526 -110 -526 c 1
 -110 -526 -127 -525 -137 -525 c 1
 -169 -508 -183 -484 -195 -460 c 9
 -153 -392 l 17
 -142 -379 -137 -337 -137 -327 c 2
 -137 -253 l 1
 -242 -253 l 2
 -290 -253 -290 -253 -290 -194 c 0
 -290 -142 -289 -141 -239 -141 c 2
 19 -141 l 2
 69 -141 70 -142 70 -194 c 0
 70 -253 70 -253 22 -253 c 2
 -83 -253 l 1
 -83 -327 l 2
 -83 -337 -78 -379 -67 -392 c 9
 -25 -460 l 17xb8
226 -522 m 256
 186 -522 158 -488 158 -444 c 256
 158 -397 188 -365 226 -365 c 256
 266 -365 293 -400 293 -444 c 256
 293 -491 263 -522 226 -522 c 256
226 -278 m 256xd8
 186 -278 158 -243 158 -200 c 256
 158 -152 188 -121 226 -121 c 256
 266 -121 293 -156 293 -200 c 256
 293 -247 263 -278 226 -278 c 256xd8
EndSplineSet
Validated: 1
MultipleSubs2: "AddHairspaceAfterMark subtable" hatafqamats hairspace
MultipleSubs2: "AddThinspaceAfterMark subtable" hatafqamats thinspace
Position2: "'position' Move Vowel to left-1" dx=-70 dy=0 dh=0 dv=0
EndChar

StartChar: hiriq
Encoding: 135 1460 77
Width: 0
GlyphClass: 4
Flags: W
HStem: -288 157<-62.0526 61.7114>
VStem: -68 136<-283.084 -135.752>
AnchorPoint: "m2b-v2left" 30 0 mark 0
AnchorPoint: "m2b-vback" 0 0 mark 0
AnchorPoint: "m2b-v2r" -210 0 mark 0
AnchorPoint: "m2m-6e" 147 0 basemark 0
AnchorPoint: "m2m-1" -147 0 basemark 0
AnchorPoint: "m2m-3" 67 0 mark 0
AnchorPoint: "m2m-2" 67 0 mark 0
AnchorPoint: "m2m-5" 290 0 basemark 0
AnchorPoint: "VbWM" -67 0 mark 0
AnchorPoint: "VbNM" -67 0 mark 0
AnchorPoint: "m2b-4a" -0.00585938 -0.130859 mark 0
LayerCount: 2
Fore
SplineSet
-0 -288 m 256
 -42 -288 -68 -253 -68 -210 c 256
 -68 -162 -38 -131 -0 -131 c 256
 40 -131 68 -166 68 -210 c 256
 68 -257 36 -288 -0 -288 c 256
EndSplineSet
Validated: 1
MultipleSubs2: "AddHairspaceAfterMark subtable" hiriq hairspace
MultipleSubs2: "AddThinspaceAfterMark subtable" hiriq thinspace
Substitution2: "HiriqForFinalmem subtable" hiriqmem
Ligature2: "L2ccmpCgjZwjZwnjComatibility subtable" zerojoin hiriq
Ligature2: "L2ccmpCgjZwjZwnjComatibility subtable" cgj hiriq
LCarets2: 1 0 
Position2: "'position' Move Vowel to left-1" dx=-30 dy=0 dh=0 dv=0
EndChar

StartChar: tsere
Encoding: 136 1461 78
Width: 0
GlyphClass: 4
Flags: W
HStem: -288 157<-174.075 -52.0958 52.6075 174.075>
VStem: -180 134<-283.696 -135.293> 46 134<-283.696 -135.293>
AnchorPoint: "m2b-v2left" 70 0 mark 0
AnchorPoint: "m2b-vback" 0 0 mark 0
AnchorPoint: "m2b-v2r" -230 0 mark 0
AnchorPoint: "m2m-6e" 260 0 basemark 0
AnchorPoint: "VbWM" -180 0 mark 0
AnchorPoint: "VbNM" -180 0 mark 0
AnchorPoint: "m2m-5" 380 0 basemark 0
AnchorPoint: "m2m-2" 180 0 mark 0
AnchorPoint: "m2m-1" -260 0 basemark 0
AnchorPoint: "m2b-4b" -0.767578 0 mark 0
LayerCount: 2
Fore
SplineSet
113 -131 m 256
 154 -131 180 -166 180 -209 c 256
 180 -257 151 -288 113 -288 c 256
 73 -288 46 -253 46 -209 c 256
 46 -162 76 -131 113 -131 c 256
-113 -131 m 256
 -73 -131 -46 -166 -46 -209 c 256
 -46 -257 -76 -288 -113 -288 c 256
 -154 -288 -180 -253 -180 -209 c 256
 -180 -162 -151 -131 -113 -131 c 256
EndSplineSet
Validated: 1
MultipleSubs2: "AddHairspaceAfterMark subtable" tsere hairspace
MultipleSubs2: "AddThinspaceAfterMark subtable" tsere thinspace
Position2: "'position' Move Vowel to left-1" dx=-70 dy=0 dh=0 dv=0
EndChar

StartChar: segol
Encoding: 137 1462 79
Width: 0
GlyphClass: 4
Flags: W
HStem: -522 157<-61.0748 61.0748> -288 157<-174.075 -52.0958 52.6075 174.075>
VStem: -180 134<-283.696 -135.293> -67 134<-517.707 -369.304> 46 134<-283.696 -135.293>
AnchorPoint: "m2b-v2left" 70 0 mark 0
AnchorPoint: "m2b-vback" 0 0 mark 0
AnchorPoint: "m2b-v2r" -230 0 mark 0
AnchorPoint: "m2m-6e" 260 0 basemark 0
AnchorPoint: "VbWM" -180 0 mark 0
AnchorPoint: "VbNM" -180 0 mark 0
AnchorPoint: "m2m-5" 380 0 basemark 0
AnchorPoint: "m2m-2" 180 0 mark 0
AnchorPoint: "m2m-1" -260 0 basemark 0
AnchorPoint: "m2b-4b" -0.21582 1.2998 mark 0
LayerCount: 2
Fore
SplineSet
113 -131 m 256xc8
 154 -131 180 -166 180 -209 c 256
 180 -257 151 -288 113 -288 c 256
 73 -288 46 -253 46 -209 c 256
 46 -162 76 -131 113 -131 c 256xc8
0 -365 m 256
 41 -365 67 -400 67 -444 c 256
 67 -491 37 -522 0 -522 c 256
 -41 -522 -67 -487 -67 -444 c 256xd0
 -67 -396 -37 -365 0 -365 c 256
-113 -131 m 256
 -73 -131 -46 -166 -46 -209 c 256
 -46 -257 -76 -288 -113 -288 c 256
 -154 -288 -180 -253 -180 -209 c 256xe0
 -180 -162 -151 -131 -113 -131 c 256
EndSplineSet
Validated: 1
MultipleSubs2: "AddHairspaceAfterMark subtable" segol hairspace
MultipleSubs2: "AddThinspaceAfterMark subtable" segol thinspace
Position2: "'position' Move Vowel to left-1" dx=-70 dy=0 dh=0 dv=0
EndChar

StartChar: patah
Encoding: 138 1463 80
Width: 0
GlyphClass: 4
Flags: W
HStem: -242 112<-179.959 179.959>
VStem: -180 360<-241.998 -130.012>
AnchorPoint: "m2b-v2left" 70 0 mark 0
AnchorPoint: "m2b-vback" 0 0 mark 0
AnchorPoint: "m2b-v2r" -230 0 mark 0
AnchorPoint: "m2m-6e" 260 0 basemark 0
AnchorPoint: "VbWM" -180 0 mark 0
AnchorPoint: "VbNM" -180 0 mark 0
AnchorPoint: "m2b-pg" 0 0 mark 0
AnchorPoint: "m2m-5" 380 0 basemark 0
AnchorPoint: "m2m-2" 180 0 mark 0
AnchorPoint: "m2m-3" 167 0 mark 0
AnchorPoint: "m2m-1" -260 0 basemark 0
AnchorPoint: "m2b-4b" -0.383789 0 mark 0
LayerCount: 2
Fore
SplineSet
-132 -242 m 2
 -180 -242 -180 -242 -180 -183 c 0
 -180 -131 -179 -130 -129 -130 c 2
 129 -130 l 2
 179 -130 180 -131 180 -183 c 0
 180 -242 180 -242 132 -242 c 2
 -132 -242 l 2
EndSplineSet
Validated: 1
MultipleSubs2: "AddHairspaceAfterMark subtable" patah hairspace
MultipleSubs2: "AddThinspaceAfterMark subtable" patah thinspace
Position2: "'position' Move Vowel to left-1" dx=-70 dy=0 dh=0 dv=0
EndChar

StartChar: qamats
Encoding: 139 1464 81
Width: 0
GlyphClass: 4
Flags: W
HStem: -245 112<-179.959 -27 27 179.959>
VStem: -27 54<-401 -245>
AnchorPoint: "m2b-v2left" 70 0 mark 0
AnchorPoint: "m2b-vback" 0 0 mark 0
AnchorPoint: "m2b-v2r" -230 0 mark 0
AnchorPoint: "m2m-6e" 260 0 basemark 0
AnchorPoint: "VbWM" -180 0 mark 0
AnchorPoint: "VbNM" -180 0 mark 0
AnchorPoint: "m2m-5" 380 0 basemark 0
AnchorPoint: "m2m-2" 180 0 mark 0
AnchorPoint: "m2m-1" -260 1 basemark 0
AnchorPoint: "m2b-4b" -0.383789 0 mark 0
LayerCount: 2
Fore
SplineSet
85 -452 m 17
 77 -469 61 -500 27 -517 c 1
 14 -517 -0 -518 -0 -518 c 1
 -0 -518 -17 -517 -27 -517 c 1
 -59 -500 -73 -476 -85 -452 c 9
 -43 -384 l 17
 -32 -371 -27 -329 -27 -319 c 2
 -27 -245 l 1
 -132 -245 l 2
 -180 -245 -180 -245 -180 -186 c 0
 -180 -134 -179 -133 -129 -133 c 2
 129 -133 l 2
 179 -133 180 -134 180 -186 c 0
 180 -245 180 -245 132 -245 c 2
 27 -245 l 1
 27 -319 l 2
 27 -329 32 -371 43 -384 c 9
 85 -452 l 17
EndSplineSet
Validated: 1
MultipleSubs2: "AddHairspaceAfterMark subtable" qamats
MultipleSubs2: "AddThinspaceAfterMark subtable" qamats
Substitution2: "ShevaAndQamatsForFinalkaf subtable" qamats_for_finalkaf
Position2: "'position' Move Vowel to left-1" dx=-70 dy=0 dh=0 dv=0
EndChar

StartChar: holam
Encoding: 140 1465 82
Width: 0
GlyphClass: 4
Flags: W
HStem: 1278 157<-61.0748 61.0748>
VStem: -67 134<1282.3 1430.71>
AnchorPoint: "m2m-8" -147 0 basemark 0
AnchorPoint: "m2b-7d" 0 0 mark 0
AnchorPoint: "m2b-7c" 0 0 mark 0
AnchorPoint: "m2b-7b" 0 0 mark 0
AnchorPoint: "m2b-7a" 0 0 mark 0
LayerCount: 2
Fore
SplineSet
0 1278 m 256
 -41 1278 -67 1313 -67 1357 c 256
 -67 1404 -37 1435 0 1435 c 256
 41 1435 67 1400 67 1357 c 256
 67 1309 37 1278 0 1278 c 256
EndSplineSet
Validated: 1
EndChar

StartChar: qubuts
Encoding: 142 1467 84
Width: 0
GlyphClass: 4
Flags: W
HStem: -536 152<92.0513 209.949> -408 152<-58.9487 59.2739> -280 153<-209.949 -92.0513>
VStem: -216 130<-275.911 -130.421> -65 130<-404.207 -259.415> 86 130<-532.511 -387.507>
CounterMasks: 1 1c
AnchorPoint: "m2b-v2left" 70 0 mark 0
AnchorPoint: "m2b-vback" 0 0 mark 0
AnchorPoint: "m2b-v2r" -250 0 mark 0
AnchorPoint: "m2m-6e" 296 0 basemark 0
AnchorPoint: "VbWM" -216 0 mark 0
AnchorPoint: "VbNM" -215.2 -0.599976 mark 0
AnchorPoint: "m2m-5" 416 0 basemark 0
AnchorPoint: "m2m-2" 216 0 mark 0
AnchorPoint: "m2m-1" -296 0 basemark 0
AnchorPoint: "m2b-4b" -2.12891 1 mark 0
LayerCount: 2
Fore
SplineSet
-151 -280 m 256x3c
 -189 -280 -216 -245 -216 -204 c 256
 -216 -161 -189 -127 -151 -127 c 256
 -113 -127 -86 -161 -86 -204 c 256
 -86 -248 -116 -280 -151 -280 c 256x3c
151 -536 m 256x9c
 113 -536 86 -502 86 -461 c 256
 86 -419 113 -384 151 -384 c 256
 189 -384 216 -419 216 -461 c 256
 216 -507 187 -536 151 -536 c 256x9c
0 -408 m 256x5c
 -38 -408 -65 -373 -65 -332 c 256
 -65 -290 -38 -256 0 -256 c 256
 38 -256 65 -290 65 -332 c 256
 65 -376 36 -408 0 -408 c 256x5c
EndSplineSet
Validated: 1
MultipleSubs2: "AddHairspaceAfterMark subtable" qubuts hairspace
MultipleSubs2: "AddThinspaceAfterMark subtable" qubuts thinspace
Position2: "'position' Move Vowel to left-1" dx=-70 dy=0 dh=0 dv=0
EndChar

StartChar: dagesh
Encoding: 143 1468 85
Width: 0
GlyphClass: 4
Flags: W
HStem: 470 158<-60.3925 60.3925>
VStem: -67 134<474.426 623.707>
AnchorPoint: "m2b-2" -0.25 0 mark 0
LayerCount: 2
Fore
SplineSet
0 470 m 256
 -41 470 -67 506 -67 550 c 256
 -67 597 -37 628 0 628 c 256
 41 628 67 593 67 550 c 256
 67 502 37 470 0 470 c 256
EndSplineSet
Validated: 1
EndChar

StartChar: meteg
Encoding: 144 1469 86
Width: 0
GlyphClass: 4
Flags: W
HStem: -518 374<-44.9891 44.9958>
VStem: -45 90<-517.999 -144.001>
AnchorPoint: "m2b-v2left" 30 0 mark 0
AnchorPoint: "m2b-v2r" -210 0 mark 0
AnchorPoint: "m2m-6c" 790 0 basemark 0
AnchorPoint: "m2m-6b" 536 0 basemark 0
AnchorPoint: "m2m-6a" 323 0 basemark 0
AnchorPoint: "m2m-2" -120 0 basemark 0
AnchorPoint: "m2m-4" -120 0 basemark 0
AnchorPoint: "m2m-4" 39 0 mark 0
AnchorPoint: "m2m-1" 42 0 mark 0
AnchorPoint: "m2b-4a" 0.00390625 0 mark 0
LayerCount: 2
Fore
SplineSet
45 -470 m 2
 45 -472 45 -474 45 -476 c 0
 45 -518 44 -518 0 -518 c 0
 -44 -518 -45 -517 -45 -467 c 2
 -45 -195 l 2
 -45 -145 -44 -144 0 -144 c 0
 44 -144 45 -144 45 -192 c 2
 45 -470 l 2
EndSplineSet
Validated: 1
MultipleSubs2: "AddHairspaceAfterMark subtable" meteg hairspace
MultipleSubs2: "AddThinspaceAfterMark subtable" meteg thinspace
Ligature2: "L2ccmpCgjZwjZwnjComatibility subtable" zerononjoin meteg
Ligature2: "L2ccmpCgjZwjZwnjComatibility subtable" meteg cgj
Ligature2: "L2ccmpCgjZwjZwnjComatibility subtable" cgj meteg
LCarets2: 1 0 
Position2: "'position' Move Low Accent to Right-1" dx=200 dy=0 dh=0 dv=0
Position2: "'position' Meteg before Narrow Vowel-1" dx=214 dy=0 dh=0 dv=0
Position2: "'position' Meteg before Wide Vowel-1" dx=360 dy=0 dh=0 dv=0
Position2: "'position' Meteg before Hataf-1" dx=494 dy=0 dh=0 dv=0
Position2: "'position' Move Vowel to left-1" dx=-30 dy=0 dh=0 dv=0
EndChar

StartChar: makaf
Encoding: 145 1470 87
Width: 942
GlyphClass: 2
Flags: W
HStem: 901 213<184.065 772.662>
AnchorPoint: "m2b-8c" 628 0 basechar 0
AnchorPoint: "m2b-8b" 131 0 basechar 0
AnchorPoint: "m2b-8a" 510 0 basechar 0
LayerCount: 2
Fore
SplineSet
153 907 m 0
 140 913 134 920 134 933 c 0
 134 957 135 969 181 1065 c 0
 203 1106 220 1114 272 1114 c 2
 747 1114 l 2
 765 1114 763 1114 770 1114 c 0
 800 1114 828 1112 828 1082 c 0
 828 1064 816 1045 806 1023 c 2
 776 953 l 1
 758 910 744 901 692 901 c 2
 199 901 l 2
 182 901 166 901 153 907 c 0
EndSplineSet
Validated: 1
EndChar

StartChar: rafe
Encoding: 146 1471 88
Width: 0
GlyphClass: 4
Flags: W
HStem: 1276 112<-215.952 215.952>
VStem: -216 432<1276.05 1387.93>
AnchorPoint: "m2m-rafe" 0 200 basemark 0
AnchorPoint: "m2b-3" 0 0 mark 0
LayerCount: 2
Fore
SplineSet
-158 1276 m 2
 -216 1276 -216 1276 -216 1336 c 0
 -216 1388 -215 1388 -155 1388 c 2
 155 1388 l 2
 215 1388 216 1388 216 1336 c 0
 216 1276 216 1276 158 1276 c 2
 -158 1276 l 2
EndSplineSet
Validated: 1
EndChar

StartChar: paseq
Encoding: 147 1472 89
Width: 471
VWidth: 1961
GlyphClass: 2
Flags: W
HStem: 0 21G<195 275>
VStem: 152 168<0.968315 1134.09>
LayerCount: 2
Fore
SplineSet
320 87 m 2
 320 80 320 73 320 67 c 0
 320 0 316 0 234 0 c 0
 156 0 152 2 152 92 c 2
 152 1043 l 2
 152 1133 152 1135 230 1135 c 0
 320 1135 320 1135 320 1048 c 2
 320 87 l 2
EndSplineSet
Validated: 1
EndChar

StartChar: shindot
Encoding: 148 1473 90
Width: 0
GlyphClass: 4
Flags: W
HStem: 1140 157<-61.3703 61.3871>
VStem: -68 136<1144.93 1292.71>
AnchorPoint: "m2b-0" -398.5 0 mark 0
LayerCount: 2
Fore
SplineSet
0 1140 m 256
 -40 1140 -68 1175 -68 1219 c 256
 -68 1266 -38 1297 0 1297 c 256
 42 1297 68 1262 68 1219 c 256
 68 1171 36 1140 0 1140 c 256
EndSplineSet
Validated: 1
EndChar

StartChar: sofpasuq
Encoding: 150 1475 92
Width: 574
VWidth: 1949
GlyphClass: 2
Flags: W
VStem: 128 320<78.5215 226.475 814.141 958.274>
LayerCount: 2
Fore
SplineSet
183 799 m 1
 144 842 128 863 128 886 c 0
 128 908 144 933 182 980 c 0
 230 1041 254 1071 281 1071 c 0
 306 1071 335 1040 389 977 c 1
 428 929 446 908 446 886 c 0
 446 864 428 840 390 799 c 1
 342 737 317 706 291 706 c 0
 266 706 237 737 183 799 c 1
185 64 m 1
 146 107 128 128 128 151 c 0
 128 174 146 198 184 245 c 0
 232 306 256 336 283 336 c 0
 308 336 337 305 391 242 c 1
 430 194 448 171 448 149 c 0
 448 127 430 105 392 64 c 1
 344 2 319 -29 293 -29 c 0
 268 -29 239 2 185 64 c 1
EndSplineSet
Validated: 1
EndChar

StartChar: upperdot
Encoding: 151 1476 93
Width: 0
GlyphClass: 4
Flags: W
HStem: 1444 281<-46.7706 46.7706>
VStem: -106 212<1507.28 1661.45>
AnchorPoint: "m2b-1" 0 -194.02 mark 0
LayerCount: 2
Fore
SplineSet
-68 1516 m 1
 -94 1549 -106 1565 -106 1583 c 0
 -106 1600 -94 1619 -70 1655 c 0
 -38 1702 -22 1725 -4 1725 c 0
 14 1725 32 1701 68 1653 c 1
 94 1616 106 1598 106 1581 c 0
 106 1564 94 1547 70 1516 c 1
 38 1468 20 1444 4 1444 c 0
 -14 1444 -32 1468 -68 1516 c 1
EndSplineSet
Validated: 1
EndChar

StartChar: lowerdot
Encoding: 152 1477 94
Width: 0
GlyphClass: 4
Flags: W
HStem: -549 281<-46.7706 46.7706>
VStem: -106 212<-485.719 -331.549>
AnchorPoint: "m2b-1" 0 272.6 mark 0
LayerCount: 2
Fore
SplineSet
-68 -477 m 1
 -94 -444 -106 -428 -106 -410 c 0
 -106 -393 -94 -374 -70 -338 c 0
 -38 -291 -22 -268 -4 -268 c 0
 14 -268 32 -292 68 -340 c 1
 94 -377 106 -395 106 -412 c 0
 106 -429 94 -446 70 -477 c 1
 38 -525 20 -549 4 -549 c 0
 -14 -549 -32 -525 -68 -477 c 1
EndSplineSet
Validated: 1
EndChar

StartChar: nunhapukha
Encoding: 153 1478 95
Width: 810
GlyphClass: 2
Flags: W
VStem: 226 103<231.382 664.913> 229 115<313.087 825.297>
AnchorPoint: "m2b-8c" 492 0 basechar 0
AnchorPoint: "m2b-8b" 166 0 basechar 0
AnchorPoint: "m2b-8a" 336 0 basechar 0
AnchorPoint: "m2b-1" 400 0 basechar 0
LayerCount: 2
Fore
SplineSet
387 1107 m 1x40
 480 1140 529 1210 540 1210 c 0
 552 1210 571 1137 575 1067 c 2
 582 957 l 1
 582 934 533 907 477 894 c 1
 447 886 418 872 391 857 c 1
 343 820 348 762 344 682 c 2x40
 329 296 l 1
 329 294 l 2
 329 235 357 232 400 228 c 2
 660 204 l 18
 730 197 730 194 730 132 c 2
 730 30 l 2
 730 -20 730 -32 702 -32 c 0
 693 -32 680 -31 665 -29 c 10
 323 3 l 2
 252 10 230 41 226 119 c 1x80
 229 772 l 2
 229 823 197 827 197 827 c 25
 142 816 l 17
 141 816 141 816 140 816 c 0
 125 816 120 857 120 912 c 9
 116 987 l 17
 116 1023 144 1039 187 1057 c 9
 387 1107 l 1x40
EndSplineSet
Validated: 1
EndChar

StartChar: qamatsqatan
Encoding: 154 1479 96
Width: 0
GlyphClass: 4
Flags: W
HStem: -245 112<-152.963 -23 23 152.963>
VStem: -153 306<-245 -133> -23 46<-430 -245>
AnchorPoint: "m2b-v2left" 70 0 mark 0
AnchorPoint: "m2b-vback" 0 0 mark 0
AnchorPoint: "m2b-v2r" -230 0 mark 0
AnchorPoint: "m2m-6e" 260 0 basemark 0
AnchorPoint: "VbWM" -180 0 mark 0
AnchorPoint: "VbNM" -180 0 mark 0
AnchorPoint: "m2m-5" 380 -0.5 basemark 0
AnchorPoint: "m2m-2" 180 -0.5 mark 0
AnchorPoint: "m2m-1" -260 -0.5 basemark 0
AnchorPoint: "m2b-4b" -0.0664062 -0.5 mark 0
LayerCount: 2
Fore
SplineSet
72 -481 m 17xa0
 65 -498 52 -529 23 -546 c 1
 12 -546 0 -547 0 -547 c 1
 0 -547 -14 -546 -23 -546 c 1
 -50 -529 -62 -505 -72 -481 c 9
 -37 -413 l 17
 -27 -400 -23 -329 -23 -319 c 2
 -23 -245 l 1xa0
 -112 -245 l 2
 -153 -245 -153 -245 -153 -186 c 0
 -153 -134 -152 -133 -110 -133 c 2
 110 -133 l 2
 152 -133 153 -134 153 -186 c 0xc0
 153 -245 153 -245 112 -245 c 2
 23 -245 l 1
 23 -319 l 2
 23 -329 27 -400 37 -413 c 9
 72 -481 l 17xa0
EndSplineSet
Validated: 1
MultipleSubs2: "AddHairspaceAfterMark subtable" qamatsqatan hairspace
MultipleSubs2: "AddThinspaceAfterMark subtable" qamatsqatan thinspace
Position2: "'position' Move Vowel to left-1" dx=-70 dy=0 dh=0 dv=0
EndChar

StartChar: alef
Encoding: 155 1488 97
Width: 1229
GlyphClass: 2
Flags: W
HStem: 0 228<276.293 486.598>
VStem: 178 98<228.708 614.6> 198 88<289.4 695.98>
AnchorPoint: "m2b-3" 580 0 basechar 0
AnchorPoint: "m2b-v2r" 696 0 basechar 0
AnchorPoint: "HbNM" 440 0 basechar 0
AnchorPoint: "VbWM" 600 0 basechar 0
AnchorPoint: "VbNM" 580 0 basechar 0
AnchorPoint: "m2b-10" -330 0 basechar 0
AnchorPoint: "HbWM" 565 0 basechar 0
AnchorPoint: "m2b-7c" -220 0 basechar 0
AnchorPoint: "m2b-7b" 183 0 basechar 0
AnchorPoint: "m2b-9" 720 0 basechar 0
AnchorPoint: "m2b-5b" 590 0 basechar 0
AnchorPoint: "m2b-5a" 696 0 basechar 0
AnchorPoint: "m2b-8c" 900 0 basechar 0
AnchorPoint: "m2b-8b" 123 0 basechar 0
AnchorPoint: "m2b-8a" 570 0 basechar 0
AnchorPoint: "m2b-7a" 163 0 basechar 0
AnchorPoint: "m2b-4d" 650 0 basechar 0
AnchorPoint: "m2b-4c" 650 0 basechar 0
AnchorPoint: "m2b-4b" 696 0 basechar 0
AnchorPoint: "m2b-4a" 696 0 basechar 0
AnchorPoint: "m2b-1" 570 0 basechar 0
LayerCount: 2
Fore
SplineSet
276 295 m 2xc0
 276 291 276 287 276 283 c 0
 276 228 291 228 360 228 c 10
 424 228 l 2
 477 228 487 221 487 176 c 2
 487 72 l 2
 487 10 487 0 417 0 c 10
 242 0 l 18
 179 0 180 12 178 77 c 9xc0
 198 827 l 1
 174 843 135 862 129 954 c 1
 129 1150 l 2
 129 1178 158 1178 163 1174 c 0
 176 1163 320 1027 368 980 c 2
 653 708 l 9
 899 1133 l 18
 910 1151 922 1168 939 1168 c 0
 947 1168 957 1164 968 1153 c 10
 1059 1066 l 2
 1105 1023 1110 1002 1111 976 c 0
 1111 967 1112 955 1111 941 c 1
 1111 874 l 1
 1106 814 1087 782 1058 782 c 0
 1045 782 1030 788 1011 800 c 2
 946 844 l 1
 922 863 906 873 892 873 c 0
 877 873 863 862 845 841 c 1
 838 839 753 709 753 709 c 1
 740 687 733 671 733 656 c 0
 733 634 747 617 774 593 c 1
 1031 347 l 2
 1078 303 1084 282 1084 256 c 0
 1084 246 1083 235 1083 222 c 2
 1083 25 l 2
 1083 -3 1053 -4 1048 0 c 0
 1036 11 911 134 862 181 c 2
 384 646 l 2
 351 679 330 696 315 696 c 0
 297 696 290 669 286 612 c 1xa0
 276 295 l 2xc0
EndSplineSet
Validated: 1
MultipleSubs2: "Addhairspacebeforeletter subtable" hairspace alef
MultipleSubs2: "Addthinspacebeforeletter subtable" thinspace alef
MultipleSubs2: "AddHairspaceAfterMark subtable" alef hairspace
MultipleSubs2: "AddThinspaceAfterMark subtable" alef thinspace
Substitution2: "jaltWideLetterAlternativesinHeb subtable" alef.wide
EndChar

StartChar: bet
Encoding: 156 1489 98
Width: 1056
GlyphClass: 2
Flags: W
VStem: 735 131<597.764 850.102> 773 90<269.641 477.236>
AnchorPoint: "m2b-v2r" 497 0 basechar 0
AnchorPoint: "VbWM" 580 0 basechar 0
AnchorPoint: "VbNM" 500 0 basechar 0
AnchorPoint: "m2b-10" -330 0 basechar 0
AnchorPoint: "m2b-7c" -220 0 basechar 0
AnchorPoint: "m2b-7b" 207 0 basechar 0
AnchorPoint: "m2b-3" 494.911 0 basechar 0
AnchorPoint: "m2b-9" 642 0 basechar 0
AnchorPoint: "m2b-5b" 450 0 basechar 0
AnchorPoint: "m2b-5a" 496.824 0 basechar 0
AnchorPoint: "m2b-8c" 761.824 0 basechar 0
AnchorPoint: "m2b-8b" 123 0 basechar 0
AnchorPoint: "m2b-8a" 491.824 0 basechar 0
AnchorPoint: "m2b-7a" 187 0 basechar 0
AnchorPoint: "m2b-4d" 496.824 0 basechar 0
AnchorPoint: "m2b-4c" 496.824 0 basechar 0
AnchorPoint: "m2b-4b" 497 0 basechar 0
AnchorPoint: "m2b-4a" 496.824 0 basechar 0
AnchorPoint: "m2b-1" 497 0 basechar 0
LayerCount: 2
Fore
SplineSet
261 904 m 2x80
 172 914 155 911 155 952 c 2
 155 1080 l 2
 155 1150 175 1188 187 1188 c 0
 197 1188 225 1138 323 1128 c 2
 744 1082 l 17
 863 1073 864 1066 866 922 c 1x80
 863 312 l 2
 863 277 867 269 881 269 c 0
 893 269 915 276 950 276 c 0
 978 276 978 265 978 215 c 2
 978 111 l 2
 978 49 978 46 908 39 c 10
 146 -36 l 18
 131 -38 118 -39 109 -39 c 0
 81 -39 81 -27 81 23 c 2
 81 125 l 2
 81 187 81 189 151 197 c 1
 664 247 l 2
 741 255 773 257 773 288 c 2
 773 292 l 1x40
 735 783 l 1
 735 787 l 2
 735 828 721 853 628 863 c 10
 261 904 l 2x80
EndSplineSet
Validated: 1
MultipleSubs2: "Addhairspacebeforeletter subtable" hairspace bet
MultipleSubs2: "Addthinspacebeforeletter subtable" thinspace bet
MultipleSubs2: "AddHairspaceAfterMark subtable" bet hairspace
MultipleSubs2: "AddThinspaceAfterMark subtable" bet thinspace
EndChar

StartChar: gimel
Encoding: 157 1490 99
Width: 737
GlyphClass: 2
Flags: W
HStem: -12 21G<538.5 550>
VStem: 452 71<660.543 822.518>
AnchorPoint: "m2b-v2r" 359 0 basechar 0
AnchorPoint: "VbWM" 428 0 basechar 0
AnchorPoint: "VbNM" 400 0 basechar 0
AnchorPoint: "m2b-10" -330 0 basechar 0
AnchorPoint: "m2b-7d" 5 0 basechar 0
AnchorPoint: "m2b-7c" -220 0 basechar 0
AnchorPoint: "m2b-7b" 245 0 basechar 0
AnchorPoint: "m2b-3" 400 0 basechar 0
AnchorPoint: "m2b-9" 550 0 basechar 0
AnchorPoint: "m2b-5b" 199.175 10 basechar 0
AnchorPoint: "m2b-5a" 359 0 basechar 0
AnchorPoint: "m2b-8c" 529.404 0 basechar 0
AnchorPoint: "m2b-8b" 119.175 0 basechar 0
AnchorPoint: "m2b-8a" 400 0 basechar 0
AnchorPoint: "m2b-7a" 225 0 basechar 0
AnchorPoint: "m2b-4d" 359.174 0 basechar 0
AnchorPoint: "m2b-4c" 359.174 0 basechar 0
AnchorPoint: "m2b-4b" 359 0 basechar 0
AnchorPoint: "m2b-4a" 359.174 0 basechar 0
AnchorPoint: "m2b-1" 390 0 basechar 0
LayerCount: 2
Fore
SplineSet
546 -12 m 0
 531 -12 507 99 488 206 c 1
 130 -47 l 2
 117 -56 103 -56 94 -56 c 0
 66 -56 65 -38 65 12 c 2
 65 114 l 2
 65 144 76 146 135 186 c 2
 459 408 l 1
 425 628 l 1
 422 639 421 649 421 658 c 0
 421 713 452 719 452 783 c 0
 452 813 436 848 402 863 c 0
 323 898 195 929 195 981 c 2
 195 1073 l 2
 195 1143 213 1191 225 1191 c 0
 235 1191 272 1148 365 1114 c 2
 512 1061 l 18
 533 1053 580 1027 580 996 c 1
 587 930 l 1
 587 920 587 900 586 895 c 0
 575 848 523 764 523 733 c 0
 523 732 523 730 523 729 c 1
 531 680 541 632 573 487 c 1
 593 500 626 520 632 520 c 0
 652 520 655 501 655 451 c 2
 655 392 l 2
 655 339 650 322 613 293 c 1
 639 172 l 1
 642 151 l 2
 644 139 645 129 645 121 c 0
 645 96 636 84 608 53 c 1
 576 13 554 -12 546 -12 c 0
EndSplineSet
Validated: 1
MultipleSubs2: "Addhairspacebeforeletter subtable" hairspace gimel
MultipleSubs2: "Addthinspacebeforeletter subtable" thinspace gimel
MultipleSubs2: "AddHairspaceAfterMark subtable" gimel hairspace
MultipleSubs2: "AddThinspaceAfterMark subtable" gimel thinspace
EndChar

StartChar: dalet
Encoding: 158 1491 100
Width: 1071
GlyphClass: 2
Flags: W
HStem: 903 226<168.303 744.529>
VStem: 751 139<29.3496 464.08> 751 106<561.919 897.974>
AnchorPoint: "m2b-v2left" 803 0 basechar 0
AnchorPoint: "m2b-10" -330 0 basechar 0
AnchorPoint: "m2b-7c" -220 0 basechar 0
AnchorPoint: "m2b-7b" 171 0 basechar 0
AnchorPoint: "m2b-3" 500 0 basechar 0
AnchorPoint: "m2b-9" 710 -10 basechar 0
AnchorPoint: "m2b-5b" 500 0 basechar 0
AnchorPoint: "m2b-5a" 803 0 basechar 0
AnchorPoint: "m2b-8c" 765 0 basechar 0
AnchorPoint: "m2b-8b" 96 0 basechar 0
AnchorPoint: "m2b-8a" 560.213 0 basechar 0
AnchorPoint: "m2b-7a" 151 0 basechar 0
AnchorPoint: "m2b-4d" 700 0 basechar 0
AnchorPoint: "m2b-4c" 669 0 basechar 0
AnchorPoint: "m2b-4b" 803 0 basechar 0
AnchorPoint: "m2b-4a" 803 0 basechar 0
AnchorPoint: "m2b-1" 503 0 basechar 0
LayerCount: 2
Fore
SplineSet
225 903 m 2xa0
 136 903 119 904 119 952 c 2
 119 1080 l 2
 119 1150 138 1188 151 1188 c 0
 160 1188 190 1129 288 1129 c 1
 791 1127 l 1
 889 1127 919 1186 928 1186 c 0
 941 1186 960 1150 960 1083 c 0
 960 1081 960 1080 960 1078 c 2
 959 996 l 2
 958 948 935 917 857 892 c 1
 857 886 l 1xa0
 890 140 l 1
 890 119 l 2
 890 70 885 62 843 26 c 1
 807 -9 785 -29 772 -29 c 0
 753 -29 752 16 751 129 c 9xc0
 751 766 l 17
 748 901 748 903 624 903 c 2
 225 903 l 2xa0
EndSplineSet
Validated: 1
MultipleSubs2: "Addhairspacebeforeletter subtable" hairspace dalet
MultipleSubs2: "Addthinspacebeforeletter subtable" thinspace dalet
MultipleSubs2: "AddHairspaceAfterMark subtable" dalet hairspace
MultipleSubs2: "AddThinspaceAfterMark subtable" dalet thinspace
Substitution2: "jaltWideLetterAlternativesinHeb subtable" dalet.wide
EndChar

StartChar: he
Encoding: 159 1492 101
Width: 1218
GlyphClass: 2
Flags: W
HStem: 902 285<143.697 229.835 1022.25 1093.7> 905 223<186.303 909.705>
VStem: 160 133<31.885 602.665> 916 139<31.3496 620.271> 916 106<455.007 900.878>
AnchorPoint: "m2b-v2r" 629 0 basechar 0
AnchorPoint: "HbWM" 500 0 basechar 0
AnchorPoint: "HbNM" 400 0 basechar 0
AnchorPoint: "VbWM" 600 0 basechar 0
AnchorPoint: "VbNM" 550 0 basechar 0
AnchorPoint: "m2b-10" -330 0 basechar 0
AnchorPoint: "m2b-7c" -220 0 basechar 0
AnchorPoint: "m2b-7b" 189 0 basechar 0
AnchorPoint: "m2b-pg" 1050 0 basechar 0
AnchorPoint: "m2b-3" 583 0 basechar 0
AnchorPoint: "m2b-9" 750 0 basechar 0
AnchorPoint: "m2b-5b" 585.213 0 basechar 0
AnchorPoint: "m2b-5a" 590 0 basechar 0
AnchorPoint: "m2b-8c" 901 0 basechar 0
AnchorPoint: "m2b-8b" 115.213 0 basechar 0
AnchorPoint: "m2b-8a" 600 0 basechar 0
AnchorPoint: "m2b-7a" 169 0 basechar 0
AnchorPoint: "m2b-4d" 600 0 basechar 0
AnchorPoint: "m2b-4c" 600 0 basechar 0
AnchorPoint: "m2b-4b" 629 0 basechar 0
AnchorPoint: "m2b-4a" 620.213 0 basechar 0
AnchorPoint: "m2b-1" 625.213 0 basechar 0
LayerCount: 2
Fore
SplineSet
243 902 m 2xa8
 154 902 137 903 137 951 c 2
 137 1079 l 2
 137 1149 156 1187 169 1187 c 0xa8
 178 1187 208 1128 306 1128 c 1
 931 1128 l 1x68
 1029 1128 1059 1187 1068 1187 c 0
 1081 1187 1100 1151 1100 1084 c 0
 1100 1082 1100 1081 1100 1079 c 2
 1099 997 l 2
 1098 949 1100 919 1022 894 c 1
 1022 886 l 2xa8
 1022 817 1055 142 1055 142 c 1
 1055 121 l 2
 1055 72 1050 64 1008 28 c 1
 972 -7 950 -27 937 -27 c 0
 918 -27 917 18 916 131 c 9xb0
 916 768 l 17
 913 895 913 905 811 905 c 0
 804 905 797 905 789 905 c 2x68
 243 902 l 2xa8
160 130 m 9
 160 513 l 2
 160 562 168 564 206 606 c 1
 239 642 251 658 263 658 c 0
 281 658 283 613 283 500 c 10
 293 120 l 1
 293 71 284 63 244 27 c 1
 210 -8 189 -28 177 -28 c 0
 161 -28 160 8 160 98 c 0
 160 108 160 119 160 130 c 9
EndSplineSet
Validated: 1
MultipleSubs2: "Addhairspacebeforeletter subtable" hairspace he
MultipleSubs2: "Addthinspacebeforeletter subtable" thinspace he
MultipleSubs2: "AddHairspaceAfterMark subtable" he hairspace
MultipleSubs2: "AddThinspaceAfterMark subtable" he thinspace
Substitution2: "jaltWideLetterAlternativesinHeb subtable" he.wide
EndChar

StartChar: vav
Encoding: 160 1493 102
Width: 588
GlyphClass: 2
Flags: W
VStem: 346 106<282.074 775.848> 375 77<-35.7764 339.252>
AnchorPoint: "m2b-v2left" 410 0 basechar 0
AnchorPoint: "VbWM" 446 0 basechar 0
AnchorPoint: "VbNM" 390 0 basechar 0
AnchorPoint: "m2b-10" -330 0 basechar 0
AnchorPoint: "m2b-7d" -90 0 basechar 0
AnchorPoint: "m2b-7c" -220 0 basechar 0
AnchorPoint: "m2b-7b" 149 0 basechar 0
AnchorPoint: "m2b-7a" 129 0 basechar 0
AnchorPoint: "m2b-9" 430 0 basechar 0
AnchorPoint: "m2b-5b" 80 0 basechar 0
AnchorPoint: "m2b-5a" 410 0 basechar 0
AnchorPoint: "m2b-8c" 369 0 basechar 0
AnchorPoint: "m2b-8b" 53.7773 0 basechar 0
AnchorPoint: "m2b-8a" 280 0 basechar 0
AnchorPoint: "m2b-4d" 300 0 basechar 0
AnchorPoint: "m2b-4c" 300 0 basechar 0
AnchorPoint: "m2b-4b" 410 0 basechar 0
AnchorPoint: "m2b-4a" 410 0 basechar 0
AnchorPoint: "m2b-1" 273.778 0 basechar 0
LayerCount: 2
Fore
SplineSet
98 1026 m 0x80
 98 1095 105 1205 129 1205 c 0
 139 1205 173 1153 269 1128 c 2
 382 1099 l 18
 444 1083 450 1003 452 836 c 1
 452 56 l 2
 452 11 438 -37 406 -37 c 0
 390 -37 379 -18 375 24 c 10x40
 369 99 l 1
 346 585 l 1
 330 798 l 2
 327 839 310 871 263 886 c 9
 228 896 l 2
 177 911 144 921 120 940 c 1
 100 967 98 996 98 1026 c 0x80
EndSplineSet
Validated: 1
MultipleSubs2: "Addhairspacebeforeletter subtable" hairspace vav
MultipleSubs2: "Addthinspacebeforeletter subtable" thinspace vav
MultipleSubs2: "AddHairspaceAfterMark subtable" vav hairspace
MultipleSubs2: "AddThinspaceAfterMark subtable" vav thinspace
EndChar

StartChar: zayin
Encoding: 161 1494 103
Width: 585
GlyphClass: 2
Flags: W
VStem: 263 70<637.586 853.631>
AnchorPoint: "m2b-v2left" 340 0 basechar 0
AnchorPoint: "VbWM" 351 0 basechar 0
AnchorPoint: "VbNM" 300 0 basechar 0
AnchorPoint: "m2b-10" -330 0 basechar 0
AnchorPoint: "m2b-7d" -90 0 basechar 0
AnchorPoint: "m2b-7c" -220 0 basechar 0
AnchorPoint: "m2b-7b" 150 0 basechar 0
AnchorPoint: "m2b-9" 450 0 basechar 0
AnchorPoint: "m2b-5b" 35 0 basechar 0
AnchorPoint: "m2b-5a" 340 0 basechar 0
AnchorPoint: "m2b-8c" 328 0 basechar 0
AnchorPoint: "m2b-8b" 41 0 basechar 0
AnchorPoint: "m2b-8a" 300 0 basechar 0
AnchorPoint: "m2b-7a" 130 0 basechar 0
AnchorPoint: "m2b-4d" 250 0 basechar 0
AnchorPoint: "m2b-4c" 319 0 basechar 0
AnchorPoint: "m2b-4b" 340 0 basechar 0
AnchorPoint: "m2b-4a" 340 0 basechar 0
AnchorPoint: "m2b-1" 300 0 basechar 0
LayerCount: 2
Fore
SplineSet
100 995 m 2
 100 1087 l 2
 100 1157 118 1205 130 1205 c 0
 140 1205 176 1158 270 1128 c 2
 396 1088 l 18
 417 1081 471 1068 471 1038 c 2
 471 946 l 1
 471 877 397 868 384 863 c 0
 337 844 333 802 333 741 c 1
 333 572 435 214 435 118 c 0
 435 15 340 -44 327 -44 c 0
 305 -44 304 7 293 96 c 10
 237 530 l 17
 234 541 229 626 229 635 c 0
 229 690 263 756 263 820 c 0
 263 857 247 878 224 893 c 0
 176 925 100 927 100 995 c 2
EndSplineSet
Validated: 1
MultipleSubs2: "Addhairspacebeforeletter subtable" hairspace zayin
MultipleSubs2: "Addthinspacebeforeletter subtable" thinspace zayin
MultipleSubs2: "AddHairspaceAfterMark subtable" zayin hairspace
MultipleSubs2: "AddThinspaceAfterMark subtable" zayin thinspace
EndChar

StartChar: het
Encoding: 162 1495 104
Width: 1160
GlyphClass: 2
Flags: W
HStem: -12 21G<237.5 253.5 904.5 920.5> 894 293<141.949 209.747 948.253 1016.05> 901 227<347.767 810.233>
AnchorPoint: "m2b-v2r" 586 0 basechar 0
AnchorPoint: "HbWM" 459 0 basechar 0
AnchorPoint: "HbNM" 414 0 basechar 0
AnchorPoint: "VbWM" 600 0 basechar 0
AnchorPoint: "VbNM" 500 0 basechar 0
AnchorPoint: "m2b-10" -330 0 basechar 0
AnchorPoint: "m2b-7c" -220 0 basechar 0
AnchorPoint: "m2b-7b" 184 0 basechar 0
AnchorPoint: "m2b-pg" 1010 0 basechar 0
AnchorPoint: "m2b-9" 726 0 basechar 0
AnchorPoint: "m2b-5b" 570 0 basechar 0
AnchorPoint: "m2b-5a" 586.106 0 basechar 0
AnchorPoint: "m2b-8c" 860 0 basechar 0
AnchorPoint: "m2b-8b" 107 0 basechar 0
AnchorPoint: "m2b-8a" 576.106 0 basechar 0
AnchorPoint: "m2b-7a" 164 0 basechar 0
AnchorPoint: "m2b-4d" 586 0 basechar 0
AnchorPoint: "m2b-4c" 586.106 0 basechar 0
AnchorPoint: "m2b-4b" 586.106 0 basechar 0
AnchorPoint: "m2b-4a" 586.106 0 basechar 0
AnchorPoint: "m2b-2" 586.106 0 basechar 0
AnchorPoint: "m2b-1" 576.106 0 basechar 0
LayerCount: 2
Fore
SplineSet
948 894 m 1xc0
 948 882 l 2
 950 813 1013 180 1013 180 c 1
 1017 144 l 2
 1019 125 1019 114 1018 103 c 0
 1016 77 1013 62 985 36 c 1
 949 1 927 -12 914 -12 c 0
 895 -12 888 38 878 154 c 9
 832 768 l 17
 811 894 797 901 695 901 c 2
 673 901 l 1
 485 901 l 1
 463 901 l 2xa0
 361 901 347 894 326 768 c 9
 280 154 l 17
 270 38 263 -12 244 -12 c 0
 231 -12 209 1 173 36 c 1
 145 62 142 77 140 103 c 0
 139 114 139 125 141 144 c 2
 145 180 l 1
 145 180 210 817 210 886 c 2
 210 894 l 1
 132 919 134 949 133 997 c 2
 132 1079 l 1
 132 1084 l 2
 132 1151 151 1187 164 1187 c 0xc0
 173 1187 203 1128 301 1128 c 2
 857 1128 l 2xa0
 955 1128 985 1187 994 1187 c 0
 1007 1187 1026 1151 1026 1084 c 2
 1026 1079 l 1
 1025 997 l 2
 1024 949 1026 919 948 894 c 1xc0
EndSplineSet
Validated: 1
MultipleSubs2: "Addhairspacebeforeletter subtable" hairspace het
MultipleSubs2: "Addthinspacebeforeletter subtable" thinspace het
MultipleSubs2: "AddHairspaceAfterMark subtable" het hairspace
MultipleSubs2: "AddThinspaceAfterMark subtable" het thinspace
EndChar

StartChar: tet
Encoding: 163 1496 105
Width: 1082
GlyphClass: 2
Flags: W
HStem: -23 237<321.389 553.052> 912 201<681.769 839.901>
VStem: 258 8<631 819> 588 68<729.678 885.478> 880 119<377.808 874.468>
AnchorPoint: "m2b-v2r" 485 0 basechar 0
AnchorPoint: "VbWM" 600 0 basechar 0
AnchorPoint: "VbNM" 500 0 basechar 0
AnchorPoint: "m2b-10" -330 0 basechar 0
AnchorPoint: "m2b-7c" -220 0 basechar 0
AnchorPoint: "m2b-7b" 150 0 basechar 0
AnchorPoint: "m2b-9" 650 0 basechar 0
AnchorPoint: "m2b-5b" 470 0 basechar 0
AnchorPoint: "m2b-5a" 485 0 basechar 0
AnchorPoint: "m2b-8c" 751 0 basechar 0
AnchorPoint: "m2b-8b" 123 0 basechar 0
AnchorPoint: "m2b-8a" 500 0 basechar 0
AnchorPoint: "m2b-7a" 130 0 basechar 0
AnchorPoint: "m2b-4d" 570 0 basechar 0
AnchorPoint: "m2b-4c" 600 0 basechar 0
AnchorPoint: "m2b-4b" 485 0 basechar 0
AnchorPoint: "m2b-4a" 484.75 0 basechar 0
AnchorPoint: "m2b-1" 500 0 basechar 0
LayerCount: 2
Fore
SplineSet
436 956 m 1
 430 871 266 776 266 631 c 0
 266 539 293 420 310 289 c 1
 326 238 338 214 408 214 c 2
 433 214 l 2
 454 214 507 221 597 241 c 1
 855 294 876 387 876 417 c 2
 880 721 l 1
 874 861 829 912 736 912 c 18
 729 912 l 2
 667 912 672 792 656 751 c 1
 641 734 627 729 615 729 c 0
 599 729 589 739 588 741 c 0
 587 790 581 863 581 931 c 0
 581 960 580 988 580 1013 c 0
 580 1071 587 1112 639 1113 c 1
 644 1113 l 2
 700 1113 737 1096 814 1079 c 1
 928 1051 998 1003 999 874 c 0
 999 861 998 850 998 838 c 0
 993 619 971 362 930 258 c 1
 894 171 888 120 756 78 c 0
 521 3 336 -23 290 -23 c 0
 240 -23 234 10 221 98 c 1
 172 500 l 1
 170 526 l 2
 168 554 170 573 170 589 c 0
 170 691 258 777 258 819 c 0
 258 840 240 876 213 891 c 1
 127 929 115 946 114 1008 c 9
 114 1147 l 18
 114 1181 121 1193 130 1193 c 0
 143 1193 162 1170 180 1158 c 1
 359 1061 436 1116 436 972 c 2
 436 956 l 1
EndSplineSet
Validated: 1
MultipleSubs2: "Addhairspacebeforeletter subtable" hairspace tet
MultipleSubs2: "Addthinspacebeforeletter subtable" thinspace tet
MultipleSubs2: "AddHairspaceAfterMark subtable" tet hairspace
MultipleSubs2: "AddThinspaceAfterMark subtable" tet thinspace
EndChar

StartChar: yod
Encoding: 164 1497 106
Width: 627
GlyphClass: 2
Flags: W
VStem: 291 100<490.014 642.197> 361 146<711.847 844.984>
AnchorPoint: "m2b-v2left" 337 0 basechar 0
AnchorPoint: "VbWM" 393 0 basechar 0
AnchorPoint: "VbNM" 328 0 basechar 0
AnchorPoint: "m2b-10" -330 0 basechar 0
AnchorPoint: "m2b-7d" -67 0 basechar 0
AnchorPoint: "m2b-7c" -220 0 basechar 0
AnchorPoint: "m2b-7b" 173 0 basechar 0
AnchorPoint: "m2b-9" 480 0 basechar 0
AnchorPoint: "m2b-5b" 70 0 basechar 0
AnchorPoint: "m2b-5a" 337 0 basechar 0
AnchorPoint: "m2b-8c" 396 0 basechar 0
AnchorPoint: "m2b-8b" 70 0 basechar 0
AnchorPoint: "m2b-8a" 330 0 basechar 0
AnchorPoint: "m2b-7a" 153 0 basechar 0
AnchorPoint: "m2b-4d" 250 0 basechar 0
AnchorPoint: "m2b-4c" 300 0 basechar 0
AnchorPoint: "m2b-4b" 337 0 basechar 0
AnchorPoint: "m2b-4a" 337 0 basechar 0
AnchorPoint: "m2b-1" 337 0 basechar 0
LayerCount: 2
Fore
SplineSet
361 788 m 0x40
 361 818 327 846 291 857 c 0
 207 883 119 910 119 962 c 2
 123 1071 l 2
 126 1141 141 1189 153 1189 c 0
 163 1189 198 1146 291 1112 c 2x80
 454 1053 l 18
 475 1045 516 1019 524 989 c 1
 529 971 530 961 530 949 c 0
 530 942 530 934 529 922 c 1
 529 912 508 831 507 826 c 0
 507 825 507 824 507 823 c 0x40
 494 766 413 605 391 556 c 0
 371 512 372 500 323 477 c 0
 312 472 304 469 299 469 c 0
 294 469 291 472 291 478 c 0x80
 291 497 361 702 361 788 c 0x40
EndSplineSet
Validated: 1
MultipleSubs2: "Addhairspacebeforeletter subtable" hairspace yod
MultipleSubs2: "Addthinspacebeforeletter subtable" thinspace yod
MultipleSubs2: "AddHairspaceAfterMark subtable" yod hairspace
MultipleSubs2: "AddThinspaceAfterMark subtable" yod thinspace
EndChar

StartChar: finalkaf
Encoding: 165 1498 107
Width: 1055
GlyphClass: 2
Flags: W
HStem: 903 285<124.697 210.835 870.978 927.051> 903 226<167.303 743.529>
VStem: 750 106<452.26 897.766> 760 139<-499.65 79.0029>
AnchorPoint: "m2b-mback" 460 0 basechar 0
AnchorPoint: "m2b-vback" 460 0 basechar 0
AnchorPoint: "m2b-7b" 170 0 basechar 0
AnchorPoint: "m2b-3" 510 0 basechar 0
AnchorPoint: "m2b-6" 470 0 basechar 0
AnchorPoint: "m2b-9" 650 0 basechar 0
AnchorPoint: "m2b-5b" 630 0 basechar 0
AnchorPoint: "m2b-5a" 460 0 basechar 0
AnchorPoint: "m2b-8c" 737 0 basechar 0
AnchorPoint: "m2b-8b" 121.567 0 basechar 0
AnchorPoint: "m2b-8a" 500 0 basechar 0
AnchorPoint: "m2b-7a" 150 0 basechar 0
AnchorPoint: "m2b-4d" 320 0 basechar 0
AnchorPoint: "m2b-4c" 370 0 basechar 0
AnchorPoint: "m2b-4b" 460 0 basechar 0
AnchorPoint: "m2b-4a" 460 0 basechar 0
AnchorPoint: "m2b-1" 490 0 basechar 0
LayerCount: 2
Fore
SplineSet
224 903 m 2x60
 135 903 118 904 118 952 c 2
 118 1080 l 2
 118 1150 137 1188 150 1188 c 0xa0
 159 1188 189 1129 287 1129 c 2
 790 1127 l 2
 888 1127 896 1174 905 1174 c 0
 918 1174 937 1138 937 1071 c 0
 937 1069 937 1068 937 1066 c 2
 936 984 l 2
 935 936 934 917 856 892 c 1
 856 886 l 2x60
 856 817 899 -389 899 -389 c 1
 899 -410 l 2
 899 -459 894 -467 852 -503 c 1
 816 -538 794 -558 781 -558 c 0
 762 -558 761 -513 760 -400 c 9x50
 750 766 l 17
 747 901 747 903 623 903 c 2
 224 903 l 2x60
EndSplineSet
Validated: 1
MultipleSubs2: "Addhairspacebeforeletter subtable" hairspace finalkaf
MultipleSubs2: "Addthinspacebeforeletter subtable" thinspace finalkaf
MultipleSubs2: "AddHairspaceAfterMark subtable" finalkaf hairspace
MultipleSubs2: "AddThinspaceAfterMark subtable" finalkaf thinspace
EndChar

StartChar: kaf
Encoding: 166 1499 108
Width: 973
GlyphClass: 2
Flags: W
VStem: 818 84<268.259 590.686>
AnchorPoint: "m2b-v2r" 425 0 basechar 0
AnchorPoint: "VbWM" 540 0 basechar 0
AnchorPoint: "VbNM" 468 0 basechar 0
AnchorPoint: "m2b-10" -330 0 basechar 0
AnchorPoint: "m2b-7c" -220 0 basechar 0
AnchorPoint: "m2b-7b" 200 0 basechar 0
AnchorPoint: "m2b-8c" 667 0 basechar 0
AnchorPoint: "m2b-3" 518.911 0 basechar 0
AnchorPoint: "m2b-5b" 350 0 basechar 0
AnchorPoint: "m2b-5a" 425 0 basechar 0
AnchorPoint: "m2b-8b" 120 0 basechar 0
AnchorPoint: "m2b-8a" 477.911 0 basechar 0
AnchorPoint: "m2b-7a" 180 0 basechar 0
AnchorPoint: "m2b-4d" 424.911 0 basechar 0
AnchorPoint: "m2b-4c" 425 0 basechar 0
AnchorPoint: "m2b-4b" 424.911 0 basechar 0
AnchorPoint: "m2b-4a" 424.911 0 basechar 0
AnchorPoint: "m2b-1" 518.911 0 basechar 0
LayerCount: 2
Fore
SplineSet
546 870 m 9
 254 902 l 2
 165 911 148 909 148 950 c 2
 148 1078 l 2
 148 1148 168 1186 180 1186 c 0
 190 1186 218 1136 316 1126 c 1
 625 1091 l 1
 750 1077 852 1066 872 834 c 9
 902 368 l 17
 902 363 902 358 902 353 c 0
 902 223 803 32 689 22 c 9
 153 -32 l 18
 138 -34 110 -36 102 -38 c 0
 100 -38 98 -38 96 -38 c 0
 79 -38 71 -29 71 -5 c 0
 71 3 72 12 74 24 c 2
 88 129 l 2
 97 190 88 193 158 201 c 10
 694 256 l 17
 790 264 818 266 818 345 c 0
 818 374 814 412 809 465 c 9
 757 734 l 17
 720 851 688 854 546 870 c 9
EndSplineSet
Validated: 1
MultipleSubs2: "Addhairspacebeforeletter subtable" hairspace kaf
MultipleSubs2: "Addthinspacebeforeletter subtable" thinspace kaf
MultipleSubs2: "AddHairspaceAfterMark subtable" kaf hairspace
MultipleSubs2: "AddThinspaceAfterMark subtable" kaf thinspace
Substitution2: "jaltWideLetterAlternativesinHeb subtable" kaf.wide
EndChar

StartChar: lamed
Encoding: 167 1500 109
Width: 964
GlyphClass: 2
Flags: W
HStem: 904 224<198.165 729.601>
VStem: 125 73<1131.51 1652.72> 425 161<66.375 148.801> 793 110<629 847.328>
AnchorPoint: "m2b-v2r" 490 0 basechar 0
AnchorPoint: "VbWM" 546 0 basechar 0
AnchorPoint: "VbNM" 504 0 basechar 0
AnchorPoint: "m2b-10" -330 0 basechar 0
AnchorPoint: "m2b-7c" -220 0 basechar 0
AnchorPoint: "m2b-7a" -20 0 basechar 0
AnchorPoint: "m2b-9" 750 0 basechar 0
AnchorPoint: "m2b-5b" 336 0 basechar 0
AnchorPoint: "m2b-5a" 490 0 basechar 0
AnchorPoint: "m2b-8c" 800 0 basechar 0
AnchorPoint: "m2b-8b" -110 0 basechar 0
AnchorPoint: "m2b-8a" 520 0 basechar 0
AnchorPoint: "m2b-4d" 390 0 basechar 0
AnchorPoint: "m2b-4c" 396 0 basechar 0
AnchorPoint: "m2b-4b" 490 0 basechar 0
AnchorPoint: "m2b-4a" 490 0 basechar 0
AnchorPoint: "m2b-1" 473 0 basechar 0
LayerCount: 2
Fore
SplineSet
210 1758 m 0
 198 1176 l 1
 198 1129 233 1128 293 1128 c 2
 710 1128 l 2
 823 1128 833 1092 845 1018 c 2
 899 687 l 2
 902 665 903 649 903 636 c 0
 903 602 898 574 862 526 c 2
 610 194 l 2
 594 172 586 148 586 126 c 0
 586 100 571 92 555 78 c 10
 443 -15 l 18
 434 -23 425 -14 425 0 c 0
 425 43 451 126 486 178 c 2
 793 629 l 1
 793 636 l 2
 793 747 762 827 730 886 c 0
 722 901 681 904 635 904 c 2
 239 904 l 2
 165 905 125 925 125 1036 c 2
 125 1586 l 1
 123 1603 118 1623 99 1642 c 10
 52 1691 l 18
 20 1725 13 1730 13 1779 c 10
 13 1893 l 18
 13 1935 18 1952 37 1981 c 1
 44 1991 48 1995 51 1995 c 0
 59 1995 59 1967 85 1941 c 10
 190 1832 l 18
 207 1815 210 1776 210 1758 c 0
EndSplineSet
Validated: 1
MultipleSubs2: "Addhairspacebeforeletter subtable" hairspace lamed
MultipleSubs2: "Addthinspacebeforeletter subtable" thinspace lamed
MultipleSubs2: "AddHairspaceAfterMark subtable" lamed hairspace
MultipleSubs2: "AddThinspaceAfterMark subtable" lamed thinspace
Substitution2: "jaltWideLetterAlternativesinHeb subtable" lamed.wide
EndChar

StartChar: finalmem
Encoding: 168 1501 110
Width: 1159
GlyphClass: 2
Flags: W
HStem: 0 226<292.796 929.299> 901 228<183.046 239 333.324 902.307>
VStem: 165 91<254.512 799.969> 940 100<233.41 378.375 395.438 866.764>
AnchorPoint: "m2b-v2r" 559 0 basechar 0
AnchorPoint: "m2b-7b" 185 0 basechar 0
AnchorPoint: "m2b-9" 727 0 basechar 0
AnchorPoint: "m2b-5b" 500 0 basechar 0
AnchorPoint: "m2b-5a" 559 0 basechar 0
AnchorPoint: "m2b-8c" 833 0 basechar 0
AnchorPoint: "m2b-8b" 130 0 basechar 0
AnchorPoint: "m2b-8a" 577.153 0 basechar 0
AnchorPoint: "m2b-7a" 165 0 basechar 0
AnchorPoint: "m2b-4d" 559 0 basechar 0
AnchorPoint: "m2b-4c" 572.153 0 basechar 0
AnchorPoint: "m2b-4b" 559 0 basechar 0
AnchorPoint: "m2b-4a" 559 0 basechar 0
AnchorPoint: "m2b-2" 587.153 0 basechar 0
AnchorPoint: "m2b-1" 577.153 0 basechar 0
LayerCount: 2
Fore
SplineSet
940 402 m 2
 926 742 l 1
 914 850 914 901 783 901 c 1
 398 901 l 1
 280 842 256 757 256 646 c 0
 256 561 269 462 276 354 c 0
 284 230 328 226 367 226 c 2
 837 226 l 2
 919 226 940 247 940 360 c 0
 940 374 941 388 940 402 c 2
239 901 m 0
 233 901 228 901 222 901 c 0
 172 901 133 909 133 952 c 2
 133 1080 l 2
 133 1150 152 1188 165 1188 c 0
 174 1188 204 1129 302 1129 c 2
 943 1128 l 2
 988 1128 1040 1047 1040 901 c 2
 1040 898 l 1
 1028 218 l 1
 1022 87 932 0 803 0 c 2
 258 0 l 1
 203 5 165 5 165 125 c 2
 165 694 l 1
 167 755 260 871 260 886 c 1
 258 902 239 902 239 901 c 0
EndSplineSet
Validated: 1
MultipleSubs2: "Addhairspacebeforeletter subtable" hairspace finalmem
MultipleSubs2: "Addthinspacebeforeletter subtable" thinspace finalmem
MultipleSubs2: "AddHairspaceAfterMark subtable" finalmem hairspace
MultipleSubs2: "AddThinspaceAfterMark subtable" finalmem thinspace
Substitution2: "jaltWideLetterAlternativesinHeb subtable" finalmem.wide
EndChar

StartChar: mem
Encoding: 169 1502 111
Width: 1187
GlyphClass: 2
Flags: W
HStem: -6 21G<424.5 442.5>
VStem: 980 88<281.141 832.733>
AnchorPoint: "m2b-v2r" 562 0 basechar 0
AnchorPoint: "VbWM" 570 0 basechar 0
AnchorPoint: "VbNM" 477 0 basechar 0
AnchorPoint: "m2b-10" -330 0 basechar 0
AnchorPoint: "m2b-7c" -220 0 basechar 0
AnchorPoint: "m2b-7b" 199 0 basechar 0
AnchorPoint: "m2b-9" 780 0 basechar 0
AnchorPoint: "m2b-5b" 525 0 basechar 0
AnchorPoint: "m2b-5a" 562 0 basechar 0
AnchorPoint: "m2b-8c" 887 0 basechar 0
AnchorPoint: "m2b-8b" 170 0 basechar 0
AnchorPoint: "m2b-8a" 630 0 basechar 0
AnchorPoint: "m2b-7a" 179 0 basechar 0
AnchorPoint: "m2b-4d" 562 0 basechar 0
AnchorPoint: "m2b-4c" 562 0 basechar 0
AnchorPoint: "m2b-4b" 562 0 basechar 0
AnchorPoint: "m2b-4a" 562 0 basechar 0
AnchorPoint: "m2b-1" 600 0 basechar 0
LayerCount: 2
Fore
SplineSet
179 1222 m 0
 272 1191 359 1002 454 1002 c 0
 455 1002 455 1002 456 1002 c 0
 476 1003 497 1013 536 1035 c 1
 621 1094 719 1156 787 1157 c 1
 788 1157 789 1157 790 1157 c 0
 857 1153 922 1095 990 1046 c 0
 1051 1002 1068 922 1068 876 c 2
 1068 219 l 1
 1073 196 l 1
 1073 82 1049 48 924 37 c 2
 474 -3 l 2
 459 -4 447 -6 438 -6 c 2
 433 -6 l 2
 416 -6 405 4 405 27 c 0
 405 36 406 46 410 59 c 2
 442 165 l 2
 460 224 444 227 514 234 c 2
 883 270 l 1
 950 280 980 288 980 349 c 0
 980 350 980 351 980 352 c 2
 967 718 l 2
 964 812 965 814 911 853 c 0
 837 907 703 975 644 975 c 0
 531 975 310 747 280 557 c 0
 228 232 273 96 177 33 c 0
 155 19 141 10 131 10 c 0
 120 10 117 23 117 50 c 2
 117 112 l 2
 117 132 116 151 116 170 c 0
 116 585 291 749 291 801 c 0
 291 860 274 832 186 912 c 0
 162 933 149 962 149 985 c 0
 149 1139 151 1223 175 1223 c 0
 176 1223 178 1222 179 1222 c 0
EndSplineSet
Validated: 1
MultipleSubs2: "Addhairspacebeforeletter subtable" hairspace mem
MultipleSubs2: "Addthinspacebeforeletter subtable" thinspace mem
MultipleSubs2: "AddHairspaceAfterMark subtable" mem hairspace
MultipleSubs2: "AddThinspaceAfterMark subtable" mem thinspace
EndChar

StartChar: finalnun
Encoding: 170 1503 112
Width: 532
GlyphClass: 2
Flags: W
VStem: 185 108<199.509 622.719> 194 145<-474.005 118.125> 306 135<816 963>
AnchorPoint: "m2b-mback" -90 0 basechar 0
AnchorPoint: "m2b-vback" -90 0 basechar 0
AnchorPoint: "m2b-7b" 150 0 basechar 0
AnchorPoint: "m2b-9" 430 0 basechar 0
AnchorPoint: "m2b-5b" 60 0 basechar 0
AnchorPoint: "m2b-5a" -90 0 basechar 0
AnchorPoint: "m2b-8c" 369 0 basechar 0
AnchorPoint: "m2b-8b" 70 0 basechar 0
AnchorPoint: "m2b-8a" 280 0 basechar 0
AnchorPoint: "m2b-7a" 130 0 basechar 0
AnchorPoint: "m2b-4d" -250 0 basechar 0
AnchorPoint: "m2b-4c" -190 0 basechar 0
AnchorPoint: "m2b-4b" -90 0 basechar 0
AnchorPoint: "m2b-4a" 0 0 basechar 0
AnchorPoint: "m2b-2" 60 0 basechar 0
AnchorPoint: "m2b-1" 280 0 basechar 0
LayerCount: 2
Fore
SplineSet
185 310 m 0x80
 185 530 188 524 251 680 c 0
 272 733 306 752 306 816 c 0
 306 846 290 881 256 896 c 0
 177 931 100 954 100 1006 c 2
 100 1098 l 2
 100 1168 118 1216 130 1216 c 0
 140 1216 177 1173 270 1139 c 2
 366 1094 l 18
 386 1084 434 1060 434 1029 c 1
 441 963 l 1
 441 953 441 933 440 928 c 0
 429 881 388 780 374 765 c 1
 360 728 293 537 293 456 c 2
 293 448 l 1xa0
 335 -280 l 2
 337 -318 339 -345 339 -366 c 0
 339 -419 329 -433 294 -476 c 0
 274 -500 227 -512 218 -512 c 0
 192 -512 195 -484 194 -439 c 0x40
 193 -189 185 106 185 310 c 0x80
EndSplineSet
Validated: 1
MultipleSubs2: "Addhairspacebeforeletter subtable" hairspace finalnun
MultipleSubs2: "Addthinspacebeforeletter subtable" thinspace finalnun
MultipleSubs2: "AddHairspaceAfterMark subtable" finalnun hairspace
MultipleSubs2: "AddThinspaceAfterMark subtable" finalnun thinspace
EndChar

StartChar: nun
Encoding: 171 1504 113
Width: 746
GlyphClass: 2
Flags: W
VStem: 504 117<313.087 838.533> 519 103<231.794 664.913>
AnchorPoint: "m2b-v2left" 338 0 basechar 0
AnchorPoint: "m2b-v2r" 338 0 basechar 0
AnchorPoint: "VbWM" 428 0 basechar 0
AnchorPoint: "VbNM" 280 0 basechar 0
AnchorPoint: "m2b-10" -330 0 basechar 0
AnchorPoint: "m2b-7d" 68 0 basechar 0
AnchorPoint: "m2b-7c" -220 0 basechar 0
AnchorPoint: "m2b-7b" 308 0 basechar 0
AnchorPoint: "m2b-9" 601 0 basechar 0
AnchorPoint: "m2b-5b" 151.455 0 basechar 0
AnchorPoint: "m2b-5a" 338 0 basechar 0
AnchorPoint: "m2b-8c" 492 0 basechar 0
AnchorPoint: "m2b-8b" 240 0 basechar 0
AnchorPoint: "m2b-8a" 451.455 0 basechar 0
AnchorPoint: "m2b-7a" 288 0 basechar 0
AnchorPoint: "m2b-4d" 358 0 basechar 0
AnchorPoint: "m2b-4c" 338 0 basechar 0
AnchorPoint: "m2b-4b" 338 0 basechar 0
AnchorPoint: "m2b-4a" 338 0 basechar 0
AnchorPoint: "m2b-1" 408 0 basechar 0
LayerCount: 2
Fore
SplineSet
504 682 m 2x80
 500 762 498 813 437 863 c 1
 351 900 l 1
 275 934 246 940 246 963 c 1
 253 1073 l 2
 257 1143 276 1216 288 1216 c 0
 299 1216 348 1146 441 1113 c 1
 510 1090 l 1
 625 1040 620 892 621 795 c 2x80
 622 119 l 1
 618 41 596 10 525 3 c 2
 136 -35 l 18
 121 -37 108 -38 99 -38 c 0
 71 -38 71 -26 71 24 c 2
 71 126 l 2
 71 188 71 191 141 198 c 10
 448 228 l 2
 491 233 519 235 519 294 c 2
 519 296 l 1x40
 504 682 l 2x80
EndSplineSet
Validated: 1
MultipleSubs2: "Addhairspacebeforeletter subtable" hairspace nun
MultipleSubs2: "Addthinspacebeforeletter subtable" thinspace nun
MultipleSubs2: "AddHairspaceAfterMark subtable" nun hairspace
MultipleSubs2: "AddThinspaceAfterMark subtable" nun thinspace
EndChar

StartChar: samekh
Encoding: 172 1505 114
Width: 1099
GlyphClass: 2
Flags: W
HStem: -36 251<224 404.691>
VStem: 156 92<391.827 785.184> 242 6<677 881> 908 97<347.025 815.413>
AnchorPoint: "m2b-v2r" 500 0 basechar 0
AnchorPoint: "VbWM" 541 0 basechar 0
AnchorPoint: "VbNM" 467 0 basechar 0
AnchorPoint: "m2b-10" -330 0 basechar 0
AnchorPoint: "m2b-7c" -220 0 basechar 0
AnchorPoint: "m2b-7b" 179 0 basechar 0
AnchorPoint: "m2b-9" 742 7 basechar 0
AnchorPoint: "m2b-5b" 475.8 0 basechar 0
AnchorPoint: "m2b-5a" 500 0 basechar 0
AnchorPoint: "m2b-8c" 787.8 7 basechar 0
AnchorPoint: "m2b-8b" 139.8 0 basechar 0
AnchorPoint: "m2b-8a" 591.8 0 basechar 0
AnchorPoint: "m2b-7a" 158 0 basechar 0
AnchorPoint: "m2b-4d" 570.8 0 basechar 0
AnchorPoint: "m2b-4c" 550 0 basechar 0
AnchorPoint: "m2b-4b" 500 0 basechar 0
AnchorPoint: "m2b-4a" 500 0 basechar 0
AnchorPoint: "m2b-1" 570.8 0 basechar 0
LayerCount: 2
Fore
SplineSet
1005 897 m 0xb0
 1005 885 1005 873 1005 861 c 2
 998 408 l 2
 997 331 854 119 724 89 c 0
 609 63 267 -36 248 -36 c 0xb0
 200 -36 198 6 193 85 c 2
 156 644 l 2
 155 657 156 648 156 661 c 0
 156 662 156 663 156 664 c 0xd0
 156 733 242 840 242 881 c 1
 240 932 127 892 127 954 c 2
 127 1082 l 2
 127 1152 147 1190 159 1190 c 0
 169 1190 197 1141 295 1130 c 2
 898 1064 l 1
 1001 1044 1005 967 1005 897 c 0xb0
413 886 m 0
 286 886 248 792 248 677 c 0xd0
 248 579 280 469 297 368 c 0
 317 245 333 215 388 215 c 0
 421 215 469 221 533 241 c 2
 822 331 l 1
 906 354 908 363 908 465 c 2
 908 674 l 1
 902 798 879 829 775 848 c 1
 478 882 l 1
 456 883 435 886 413 886 c 0
EndSplineSet
Validated: 1
MultipleSubs2: "Addhairspacebeforeletter subtable" hairspace samekh
MultipleSubs2: "Addthinspacebeforeletter subtable" thinspace samekh
MultipleSubs2: "AddHairspaceAfterMark subtable" samekh hairspace
MultipleSubs2: "AddThinspaceAfterMark subtable" samekh thinspace
EndChar

StartChar: ayin
Encoding: 173 1506 115
Width: 1040
GlyphClass: 2
Flags: W
VStem: 260 73<570.739 767.858> 828 141<778 938>
AnchorPoint: "m2b-v2r" 418 0 basechar 0
AnchorPoint: "HbWM" 460 0 basechar 0
AnchorPoint: "HbNM" 414 0 basechar 0
AnchorPoint: "VbWM" 600 0 basechar 0
AnchorPoint: "VbNM" 570 0 basechar 0
AnchorPoint: "m2b-10" -330 0 basechar 0
AnchorPoint: "m2b-7c" -220 0 basechar 0
AnchorPoint: "m2b-7b" 198 0 basechar 0
AnchorPoint: "m2b-pg" 850 0 basechar 0
AnchorPoint: "m2b-9" 675 0 basechar 0
AnchorPoint: "m2b-5b" 400 0 basechar 0
AnchorPoint: "m2b-5a" 418 0 basechar 0
AnchorPoint: "m2b-8c" 737 0 basechar 0
AnchorPoint: "m2b-8b" 120 -4 basechar 0
AnchorPoint: "m2b-8a" 525 0 basechar 0
AnchorPoint: "m2b-7a" 178 0 basechar 0
AnchorPoint: "m2b-4d" 570 0 basechar 0
AnchorPoint: "m2b-4c" 520 0 basechar 0
AnchorPoint: "m2b-4b" 418.211 0 basechar 0
AnchorPoint: "m2b-4a" 418.211 0 basechar 0
AnchorPoint: "m2b-2" 584 68 basechar 0
AnchorPoint: "m2b-1" 504 0 basechar 0
LayerCount: 2
Fore
SplineSet
260 665 m 1
 260 721 291 759 291 775 c 1
 289 792 272 803 257 818 c 10
 210 867 l 18
 178 901 132 935 132 984 c 9
 140 1111 l 18
 146 1202 177 1213 178 1213 c 0
 186 1213 186 1185 212 1159 c 10
 402 975 l 18
 419 958 424 939 424 923 c 0
 424 845 333 722 333 679 c 0
 333 623 449 408 475 355 c 0
 497 310 537 252 566 252 c 0
 622 252 678 351 697 408 c 1
 737 536 828 769 828 787 c 0
 827 808 808 816 793 831 c 10
 746 880 l 18
 714 914 668 948 668 997 c 9
 676 1124 l 18
 682 1215 713 1226 714 1226 c 0
 722 1226 722 1198 748 1172 c 10
 938 988 l 18
 955 971 969 946 969 930 c 0
 969 861 895 775 868 662 c 2
 752 170 l 2
 738 111 736 107 692 87 c 0
 574 36 265 -56 83 -150 c 1
 79 -150 73 -152 71 -152 c 0
 51 -152 47 -140 47 -128 c 0
 47 69 50 84 127 109 c 2
 352 183 l 1
 378 196 391 216 391 236 c 1
 348 379 261 624 260 665 c 1
EndSplineSet
Validated: 1
MultipleSubs2: "Addhairspacebeforeletter subtable" hairspace ayin
MultipleSubs2: "Addthinspacebeforeletter subtable" thinspace ayin
MultipleSubs2: "AddHairspaceAfterMark subtable" ayin hairspace
MultipleSubs2: "AddThinspaceAfterMark subtable" ayin thinspace
Substitution2: "saltStylisticAlternativesinHebr subtable" ayin.alt
EndChar

StartChar: finalpe
Encoding: 174 1507 116
Width: 995
GlyphClass: 2
Flags: W
VStem: 745 121<421.813 802.419> 750 161<-516.719 -40.8133>
AnchorPoint: "m2b-mback" 480 0 basechar 0
AnchorPoint: "m2b-vback" 480 0 basechar 0
AnchorPoint: "m2b-7b" 321 0 basechar 0
AnchorPoint: "m2b-3" 510 0 basechar 0
AnchorPoint: "m2b-9" 720 0 basechar 0
AnchorPoint: "m2b-5b" 600 0 basechar 0
AnchorPoint: "m2b-5a" 480 0 basechar 0
AnchorPoint: "m2b-8c" 683 0 basechar 0
AnchorPoint: "m2b-8b" 175 0 basechar 0
AnchorPoint: "m2b-8a" 570 0 basechar 0
AnchorPoint: "m2b-7a" 301 0 basechar 0
AnchorPoint: "m2b-4d" 300 0 basechar 0
AnchorPoint: "m2b-4c" 350 0 basechar 0
AnchorPoint: "m2b-4b" 480 0 basechar 0
AnchorPoint: "m2b-4a" 480 0 basechar 0
AnchorPoint: "m2b-1" 580 0 basechar 0
LayerCount: 2
Fore
SplineSet
314 916 m 1x80
 256 916 227 790 227 736 c 0
 227 686 289 678 344 658 c 0
 405 637 412 634 412 605 c 0
 412 596 411 586 411 572 c 2
 411 472 l 2
 411 437 412 424 388 424 c 1
 135 489 l 17
 95 503 82 521 82 547 c 0
 82 565 88 588 96 615 c 0
 280 1194 285 1194 301 1194 c 0
 351 1194 357 1144 452 1115 c 2
 656 1052 l 18
 764 1019 860 1008 866 828 c 2x80
 911 -447 l 1
 911 -496 883 -503 842 -540 c 0
 805 -574 784 -595 771 -595 c 0
 752 -595 750 -550 750 -437 c 10x40
 745 722 l 1
 741 815 666 822 530 858 c 10
 314 916 l 1x80
EndSplineSet
Validated: 1
MultipleSubs2: "Addhairspacebeforeletter subtable" hairspace finalpe
MultipleSubs2: "Addthinspacebeforeletter subtable" thinspace finalpe
MultipleSubs2: "AddHairspaceAfterMark subtable" finalpe hairspace
MultipleSubs2: "AddThinspaceAfterMark subtable" finalpe thinspace
EndChar

StartChar: pe
Encoding: 175 1508 117
Width: 981
GlyphClass: 2
Flags: W
VStem: 833 84<268.259 590.686>
AnchorPoint: "m2b-v2r" 462 0 basechar 0
AnchorPoint: "VbWM" 520 0 basechar 0
AnchorPoint: "VbNM" 444 0 basechar 0
AnchorPoint: "m2b-10" -330 0 basechar 0
AnchorPoint: "m2b-7c" -220 0 basechar 0
AnchorPoint: "m2b-7b" 345 0 basechar 0
AnchorPoint: "m2b-3" 533 0 basechar 0
AnchorPoint: "m2b-9" 682 0 basechar 0
AnchorPoint: "m2b-5b" 372.39 0 basechar 0
AnchorPoint: "m2b-5a" 462 0 basechar 0
AnchorPoint: "m2b-8c" 669 0 basechar 0
AnchorPoint: "m2b-8b" 220 0 basechar 0
AnchorPoint: "m2b-8a" 532.39 0 basechar 0
AnchorPoint: "m2b-7a" 325 0 basechar 0
AnchorPoint: "m2b-4d" 462.39 0 basechar 0
AnchorPoint: "m2b-4c" 462.39 0 basechar 0
AnchorPoint: "m2b-4b" 462.39 0 basechar 0
AnchorPoint: "m2b-4a" 462.39 0 basechar 0
AnchorPoint: "m2b-1" 532.39 0 basechar 0
LayerCount: 2
Fore
SplineSet
704 1059 m 17
 775 1044 871 974 887 834 c 9
 917 368 l 18
 917 363 917 358 917 353 c 0
 917 223 818 32 704 22 c 13
 168 -32 l 22
 153 -34 125 -36 117 -38 c 0
 115 -38 113 -38 111 -38 c 0
 94 -38 86 -29 86 -5 c 0
 86 3 87 12 89 24 c 2
 103 129 l 2
 112 190 103 193 173 201 c 10
 709 256 l 17
 805 264 833 266 833 345 c 0
 833 374 829 412 824 465 c 9
 772 734 l 17
 747 812 699 833 563 870 c 10
 338 908 l 1
 280 908 251 782 251 728 c 0
 251 678 313 670 368 650 c 0
 429 629 436 626 436 597 c 0
 436 588 435 578 435 564 c 2
 435 464 l 2
 435 429 436 416 412 416 c 1
 159 481 l 17
 119 495 106 513 106 539 c 0
 106 557 112 580 120 607 c 0
 304 1186 309 1186 325 1186 c 0
 375 1186 379 1127 476 1107 c 2
 704 1059 l 17
EndSplineSet
Validated: 1
MultipleSubs2: "Addhairspacebeforeletter subtable" hairspace pe
MultipleSubs2: "Addthinspacebeforeletter subtable" thinspace pe
MultipleSubs2: "AddHairspaceAfterMark subtable" pe hairspace
MultipleSubs2: "AddThinspaceAfterMark subtable" pe thinspace
EndChar

StartChar: finaltsadi
Encoding: 176 1509 118
Width: 951
GlyphClass: 2
Flags: W
VStem: 187 89<393.767 689.798> 213 173<-444.573 -56.999>
AnchorPoint: "m2b-mback" 650 0 basechar 0
AnchorPoint: "m2b-vback" 650 0 basechar 0
AnchorPoint: "m2b-v2r" 650 0 basechar 0
AnchorPoint: "VbWM" 850 0 basechar 0
AnchorPoint: "VbNM" 710 0 basechar 0
AnchorPoint: "m2b-7b" 174 0 basechar 0
AnchorPoint: "m2b-9" 650 0 basechar 0
AnchorPoint: "m2b-5b" 447 0 basechar 0
AnchorPoint: "m2b-5a" 650 0 basechar 0
AnchorPoint: "m2b-8c" 696 0 basechar 0
AnchorPoint: "m2b-8b" 100 0 basechar 0
AnchorPoint: "m2b-8a" 500 0 basechar 0
AnchorPoint: "m2b-7a" 154 0 basechar 0
AnchorPoint: "m2b-4d" 787 0 basechar 0
AnchorPoint: "m2b-4c" 727 0 basechar 0
AnchorPoint: "m2b-4b" 650 0 basechar 0
AnchorPoint: "m2b-4a" 650 0 basechar 0
AnchorPoint: "m2b-2" 47 0 basechar 0
AnchorPoint: "m2b-1" 527 0 basechar 0
LayerCount: 2
Fore
SplineSet
264 773 m 0x80
 264 791 259 812 238 829 c 10
 155 896 l 18
 123 930 116 935 116 984 c 10
 116 1098 l 18
 116 1140 121 1157 140 1186 c 1
 147 1196 151 1200 154 1200 c 0
 162 1200 160 1171 187 1146 c 10
 374 974 l 18
 391 959 398 934 398 907 c 0
 398 906 398 904 398 902 c 0
 395 822 276 667 276 592 c 2
 276 563 l 2x80
 276 527 278 479 289 438 c 0
 309 369 313 372 348 442 c 2
 661 1068 l 2
 688 1121 700 1145 716 1145 c 0
 728 1145 743 1130 769 1102 c 1
 827 1048 l 1
 853 1028 860 1010 860 992 c 0
 860 942 846 780 845 772 c 1
 844 763 828 751 814 750 c 1
 813 750 813 750 812 750 c 0
 783 750 735 839 706 839 c 0
 690 839 675 823 651 786 c 1
 584 691 525 593 475 491 c 1
 403 338 325 304 325 131 c 0
 325 -34 386 -275 386 -368 c 0
 386 -387 381 -394 369 -410 c 0
 335 -457 277 -526 242 -528 c 1
 217 -528 217 -485 213 -413 c 9
 213 -376 l 26x40
 187 573 l 2
 187 575 l 0
 187 635 263 728 264 773 c 0x80
EndSplineSet
Validated: 1
MultipleSubs2: "Addhairspacebeforeletter subtable" hairspace finaltsadi
MultipleSubs2: "Addthinspacebeforeletter subtable" thinspace finaltsadi
MultipleSubs2: "AddHairspaceAfterMark subtable" finaltsadi hairspace
MultipleSubs2: "AddThinspaceAfterMark subtable" finaltsadi thinspace
EndChar

StartChar: tsadi
Encoding: 177 1510 119
Width: 1013
GlyphClass: 2
Flags: W
VStem: 308 55<635.685 784.829>
AnchorPoint: "m2b-v2r" 402 0 basechar 0
AnchorPoint: "VbWM" 470 0 basechar 0
AnchorPoint: "VbNM" 396 0 basechar 0
AnchorPoint: "m2b-10" -330 0 basechar 0
AnchorPoint: "m2b-7c" -220 0 basechar 0
AnchorPoint: "m2b-7b" 219 0 basechar 0
AnchorPoint: "m2b-9" 677 0 basechar 0
AnchorPoint: "m2b-5b" 370 0 basechar 0
AnchorPoint: "m2b-5a" 402 0 basechar 0
AnchorPoint: "m2b-8c" 696 0 basechar 0
AnchorPoint: "m2b-8b" 131 0 basechar 0
AnchorPoint: "m2b-8a" 527 0 basechar 0
AnchorPoint: "m2b-7a" 199 0 basechar 0
AnchorPoint: "m2b-4d" 402 0 basechar 0
AnchorPoint: "m2b-4c" 402 0 basechar 0
AnchorPoint: "m2b-4b" 402 0 basechar 0
AnchorPoint: "m2b-4a" 402 0 basechar 0
AnchorPoint: "m2b-1" 520 0 basechar 0
LayerCount: 2
Fore
SplineSet
441 897 m 0
 440 850 363 777 363 690 c 0
 363 645 463 554 477 554 c 0
 492 554 502 577 527 631 c 2
 727 1059 l 2
 752 1113 762 1142 778 1142 c 0
 790 1142 805 1127 831 1099 c 1
 889 1045 l 1
 915 1025 922 1007 922 989 c 0
 922 939 908 777 907 769 c 1
 906 760 890 748 876 747 c 1
 875 747 875 747 874 747 c 0
 845 747 797 836 768 836 c 0
 752 836 737 820 713 783 c 1
 646 688 570 553 570 553 c 17
 554 525 547 508 547 493 c 0
 547 475 557 461 576 438 c 1
 722 241 l 2
 728 232 729 220 729 210 c 0
 729 147 710 22 620 14 c 1
 607 12 143 -33 143 -33 c 1
 128 -35 115 -36 106 -36 c 0
 78 -36 78 -24 78 26 c 2
 78 128 l 2
 78 190 78 192 148 200 c 1
 467 232 l 2
 504 236 513 249 513 258 c 2
 513 260 l 1
 371 461 l 1
 338 510 285 557 285 600 c 0
 285 668 308 724 308 754 c 1
 307 771 304 801 283 818 c 10
 200 886 l 18
 168 920 161 924 161 973 c 10
 161 1087 l 18
 161 1129 166 1146 185 1175 c 1
 192 1185 196 1189 199 1189 c 0
 207 1189 205 1160 232 1135 c 10
 419 963 l 18
 437 947 441 913 441 897 c 0
EndSplineSet
Validated: 1
MultipleSubs2: "Addhairspacebeforeletter subtable" hairspace tsadi
MultipleSubs2: "Addthinspacebeforeletter subtable" thinspace tsadi
MultipleSubs2: "AddHairspaceAfterMark subtable" tsadi hairspace
MultipleSubs2: "AddThinspaceAfterMark subtable" tsadi thinspace
EndChar

StartChar: resh
Encoding: 179 1512 120
Width: 1021
GlyphClass: 2
Flags: W
VStem: 769 120<192.593 831.682> 800 89<10.6304 423.252>
AnchorPoint: "m2b-v2left" 839 0 basechar 0
AnchorPoint: "m2b-10" -330 0 basechar 0
AnchorPoint: "m2b-7c" -220 0 basechar 0
AnchorPoint: "m2b-7b" 168 0 basechar 0
AnchorPoint: "m2b-9" 650 0 basechar 0
AnchorPoint: "m2b-5b" 550 0 basechar 0
AnchorPoint: "m2b-5a" 839 0 basechar 0
AnchorPoint: "m2b-8c" 777 0 basechar 0
AnchorPoint: "m2b-8b" 100 0 basechar 0
AnchorPoint: "m2b-8a" 500 0 basechar 0
AnchorPoint: "m2b-7a" 148 0 basechar 0
AnchorPoint: "m2b-4d" 724 0 basechar 0
AnchorPoint: "m2b-4c" 720 0 basechar 0
AnchorPoint: "m2b-4b" 839 0 basechar 0
AnchorPoint: "m2b-4a" 839 0 basechar 0
AnchorPoint: "m2b-1" 550 0 basechar 0
LayerCount: 2
Fore
SplineSet
889 83 m 2x40
 889 72 l 2
 889 51 839 -3 812 -10 c 0
 801 -12 801 -13 800 0 c 0x40
 776 218 777 429 769 644 c 0x80
 763 813 752 851 610 867 c 9
 222 910 l 2
 133 920 116 917 116 958 c 2
 116 1086 l 2
 116 1156 136 1194 148 1194 c 0
 158 1194 186 1145 284 1134 c 1
 645 1093 l 1
 868 1069 891 1054 891 854 c 2
 891 854 889 231 889 83 c 2x40
EndSplineSet
Validated: 1
MultipleSubs2: "Addhairspacebeforeletter subtable" hairspace resh
MultipleSubs2: "Addthinspacebeforeletter subtable" thinspace resh
MultipleSubs2: "AddHairspaceAfterMark subtable" resh hairspace
MultipleSubs2: "AddThinspaceAfterMark subtable" resh thinspace
Substitution2: "jaltWideLetterAlternativesinHeb subtable" resh.wide
EndChar

StartChar: shin
Encoding: 180 1513 121
Width: 1435
GlyphClass: 2
Flags: W
HStem: -27 251<334 529.633>
VStem: 251 33<729 768> 1166 199<823.367 917>
AnchorPoint: "m2b-v2r" 584 0 basechar 0
AnchorPoint: "VbWM" 546 0 basechar 0
AnchorPoint: "VbNM" 561 0 basechar 0
AnchorPoint: "m2b-10" -330 0 basechar 0
AnchorPoint: "m2b-7c" -220 0 basechar 0
AnchorPoint: "m2b-7b" 169 0 basechar 0
AnchorPoint: "m2b-9" 904 0 basechar 0
AnchorPoint: "m2b-5b" 709 0 basechar 0
AnchorPoint: "m2b-5a" 584 0 basechar 0
AnchorPoint: "m2b-8c" 1120 0 basechar 0
AnchorPoint: "m2b-8b" 80 0 basechar 0
AnchorPoint: "m2b-8a" 754 0 basechar 0
AnchorPoint: "m2b-7a" 149 0 basechar 0
AnchorPoint: "m2b-4d" 650 0 basechar 0
AnchorPoint: "m2b-4c" 584 0 basechar 0
AnchorPoint: "m2b-4b" 584 0 basechar 0
AnchorPoint: "m2b-4a" 584 0 basechar 0
AnchorPoint: "m2b-1" 734 0 basechar 0
LayerCount: 2
Fore
SplineSet
1365 909 m 1
 1364 848 1268 793 1187 598 c 2
 1031 225 l 2
 994 135 979 115 860 86 c 2
 426 -19 l 1
 393 -25 373 -27 359 -27 c 0
 309 -27 308 16 287 129 c 2
 217 522 l 2
 208 576 202 608 202 633 c 0
 202 698 251 729 251 783 c 1
 249 800 246 822 225 839 c 10
 150 902 l 18
 118 936 111 941 111 990 c 10
 111 1104 l 18
 111 1146 116 1163 135 1192 c 1
 142 1202 146 1206 149 1206 c 0
 157 1206 155 1176 183 1152 c 10
 383 983 l 18
 401 967 405 947 405 931 c 0
 403 823 301 768 284 693 c 1
 284 567 337 449 378 304 c 0
 396 242 396 244 414 297 c 2
 688 1085 l 2
 708 1141 727 1162 743 1162 c 0
 755 1162 768 1145 796 1119 c 2
 854 1065 l 1
 880 1045 906 1014 906 996 c 0
 906 946 894 802 893 794 c 0
 892 785 876 773 862 772 c 1
 860 772 l 2
 831 772 783 861 754 861 c 0
 734 861 715 845 696 801 c 2
 488 313 l 2
 487 313 469 255 469 237 c 0
 469 226 473 224 482 224 c 0
 496 224 521 230 550 236 c 2
 899 310 l 1
 985 334 993 338 1026 428 c 2
 1145 748 l 2
 1159 785 1166 809 1166 825 c 1
 1164 842 1159 862 1140 881 c 10
 1119 901 l 18
 1087 935 1080 940 1080 989 c 10
 1080 1103 l 18
 1080 1145 1085 1162 1104 1191 c 1
 1111 1201 1115 1205 1118 1205 c 0
 1126 1205 1125 1176 1152 1151 c 10
 1342 976 l 18
 1364 956 1365 925 1365 909 c 1
EndSplineSet
Validated: 1
MultipleSubs2: "Addhairspacebeforeletter subtable" hairspace shin
MultipleSubs2: "Addthinspacebeforeletter subtable" thinspace shin
MultipleSubs2: "AddHairspaceAfterMark subtable" shin hairspace
MultipleSubs2: "AddThinspaceAfterMark subtable" shin thinspace
EndChar

StartChar: tav
Encoding: 181 1514 122
Width: 1319
GlyphClass: 2
Flags: W
HStem: -8 18G<84 100.5 1120.5 1136.5> 901 225<453.607 1041.67>
VStem: 289 187<243.405 417.766> 289 98<417.766 785.508> 1109 86<-1.04837 255.446>
AnchorPoint: "m2b-3" 710 0 basechar 0
AnchorPoint: "m2b-v2r" 728 0 basechar 0
AnchorPoint: "VbWM" 640 0 basechar 0
AnchorPoint: "VbNM" 696 0 basechar 0
AnchorPoint: "m2b-10" -330 0 basechar 0
AnchorPoint: "m2b-7c" -220 0 basechar 0
AnchorPoint: "m2b-7b" 312 0 basechar 0
AnchorPoint: "m2b-9" 842 0 basechar 0
AnchorPoint: "m2b-5b" 676 0 basechar 0
AnchorPoint: "m2b-5a" 728 0 basechar 0
AnchorPoint: "m2b-8c" 997 0 basechar 0
AnchorPoint: "m2b-8b" 200 0 basechar 0
AnchorPoint: "m2b-8a" 692 0 basechar 0
AnchorPoint: "m2b-7a" 292 0 basechar 0
AnchorPoint: "m2b-4d" 728 0 basechar 0
AnchorPoint: "m2b-4c" 728 0 basechar 0
AnchorPoint: "m2b-4b" 728 0 basechar 0
AnchorPoint: "m2b-4a" 728 0 basechar 0
AnchorPoint: "m2b-1" 726 0 basechar 0
LayerCount: 2
Fore
SplineSet
289 628 m 1xd8
 289 641 l 2
 289 696 307 734 365 853 c 1
 365 902 260 904 260 951 c 2
 260 1079 l 2
 260 1149 279 1187 292 1187 c 0
 301 1187 331 1126 429 1126 c 2
 997 1126 l 1
 1146 1126 1174 1085 1177 918 c 2
 1195 45 l 1
 1188 22 1147 -11 1126 -11 c 0
 1115 -11 1109 -3 1109 6 c 2
 1069 702 l 1
 1055 835 1062 901 938 901 c 0
 821 901 704 901 587 901 c 0
 496 901 477 897 429 822 c 0
 398 774 387 752 387 721 c 1xd8
 387 721 411 455 473 244 c 0
 476 232 476 220 476 210 c 0xe8
 476 156 441 89 371 67 c 2
 219 19 l 2
 204 14 105 -8 96 -8 c 0
 72 -8 69 1 69 36 c 2
 69 54 l 1
 69 141 l 1
 69 270 302 158 302 353 c 0
 302 374 290 606 289 628 c 1xd8
EndSplineSet
Validated: 1
MultipleSubs2: "Addhairspacebeforeletter subtable" hairspace tav
MultipleSubs2: "Addthinspacebeforeletter subtable" thinspace tav
MultipleSubs2: "AddHairspaceAfterMark subtable" tav hairspace
MultipleSubs2: "AddThinspaceAfterMark subtable" tav thinspace
Substitution2: "jaltWideLetterAlternativesinHeb subtable" tav.wide
EndChar

StartChar: geresh
Encoding: 185 1523 126
Width: 460
VWidth: 2458
GlyphClass: 2
Flags: W
HStem: 803 432
VStem: 203 157<1031.91 1232.94>
LayerCount: 2
Fore
SplineSet
108 849 m 0
 156 946 178 1061 203 1173 c 1
 223 1231 243 1235 266 1235 c 2
 335 1235 l 18
 354 1235 360 1212 360 1187 c 0
 360 1048 250 922 169 840 c 0
 141 813 123 803 112 803 c 0
 103 803 100 810 100 819 c 0
 100 828 103 838 108 849 c 0
EndSplineSet
Validated: 1
EndChar

StartChar: gershayim
Encoding: 186 1524 127
Width: 695
VWidth: 2458
GlyphClass: 2
Flags: W
HStem: 803 432<338 354>
VStem: 203 157<1031.91 1232.94> 438 157<1029.91 1230.94>
LayerCount: 2
Fore
SplineSet
343 847 m 0
 391 944 413 1059 438 1171 c 1
 458 1229 478 1233 501 1233 c 2
 570 1233 l 18
 589 1233 595 1210 595 1185 c 0
 595 1046 485 920 404 838 c 0
 376 811 358 803 347 803 c 0
 338 803 335 808 335 817 c 0
 335 826 338 836 343 847 c 0
108 849 m 0
 156 946 178 1061 203 1173 c 1
 223 1231 243 1235 266 1235 c 2
 335 1235 l 18
 354 1235 360 1212 360 1187 c 0
 360 1048 250 922 169 840 c 0
 141 813 123 803 112 803 c 0
 103 803 100 810 100 819 c 0
 100 828 103 838 108 849 c 0
EndSplineSet
Validated: 1
EndChar

StartChar: zerononjoin
Encoding: 189 8204 130
Width: 0
GlyphClass: 2
Flags: W
HStem: 1613 281
VStem: -141 281
LayerCount: 2
Fore
SplineSet
-108 1894 m 1
 0 1786 l 1
 106 1893 l 1
 140 1860 l 1
 33 1753 l 1
 140 1646 l 1
 106 1613 l 1
 0 1719 l 1
 -108 1613 l 1
 -141 1646 l 1
 -34 1753 l 1
 -141 1860 l 1
 -108 1894 l 1
EndSplineSet
Validated: 1
EndChar

StartChar: zerojoin
Encoding: 190 8205 131
Width: 0
GlyphClass: 2
Flags: W
HStem: 1637 140<-203 -156 157 204> 1730 47<-156 157>
VStem: -203 47<1637 1730> 157 47<1637 1730>
LayerCount: 2
Fore
SplineSet
157 1637 m 1xb0
 157 1730 l 1
 -156 1730 l 1x70
 -156 1637 l 1
 -203 1637 l 1
 -203 1777 l 1
 204 1777 l 1
 204 1637 l 1
 157 1637 l 1xb0
EndSplineSet
Validated: 1
EndChar

StartChar: lrm
Encoding: 191 8206 132
Width: 0
GlyphClass: 2
Flags: W
HStem: 1730 47<-154 104>
VStem: -154 349
LayerCount: 2
Fore
SplineSet
21 1860 m 1
 54 1894 l 1
 195 1753 l 1
 54 1612 l 1
 21 1646 l 1
 105 1730 l 1
 -154 1730 l 1
 -154 1777 l 1
 104 1777 l 1
 21 1860 l 1
EndSplineSet
Validated: 1
EndChar

StartChar: rlm
Encoding: 192 8207 133
Width: 0
GlyphClass: 2
Flags: W
HStem: 1730 47<-103 155>
VStem: -194 349
LayerCount: 2
Fore
SplineSet
-20 1647 m 1
 -53 1613 l 1
 -194 1754 l 1
 -53 1895 l 1
 -20 1861 l 1
 -104 1777 l 1
 155 1777 l 1
 155 1730 l 1
 -103 1730 l 1
 -20 1647 l 1
EndSplineSet
Validated: 1
EndChar

StartChar: newshekel
Encoding: 199 8362 140
Width: 1298
VWidth: 2458
GlyphClass: 2
Flags: W
HStem: -8 175<514 616.166> 767 159<324.034 657.554>
VStem: 180 134<37.3457 156> 233 81<345.743 761.443> 459 23<386 449> 928 190<675.388 786.547>
LayerCount: 2
Fore
SplineSet
253 22 m 0xec
 244 22 185 54 180 102 c 0
 180 110 180 118 180 131 c 1xec
 184 156 l 1
 184 156 233 708 233 756 c 2
 233 762 l 1xdc
 182 779 180 797 180 827 c 0
 180 829 180 832 180 834 c 2
 180 895 l 2xec
 180 942 191 967 200 967 c 0
 207 967 228 926 296 926 c 2
 686 926 l 2
 754 926 775 967 781 967 c 0
 790 967 804 942 804 895 c 2
 804 834 l 2
 804 800 804 780 749 762 c 1
 749 754 l 2
 749 705 796 362 796 362 c 1
 799 337 l 2
 801 324 800 316 800 308 c 0
 800 264 738 228 727 228 c 0
 714 228 702 263 702 344 c 9
 668 674 l 17
 653 762 644 767 572 767 c 2
 410 767 l 2
 338 767 328 762 314 674 c 9xdc
 314 138 l 18
 314 57 266 22 253 22 c 0xec
528 223 m 24
 545 192 594 167 600 167 c 0
 610 167 628 172 648 176 c 2
 866 220 l 1
 920 238 917 298 928 372 c 2
 964 606 l 2
 968 633 978 649 978 660 c 0
 978 687 928 700 928 770 c 2
 928 845 l 2
 928 894 940 908 948 908 c 0
 954 908 973 908 995 875 c 2
 1021 836 l 1
 1063 785 1118 769 1118 719 c 2
 1118 716 l 1
 1104 679 1061 651 1029 493 c 1
 985 168 l 2
 976 100 948 91 865 71 c 2
 561 -3 l 1
 538 -7 524 -8 514 -8 c 0
 479 -8 478 22 464 101 c 2
 435 266 l 2
 429 304 425 326 425 344 c 0
 425 389 459 411 459 449 c 0
 459 513 358 506 358 598 c 2
 358 689 l 2
 358 738 369 752 378 752 c 0
 384 752 402 752 425 719 c 2
 451 680 l 1
 493 628 568 600 568 547 c 0
 568 491 494 438 482 386 c 1
 482 298 497 281 528 223 c 24
EndSplineSet
Validated: 1
EndChar

StartChar: dottedcircle
Encoding: 201 9676 141
Width: 1244
GlyphClass: 2
Flags: W
HStem: -12 143<554.435 690.555> 48 143<320.435 456.555 788.435 924.555> 222 143<146.435 282.555 962.435 1098.55> 456 143<86.4348 222.555 1022.43 1158.55> 690 143<146.435 282.555 962.435 1098.55> 864 143<320.435 456.555 788.435 924.555> 924 143<554.435 690.555>
VStem: 83 143<459.435 595.555> 143 143<225.435 361.555 693.435 829.555> 317 143<51.4348 187.555 867.435 1003.55> 551 143<-8.56516 127.555 927.435 1063.55> 785 143<51.4348 187.555 867.435 1003.55> 959 143<225.435 361.555 693.435 829.555> 1019 143<459.435 595.555>
AnchorPoint: "m2b-9" 772 0 basechar 0
AnchorPoint: "m2b-0" 622 0 basechar 0
AnchorPoint: "m2b-5b" 630 0 basechar 0
AnchorPoint: "m2b-5a" 622 0 basechar 0
AnchorPoint: "m2b-8c" 942 0 basechar 0
AnchorPoint: "m2b-8b" 150 0 basechar 0
AnchorPoint: "m2b-8a" 622 0 basechar 0
AnchorPoint: "m2b-7a" 177 0 basechar 0
AnchorPoint: "m2b-4d" 622 0 basechar 0
AnchorPoint: "m2b-4c" 622 0 basechar 0
AnchorPoint: "m2b-4b" 622 0 basechar 0
AnchorPoint: "m2b-4a" 622 0 basechar 0
AnchorPoint: "m2b-2" 600 0 basechar 0
AnchorPoint: "m2b-1" 635 0 basechar 0
LayerCount: 2
Fore
SplineSet
83 527 m 0x3970
 83 575 107 599 154 599 c 0
 202 599 226 575 226 527 c 0
 226 480 202 456 154 456 c 0
 107 456 83 480 83 527 c 0x3970
1019 527 m 0x3874
 1019 575 1043 599 1090 599 c 0
 1138 599 1162 575 1162 527 c 0
 1162 480 1138 456 1090 456 c 0
 1043 456 1019 480 1019 527 c 0x3874
551 995 m 0
 551 1043 575 1067 622 1067 c 0
 670 1067 694 1043 694 995 c 0
 694 948 670 924 622 924 c 0x3a70
 575 924 551 948 551 995 c 0
551 59 m 0
 551 107 575 131 622 131 c 0
 670 131 694 107 694 59 c 0
 694 12 670 -12 622 -12 c 0xb870
 575 -12 551 12 551 59 c 0
959 761 m 0x3878
 959 809 983 833 1030 833 c 0
 1078 833 1102 809 1102 761 c 0
 1102 714 1078 690 1030 690 c 0
 983 690 959 714 959 761 c 0x3878
959 293 m 0
 959 341 983 365 1030 365 c 0
 1078 365 1102 341 1102 293 c 0
 1102 246 1078 222 1030 222 c 0
 983 222 959 246 959 293 c 0
143 761 m 0x38f0
 143 809 167 833 214 833 c 0
 262 833 286 809 286 761 c 0
 286 714 262 690 214 690 c 0
 167 690 143 714 143 761 c 0x38f0
143 293 m 0
 143 341 167 365 214 365 c 0
 262 365 286 341 286 293 c 0
 286 246 262 222 214 222 c 0
 167 222 143 246 143 293 c 0
317 935 m 0
 317 983 341 1007 388 1007 c 0
 436 1007 460 983 460 935 c 0
 460 888 436 864 388 864 c 0x3c70
 341 864 317 888 317 935 c 0
785 935 m 0
 785 983 809 1007 856 1007 c 0
 904 1007 928 983 928 935 c 0
 928 888 904 864 856 864 c 0
 809 864 785 888 785 935 c 0
317 119 m 0
 317 167 341 191 388 191 c 0
 436 191 460 167 460 119 c 0
 460 72 436 48 388 48 c 0x7870
 341 48 317 72 317 119 c 0
785 119 m 0
 785 167 809 191 856 191 c 0
 904 191 928 167 928 119 c 0
 928 72 904 48 856 48 c 0
 809 48 785 72 785 119 c 0
EndSplineSet
Validated: 1
EndChar

StartChar: jsvarika
Encoding: 203 64286 142
Width: 0
GlyphClass: 4
Flags: W
HStem: 1228 116<-131.384 131.384>
VStem: -220 440<1307.82 1382>
AnchorPoint: "m2m-rafe" 0 200 basemark 0
AnchorPoint: "m2b-3" 0 0 mark 0
LayerCount: 2
Fore
SplineSet
0 1344 m 0
 55 1344 114 1366 178 1420 c 2
 199 1438 l 1
 208 1414 l 2
 214 1400 220 1382 220 1363 c 0
 220 1349 210 1340 202 1330 c 0
 137 1268 73 1228 0 1228 c 0
 -73 1228 -137 1268 -202 1330 c 0
 -210 1340 -220 1349 -220 1363 c 0
 -220 1382 -214 1400 -208 1414 c 2
 -199 1438 l 1
 -178 1420 l 2
 -114 1366 -55 1344 0 1344 c 0
EndSplineSet
Validated: 1
EndChar

StartChar: ayin.alt
Encoding: 205 64288 144
Width: 1050
GlyphClass: 2
Flags: W
VStem: 273 77<575.648 780.056> 838 141<782.875 842.953>
AnchorPoint: "m2b-v2r" 427 0 basechar 0
AnchorPoint: "HbWM" 470 0 basechar 0
AnchorPoint: "HbNM" 400 0 basechar 0
AnchorPoint: "VbWM" 500 0 basechar 0
AnchorPoint: "VbNM" 477 0 basechar 0
AnchorPoint: "m2b-10" -330 0 basechar 0
AnchorPoint: "m2b-7c" -220 0 basechar 0
AnchorPoint: "m2b-7b" 215 0 basechar 0
AnchorPoint: "m2b-pg" 843 0 basechar 0
AnchorPoint: "m2b-9" 650 0 basechar 0
AnchorPoint: "m2b-5b" 390 0 basechar 0
AnchorPoint: "m2b-5a" 426.537 0 basechar 0
AnchorPoint: "m2b-8c" 724 0 basechar 0
AnchorPoint: "m2b-8b" 80 0 basechar 0
AnchorPoint: "m2b-8a" 500 0 basechar 0
AnchorPoint: "m2b-7a" 195 0 basechar 0
AnchorPoint: "m2b-4d" 427 20 basechar 0
AnchorPoint: "m2b-4c" 427 0 basechar 0
AnchorPoint: "m2b-4b" 427 0 basechar 0
AnchorPoint: "m2b-4a" 426.537 0 basechar 0
AnchorPoint: "m2b-2" 556 68 basechar 0
AnchorPoint: "m2b-1" 456.537 0 basechar 0
LayerCount: 2
Fore
SplineSet
979 932 m 8
 979 820 897 736 880 663 c 2
 752 123 l 1
 728 41 734 30 512 8 c 2
 162 -27 l 2
 147 -29 117 -30 108 -30 c 0
 80 -30 80 -18 80 32 c 2
 80 134 l 2
 80 196 98 199 168 206 c 2
 331 222 l 1
 376 228 384 246 384 266 c 2
 384 270 l 2
 384 342 273 582 273 667 c 0
 273 732 308 761 308 781 c 1
 306 798 288 809 273 824 c 10
 227 873 l 18
 195 907 149 941 149 990 c 9
 157 1117 l 18
 163 1208 194 1219 195 1219 c 0
 203 1219 203 1191 229 1165 c 10
 419 981 l 18
 436 964 441 945 441 929 c 0
 441 856 350 744 350 692 c 2
 350 690 l 1
 352 623 466 411 492 357 c 0
 514 312 524 246 572 246 c 0
 574 246 577 247 580 247 c 8
 656 247 694 331 712 389 c 2
 838 785 l 1
 838 789 l 1
 837 810 818 818 803 833 c 10
 756 882 l 18
 724 916 678 950 678 999 c 9
 686 1126 l 18
 692 1217 723 1228 724 1228 c 0
 732 1228 732 1200 758 1174 c 10
 948 990 l 18
 965 973 979 948 979 932 c 8
EndSplineSet
Validated: 1
MultipleSubs2: "Addhairspacebeforeletter subtable" hairspace ayin.alt
MultipleSubs2: "Addthinspacebeforeletter subtable" thinspace ayin.alt
MultipleSubs2: "AddHairspaceAfterMark subtable" ayin.alt hairspace
MultipleSubs2: "AddThinspaceAfterMark subtable" ayin.alt thinspace
EndChar

StartChar: alef.wide
Encoding: 206 64289 145
Width: 1690
GlyphClass: 2
Flags: W
HStem: 0 228<276.293 486.598>
VStem: 178 98<228.708 614.6> 198 88<289.4 695.98>
AnchorPoint: "m2b-10" -330 0 basechar 0
AnchorPoint: "m2b-7c" -220 0 basechar 0
AnchorPoint: "m2b-7b" 183 0 basechar 0
AnchorPoint: "m2b-3" 800 0 basechar 0
AnchorPoint: "m2b-9" 950 0 basechar 0
AnchorPoint: "m2b-5b" 1050 0 basechar 0
AnchorPoint: "m2b-5a" 905 0 basechar 0
AnchorPoint: "m2b-8c" 1352 0 basechar 0
AnchorPoint: "m2b-8b" 100 0 basechar 0
AnchorPoint: "m2b-8a" 800 0 basechar 0
AnchorPoint: "m2b-7a" 163 0 basechar 0
AnchorPoint: "m2b-4d" 905 0 basechar 0
AnchorPoint: "m2b-4c" 905 0 basechar 0
AnchorPoint: "m2b-4b" 905 0 basechar 0
AnchorPoint: "m2b-4a" 905 0 basechar 0
AnchorPoint: "m2b-2" 925 -450 basechar 0
AnchorPoint: "m2b-1" 835 0 basechar 0
LayerCount: 2
Fore
SplineSet
276 295 m 2xc0
 276 291 276 287 276 283 c 0
 276 228 291 228 360 228 c 10
 424 228 l 2
 477 228 487 221 487 176 c 2
 487 72 l 2
 487 10 487 0 417 0 c 10
 242 0 l 18
 179 0 180 12 178 77 c 9xc0
 198 827 l 1
 174 843 135 862 129 954 c 1
 129 1150 l 2
 129 1178 158 1178 163 1174 c 0
 176 1163 309 1012 368 980 c 2
 1057 607 l 9
 1355 1111 l 18
 1366 1129 1378 1146 1395 1146 c 0
 1403 1146 1413 1142 1424 1131 c 10
 1515 1044 l 2
 1561 1001 1566 980 1567 954 c 0
 1567 945 1568 933 1567 919 c 2
 1567 852 l 2
 1562 792 1543 760 1514 760 c 0
 1501 760 1486 766 1467 778 c 2
 1402 822 l 1
 1378 841 1362 851 1348 851 c 0
 1333 851 1319 840 1301 819 c 9
 1172 641 l 17
 1159 619 1152 603 1152 588 c 0
 1152 566 1164 531 1191 507 c 1
 1521 327 l 2
 1568 301 1573 284 1573 265 c 0
 1573 260 1573 254 1573 249 c 0
 1573 239 1569 217 1569 204 c 2
 1569 36 l 2
 1569 8 1539 7 1534 11 c 1
 1087 261 l 1
 399 657 l 2
 358 679 330 696 315 696 c 0
 297 696 290 669 286 612 c 1xa0
 276 295 l 2xc0
EndSplineSet
Validated: 1
MultipleSubs2: "Addhairspacebeforeletter subtable" hairspace alef.wide
MultipleSubs2: "Addthinspacebeforeletter subtable" thinspace alef.wide
MultipleSubs2: "AddHairspaceAfterMark subtable" alef.wide hairspace
MultipleSubs2: "AddThinspaceAfterMark subtable" alef.wide thinspace
EndChar

StartChar: dalet.wide
Encoding: 207 64290 146
Width: 1674
GlyphClass: 2
Flags: W
HStem: 903 226<168.303 1346.81>
VStem: 1354 139<26.3496 461.08> 1354 106<558.919 894.974>
AnchorPoint: "m2b-v2left" 1400 0 basechar 0
AnchorPoint: "m2b-10" -330 0 basechar 0
AnchorPoint: "m2b-7c" -220 0 basechar 0
AnchorPoint: "m2b-7b" 171 0 basechar 0
AnchorPoint: "m2b-3" 838 0 basechar 0
AnchorPoint: "m2b-9" 1030 0 basechar 0
AnchorPoint: "m2b-5b" 1090 0 basechar 0
AnchorPoint: "m2b-5a" 1400 0 basechar 0
AnchorPoint: "m2b-8c" 1242 0 basechar 0
AnchorPoint: "m2b-8b" 100 0 basechar 0
AnchorPoint: "m2b-8a" 838.11 0 basechar 0
AnchorPoint: "m2b-7a" 151 0 basechar 0
AnchorPoint: "m2b-4d" 1280 0 basechar 0
AnchorPoint: "m2b-4c" 1297 0 basechar 0
AnchorPoint: "m2b-4b" 1400 0 basechar 0
AnchorPoint: "m2b-4a" 1400 0 basechar 0
AnchorPoint: "m2b-2" 768.11 0 basechar 0
AnchorPoint: "m2b-1" 838.11 0 basechar 0
LayerCount: 2
Fore
SplineSet
225 903 m 2xa0
 136 903 119 904 119 952 c 2
 119 1080 l 2
 119 1150 138 1188 151 1188 c 0
 160 1188 190 1129 288 1129 c 1
 1394 1124 l 1
 1492 1124 1522 1183 1531 1183 c 0
 1544 1183 1563 1147 1563 1080 c 0
 1563 1078 1563 1077 1563 1075 c 2
 1562 993 l 2
 1561 945 1538 914 1460 889 c 1
 1460 883 l 1xa0
 1493 137 l 1
 1493 116 l 2
 1493 67 1488 59 1446 23 c 1
 1410 -12 1388 -32 1375 -32 c 0
 1356 -32 1355 13 1354 126 c 9xc0
 1354 763 l 17
 1351 898 1351 900 1227 900 c 2
 225 903 l 2xa0
EndSplineSet
Validated: 1
MultipleSubs2: "Addhairspacebeforeletter subtable" hairspace dalet.wide
MultipleSubs2: "Addthinspacebeforeletter subtable" thinspace dalet.wide
MultipleSubs2: "AddHairspaceAfterMark subtable" dalet.wide hairspace
MultipleSubs2: "AddThinspaceAfterMark subtable" dalet.wide thinspace
EndChar

StartChar: he.wide
Encoding: 208 64291 147
Width: 1776
GlyphClass: 2
Flags: W
HStem: 902 285<143.697 229.835 1580.25 1650.27> 908 223<183.769 1467.7>
VStem: 160 133<31.885 602.665> 1474 139<34.3496 623.271> 1474 106<458.007 903.878>
AnchorPoint: "m2b-10" -330 0 basechar 0
AnchorPoint: "m2b-7c" -220 0 basechar 0
AnchorPoint: "m2b-7b" 200 0 basechar 0
AnchorPoint: "m2b-pg" 1626 0 basechar 0
AnchorPoint: "m2b-3" 880 0 basechar 0
AnchorPoint: "m2b-9" 943 0 basechar 0
AnchorPoint: "m2b-5b" 1171 0 basechar 0
AnchorPoint: "m2b-5a" 907 0 basechar 0
AnchorPoint: "m2b-8c" 1420 0 basechar 0
AnchorPoint: "m2b-8b" 100 0 basechar 0
AnchorPoint: "m2b-8a" 880 0 basechar 0
AnchorPoint: "m2b-7a" 169 0 basechar 0
AnchorPoint: "m2b-4d" 907.106 0 basechar 0
AnchorPoint: "m2b-4c" 907.106 0 basechar 0
AnchorPoint: "m2b-4b" 907.106 0 basechar 0
AnchorPoint: "m2b-4a" 907.106 0 basechar 0
AnchorPoint: "m2b-2" 907.106 0 basechar 0
AnchorPoint: "m2b-1" 927.106 0 basechar 0
LayerCount: 2
Fore
SplineSet
243 902 m 2xa8
 154 902 137 903 137 951 c 2
 137 1079 l 2
 137 1149 156 1187 169 1187 c 0xa8
 178 1187 208 1128 306 1128 c 1
 1489 1131 l 1
 1587 1131 1617 1190 1626 1190 c 0
 1639 1190 1658 1154 1658 1087 c 0
 1658 1085 1658 1084 1658 1082 c 2
 1657 1000 l 2
 1656 952 1658 922 1580 897 c 1
 1580 889 l 2x68
 1580 820 1613 145 1613 145 c 1
 1613 124 l 2
 1613 75 1608 67 1566 31 c 1
 1530 -4 1508 -24 1495 -24 c 0
 1476 -24 1475 21 1474 134 c 9x70
 1474 771 l 17
 1471 898 1471 908 1369 908 c 0
 1362 908 1355 908 1347 908 c 2x68
 243 902 l 2xa8
160 130 m 9
 160 513 l 2
 160 562 168 564 206 606 c 1
 239 642 251 658 263 658 c 0
 281 658 283 613 283 500 c 10
 293 120 l 1
 293 71 284 63 244 27 c 1
 210 -8 189 -28 177 -28 c 0
 161 -28 160 8 160 98 c 0
 160 108 160 119 160 130 c 9
EndSplineSet
Validated: 1
MultipleSubs2: "Addhairspacebeforeletter subtable" hairspace he.wide
MultipleSubs2: "Addthinspacebeforeletter subtable" thinspace he.wide
MultipleSubs2: "AddHairspaceAfterMark subtable" he.wide hairspace
MultipleSubs2: "AddThinspaceAfterMark subtable" he.wide thinspace
EndChar

StartChar: kaf.wide
Encoding: 209 64292 148
Width: 1533
GlyphClass: 2
Flags: W
VStem: 1355 107<319.259 634.637>
AnchorPoint: "m2b-10" -330 0 basechar 0
AnchorPoint: "m2b-7c" -220 0 basechar 0
AnchorPoint: "m2b-7b" 200 0 basechar 0
AnchorPoint: "m2b-3" 793 0 basechar 0
AnchorPoint: "m2b-9" 1024 0 basechar 0
AnchorPoint: "m2b-5b" 900 0 basechar 0
AnchorPoint: "m2b-5a" 753 0 basechar 0
AnchorPoint: "m2b-8c" 1174 0 basechar 0
AnchorPoint: "m2b-8b" 100 0 basechar 0
AnchorPoint: "m2b-8a" 793 0 basechar 0
AnchorPoint: "m2b-7a" 180 0 basechar 0
AnchorPoint: "m2b-4d" 753 0 basechar 0
AnchorPoint: "m2b-4c" 753 0 basechar 0
AnchorPoint: "m2b-4b" 753 0 basechar 0
AnchorPoint: "m2b-4a" 753 0 basechar 0
AnchorPoint: "m2b-2" 773 0 basechar 0
AnchorPoint: "m2b-1" 793 0 basechar 0
LayerCount: 2
Fore
SplineSet
1125 811 m 9
 254 902 l 2
 165 911 148 909 148 950 c 2
 148 1078 l 2
 148 1148 168 1186 180 1186 c 0
 190 1186 218 1136 316 1126 c 1
 1204 1032 l 1
 1329 1018 1418 1012 1438 780 c 9
 1462 419 l 17
 1462 414 1462 409 1462 404 c 0
 1462 274 1363 83 1249 73 c 9
 153 -32 l 18
 138 -33 110 -36 102 -38 c 0
 100 -38 98 -38 96 -38 c 0
 79 -38 71 -29 71 -5 c 0
 71 3 72 12 74 24 c 2
 88 129 l 2
 97 190 88 194 158 201 c 10
 1231 303 l 17
 1327 311 1355 313 1355 392 c 0
 1355 421 1351 459 1346 512 c 9
 1313 671 l 17
 1276 788 1267 795 1125 811 c 9
EndSplineSet
Validated: 1
MultipleSubs2: "Addhairspacebeforeletter subtable" hairspace kaf.wide
MultipleSubs2: "Addthinspacebeforeletter subtable" thinspace kaf.wide
MultipleSubs2: "AddHairspaceAfterMark subtable" kaf.wide hairspace
MultipleSubs2: "AddThinspaceAfterMark subtable" kaf.wide thinspace
EndChar

StartChar: lamed.wide
Encoding: 210 64293 149
Width: 1668
GlyphClass: 2
Flags: W
HStem: 904 224<223.56 1430.6>
VStem: 13 204<1668.38 1830.53> 130 86<1187.8 1650.03> 150 73<1131.51 1420.2> 775 232<56.9828 155.632> 1473 134<644 883.23>
AnchorPoint: "m2b-10" -330 0 basechar 0
AnchorPoint: "m2b-7c" -220 0 basechar 0
AnchorPoint: "m2b-9" 1076 -22 basechar 0
AnchorPoint: "m2b-5b" 1004 0 basechar 0
AnchorPoint: "m2b-5a" 830 0 basechar 0
AnchorPoint: "m2b-8c" 1283 0 basechar 0
AnchorPoint: "m2b-8b" -160 0 basechar 0
AnchorPoint: "m2b-8a" 874 0 basechar 0
AnchorPoint: "m2b-7a" -20 0 basechar 0
AnchorPoint: "m2b-4d" 710 0 basechar 0
AnchorPoint: "m2b-4c" 830 0 basechar 0
AnchorPoint: "m2b-4b" 830 0 basechar 0
AnchorPoint: "m2b-4a" 830 0 basechar 0
AnchorPoint: "m2b-2" 790 0 basechar 0
AnchorPoint: "m2b-1" 860 0 basechar 0
LayerCount: 2
Fore
SplineSet
796 -78 m 17x9c
 786 -78 775 -7 775 6 c 0
 775 49 788 137 838 174 c 2
 1473 644 l 1
 1473 651 l 2
 1473 762 1463 827 1431 886 c 0
 1423 901 1382 904 1336 904 c 2
 264 904 l 2
 190 904 154 925 150 1036 c 2x9c
 130 1572 l 1xac
 130 1602 102 1647 68 1663 c 0
 26 1682 13 1702 13 1732 c 2
 13 1824 l 2
 13 1894 38 1955 50 1956 c 1
 68 1956 76 1948 102 1909 c 0
 134 1861 140 1871 176 1828 c 1
 176 1828 217 1787 217 1752 c 0xcc
 217 1749 216 1747 216 1744 c 2xac
 223 1176 l 2
 223 1129 258 1128 318 1128 c 2
 1411 1128 l 2
 1524 1128 1534 1092 1546 1018 c 2
 1600 687 l 2
 1603 665 1607 619 1607 606 c 2
 1607 602 l 2
 1607 512 1374 391 1299 342 c 1
 1031 175 l 2
 1008 161 1007 129 1007 107 c 0
 1007 81 887 2 871 -12 c 10
 796 -78 l 17x9c
EndSplineSet
Validated: 1
MultipleSubs2: "Addhairspacebeforeletter subtable" hairspace lamed.wide
MultipleSubs2: "Addthinspacebeforeletter subtable" thinspace lamed.wide
MultipleSubs2: "AddHairspaceAfterMark subtable" lamed.wide hairspace
MultipleSubs2: "AddThinspaceAfterMark subtable" lamed.wide thinspace
EndChar

StartChar: finalmem.wide
Encoding: 211 64294 150
Width: 1767
GlyphClass: 2
Flags: W
HStem: 0 226<292.796 1537.3> 901 228<183.046 239 333.324 1507.12>
VStem: 165 91<254.512 799.969> 1548 100<229.41 374.375 391.438 862.764>
AnchorPoint: "m2b-7b" 185 0 basechar 0
AnchorPoint: "m2b-9" 1076 0 basechar 0
AnchorPoint: "m2b-5b" 1076 0 basechar 0
AnchorPoint: "m2b-5a" 904 0 basechar 0
AnchorPoint: "m2b-8c" 1420 0 basechar 0
AnchorPoint: "m2b-8b" 100 -7 basechar 0
AnchorPoint: "m2b-8a" 926 0 basechar 0
AnchorPoint: "m2b-7a" 165 0 basechar 0
AnchorPoint: "m2b-4d" 904 0 basechar 0
AnchorPoint: "m2b-4c" 904 0 basechar 0
AnchorPoint: "m2b-4b" 904 0 basechar 0
AnchorPoint: "m2b-4a" 904 0 basechar 0
AnchorPoint: "m2b-2" 904 0 basechar 0
AnchorPoint: "m2b-1" 904 0 basechar 0
LayerCount: 2
Fore
SplineSet
1548 398 m 2
 1534 738 l 1
 1522 846 1522 897 1391 897 c 1
 398 901 l 1
 280 842 256 757 256 646 c 0
 256 561 269 462 276 354 c 0
 284 230 328 226 367 226 c 2
 1445 222 l 2
 1527 222 1548 243 1548 356 c 0
 1548 370 1549 384 1548 398 c 2
239 901 m 0
 233 901 228 901 222 901 c 0
 172 901 133 909 133 952 c 2
 133 1080 l 2
 133 1150 152 1188 165 1188 c 0
 174 1188 204 1129 302 1129 c 2
 1551 1124 l 2
 1596 1124 1648 1043 1648 897 c 2
 1648 894 l 1
 1636 214 l 1
 1630 83 1540 -4 1411 -4 c 2
 258 0 l 1
 203 5 165 5 165 125 c 2
 165 694 l 1
 167 755 260 871 260 886 c 1
 258 902 239 902 239 901 c 0
EndSplineSet
Validated: 1
MultipleSubs2: "Addhairspacebeforeletter subtable" hairspace finalmem.wide
MultipleSubs2: "Addthinspacebeforeletter subtable" thinspace finalmem.wide
MultipleSubs2: "AddHairspaceAfterMark subtable" finalmem.wide hairspace
MultipleSubs2: "AddThinspaceAfterMark subtable" finalmem.wide thinspace
EndChar

StartChar: resh.wide
Encoding: 212 64295 151
Width: 1749
GlyphClass: 2
Flags: W
VStem: 1497 122<125.862 773.682> 1524 89<8.63037 425.415>
AnchorPoint: "m2b-v2left" 1550 0 basechar 0
AnchorPoint: "m2b-10" -330 0 basechar 0
AnchorPoint: "m2b-7c" -220 0 basechar 0
AnchorPoint: "m2b-7b" 168 0 basechar 0
AnchorPoint: "m2b-9" 1029 0 basechar 0
AnchorPoint: "m2b-5b" 1290 0 basechar 0
AnchorPoint: "m2b-5a" 1550 0 basechar 0
AnchorPoint: "m2b-8c" 1406 0 basechar 0
AnchorPoint: "m2b-8b" 100 0 basechar 0
AnchorPoint: "m2b-8a" 878.893 0 basechar 0
AnchorPoint: "m2b-7a" 148 0 basechar 0
AnchorPoint: "m2b-4d" 1450 0 basechar 0
AnchorPoint: "m2b-4c" 1462 0 basechar 0
AnchorPoint: "m2b-4b" 1550 0 basechar 0
AnchorPoint: "m2b-4a" 1550 0 basechar 0
AnchorPoint: "m2b-2" 858.893 0 basechar 0
AnchorPoint: "m2b-1" 878.893 0 basechar 0
LayerCount: 2
Fore
SplineSet
1613 81 m 2x40
 1613 70 l 2
 1613 49 1563 -5 1536 -12 c 0
 1525 -14 1525 -13 1524 0 c 0x40
 1500 218 1505 371 1497 586 c 0
 1491 755 1480 793 1338 809 c 9
 222 910 l 2
 133 918 116 917 116 958 c 2
 116 1086 l 2
 116 1156 136 1194 148 1194 c 0
 158 1194 186 1145 284 1134 c 1
 1373 1035 l 1
 1589 1012 1619 997 1619 815 c 0
 1619 809 1619 803 1619 796 c 2x80
 1619 796 1613 229 1613 81 c 2x40
EndSplineSet
Validated: 1
MultipleSubs2: "Addhairspacebeforeletter subtable" hairspace resh.wide
MultipleSubs2: "Addthinspacebeforeletter subtable" thinspace resh.wide
MultipleSubs2: "AddHairspaceAfterMark subtable" resh.wide hairspace
MultipleSubs2: "AddThinspaceAfterMark subtable" resh.wide thinspace
EndChar

StartChar: tav.wide
Encoding: 213 64296 152
Width: 1853
GlyphClass: 2
Flags: W
HStem: -8 21G<84 100.5 1654.5 1670.5> 903 225<455.507 1575.67>
VStem: 289 187<243.405 417.766> 289 98<417.766 785.508> 1643 86<1.70312 257.446>
AnchorPoint: "m2b-10" -330 0 basechar 0
AnchorPoint: "m2b-7c" -220 0 basechar 0
AnchorPoint: "m2b-7b" 312 0 basechar 0
AnchorPoint: "m2b-3" 972 0 basechar 0
AnchorPoint: "m2b-9" 1122 0 basechar 0
AnchorPoint: "m2b-5b" 1189 0 basechar 0
AnchorPoint: "m2b-5a" 990 0 basechar 0
AnchorPoint: "m2b-8c" 1516 0 basechar 0
AnchorPoint: "m2b-8b" 200 0 basechar 0
AnchorPoint: "m2b-8a" 972 0 basechar 0
AnchorPoint: "m2b-7a" 292 0 basechar 0
AnchorPoint: "m2b-4d" 990 0 basechar 0
AnchorPoint: "m2b-4c" 1000 0 basechar 0
AnchorPoint: "m2b-4b" 990 0 basechar 0
AnchorPoint: "m2b-4a" 990 0 basechar 0
AnchorPoint: "m2b-2" 982 0 basechar 0
AnchorPoint: "m2b-1" 972 0 basechar 0
LayerCount: 2
Fore
SplineSet
289 628 m 1xd8
 289 641 l 2
 289 696 307 734 365 853 c 1
 364 902 260 904 260 951 c 2
 260 1079 l 2
 260 1149 279 1187 292 1187 c 0
 301 1187 331 1128 429 1128 c 2
 1531 1128 l 2
 1680 1127 1708 1087 1711 920 c 2
 1729 47 l 1
 1722 24 1681 -8 1660 -8 c 0
 1649 -8 1643 -1 1643 8 c 2
 1603 704 l 1
 1589 837 1596 903 1472 903 c 0
 1355 903 704 903 587 903 c 0
 496 903 477 897 429 822 c 0
 398 774 387 752 387 721 c 1xd8
 387 721 411 455 473 244 c 0
 476 232 476 220 476 210 c 0xe8
 476 156 441 89 371 67 c 2
 219 19 l 2
 204 14 105 -8 96 -8 c 0
 72 -8 68 1 68 36 c 2
 68 54 l 1
 69 141 l 1
 72 270 302 158 302 353 c 0
 302 374 290 606 289 628 c 1xd8
EndSplineSet
Validated: 1
MultipleSubs2: "Addhairspacebeforeletter subtable" hairspace tav.wide
MultipleSubs2: "Addthinspacebeforeletter subtable" thinspace tav.wide
MultipleSubs2: "AddHairspaceAfterMark subtable" tav.wide hairspace
MultipleSubs2: "AddThinspaceAfterMark subtable" tav.wide thinspace
EndChar

StartChar: hebrewplussign
Encoding: 214 64297 153
Width: 1156
VWidth: 1998
GlyphClass: 2
Flags: W
HStem: 427 119<115 540 672 1095>
VStem: 540 132<546 959>
LayerCount: 2
Fore
SplineSet
1095 546 m 1
 1095 427 l 1
 115 427 l 1
 115 546 l 1
 540 546 l 1
 540 959 l 1
 672 959 l 1
 672 546 l 1
 1095 546 l 1
EndSplineSet
Validated: 1
EndChar

StartChar: aleflamed
Encoding: 247 64335 185
Width: 1208
GlyphClass: 3
Flags: W
VStem: 125 91<1063.35 1656.14>
AnchorPoint: "m2b-1" 600 0 basechar 0
AnchorPoint: "m2b-8c" 976 0 basechar 0
AnchorPoint: "m2b-8b" -100 0 basechar 0
AnchorPoint: "m2b-8a" 584 0 basechar 0
AnchorPoint: "m2b-7a" -20 0 basechar 0
AnchorPoint: "m2b-4d" 580 0 basechar 0
AnchorPoint: "m2b-4c" 580 0 basechar 0
AnchorPoint: "m2b-4b" 580 0 basechar 0
AnchorPoint: "m2b-4a" 674 0 basechar 0
LayerCount: 2
Fore
SplineSet
222 1771 m 0
 217 1272 l 1
 217 1250 216 1232 216 1215 c 0
 216 1093 234 1087 347 980 c 2
 632 708 l 9
 878 1133 l 18
 889 1151 901 1168 918 1168 c 0
 926 1168 936 1164 947 1153 c 10
 1038 1066 l 2
 1084 1023 1089 1002 1090 976 c 0
 1090 967 1091 955 1090 941 c 2
 1090 874 l 2
 1085 814 1066 782 1037 782 c 0
 1024 782 1009 788 990 800 c 2
 925 844 l 1
 901 863 885 873 871 873 c 0
 856 873 842 862 824 841 c 9
 732 709 l 17
 719 687 712 671 712 656 c 0
 712 634 726 617 753 593 c 1
 1010 347 l 2
 1057 303 1063 282 1063 256 c 0
 1063 246 1062 235 1062 222 c 2
 1062 25 l 2
 1062 -3 1032 -4 1027 0 c 0
 1015 11 890 134 841 181 c 2
 207 800 l 2
 186 820 125 876 125 938 c 2
 125 1581 l 1
 123 1598 118 1618 99 1637 c 10
 52 1686 l 18
 20 1720 13 1725 13 1774 c 10
 13 1888 l 18
 13 1930 18 1947 37 1976 c 1
 44 1986 48 1990 51 1990 c 0
 59 1990 59 1962 85 1936 c 10
 200 1823 l 18
 217 1806 222 1787 222 1771 c 0
EndSplineSet
Validated: 1
MultipleSubs2: "Addhairspacebeforeletter subtable" hairspace aleflamed
MultipleSubs2: "Addthinspacebeforeletter subtable" thinspace aleflamed
Ligature2: "B6ccmpAlefLamedLigature subtable" alef zerojoin lamed
LCarets2: 2 4 0 
EndChar

StartChar: hatafsegol_meteg
Encoding: 248 -1 186
Width: 0
GlyphClass: 4
Flags: W
HStem: -533 157<-227.075 -106.415 219.925 340.585> -289 157<-340.585 -219.925 -114.075 7.09705 219.925 340.585>
VStem: -347 133<-284.696 -136.106> -233 133<-528.894 -380.304> -120 133<-284.886 -136.293> 60 90<-517.999 -144.001> 214 133<-528.894 -380.304 -284.886 -136.293>
AnchorPoint: "m2m-6d" 427 0.700012 basemark 0
AnchorPoint: "m2m-1" -430 0 basemark 0
AnchorPoint: "m2b-4d" -1.76758 0 mark 0
LayerCount: 2
Fore
SplineSet
150 -470 m 2xc6
 150 -476 l 0
 150 -518 149 -518 105 -518 c 0
 61 -518 60 -517 60 -467 c 2
 60 -195 l 2
 60 -145 61 -144 105 -144 c 0
 149 -144 150 -144 150 -192 c 2
 150 -470 l 2xc6
281 -533 m 256
 240 -533 214 -498 214 -455 c 256
 214 -407 243 -376 281 -376 c 256
 319 -376 347 -411 347 -455 c 256
 347 -502 318 -533 281 -533 c 256
281 -289 m 256
 240 -289 214 -254 214 -210 c 256
 214 -163 243 -132 281 -132 c 256
 319 -132 347 -167 347 -210 c 256
 347 -258 318 -289 281 -289 c 256
-53 -132 m 256
 -13 -132 13 -167 13 -210 c 256
 13 -258 -16 -289 -53 -289 c 256
 -94 -289 -120 -254 -120 -210 c 256xce
 -120 -163 -90 -132 -53 -132 c 256
-166 -376 m 256
 -128 -376 -100 -411 -100 -455 c 256
 -100 -502 -129 -533 -166 -533 c 256
 -207 -533 -233 -498 -233 -455 c 256xd6
 -233 -407 -204 -376 -166 -376 c 256
-281 -132 m 256
 -240 -132 -214 -167 -214 -210 c 256
 -214 -258 -243 -289 -281 -289 c 256
 -319 -289 -347 -254 -347 -210 c 256xe6
 -347 -163 -318 -132 -281 -132 c 256
EndSplineSet
Validated: 1
MultipleSubs2: "AddHairspaceAfterMark subtable" hatafsegol_meteg hairspace
MultipleSubs2: "AddThinspaceAfterMark subtable" hatafsegol_meteg thinspace
Ligature2: "B1ccmpHatafMeteg subtable" hatafsegol zerojoin meteg
LCarets2: 2 0 0 
EndChar

StartChar: hatafpatah_meteg
Encoding: 249 -1 187
Width: 0
GlyphClass: 4
Flags: W
HStem: -533 157<219.925 340.585> -289 157<219.925 340.585> -244 112<-346.959 12.9588>
VStem: 60 90<-517.999 -144.001> 214 133<-528.894 -380.304 -284.886 -136.293>
AnchorPoint: "m2m-6d" 427 0.700012 basemark 0
AnchorPoint: "m2m-1" -430 0 basemark 0
AnchorPoint: "m2b-4d" -2.33691 0.799805 mark 0
LayerCount: 2
Fore
SplineSet
-299 -244 m 2xb8
 -347 -244 -347 -244 -347 -185 c 0
 -347 -133 -346 -132 -296 -132 c 2
 -38 -132 l 2
 12 -132 13 -133 13 -185 c 0
 13 -244 13 -244 -35 -244 c 2
 -299 -244 l 2xb8
150 -470 m 2
 150 -476 l 0
 150 -518 149 -518 105 -518 c 0
 61 -518 60 -517 60 -467 c 2
 60 -195 l 2
 60 -145 61 -144 105 -144 c 0
 149 -144 150 -144 150 -192 c 2
 150 -470 l 2
281 -533 m 256
 240 -533 214 -498 214 -455 c 256
 214 -407 243 -376 281 -376 c 256
 319 -376 347 -411 347 -455 c 256
 347 -502 318 -533 281 -533 c 256
281 -289 m 256xd8
 240 -289 214 -254 214 -210 c 256
 214 -163 243 -132 281 -132 c 256
 319 -132 347 -167 347 -210 c 256
 347 -258 318 -289 281 -289 c 256xd8
EndSplineSet
Validated: 1
MultipleSubs2: "AddHairspaceAfterMark subtable" hatafpatah_meteg hairspace
MultipleSubs2: "AddThinspaceAfterMark subtable" hatafpatah_meteg thinspace
Ligature2: "B1ccmpHatafMeteg subtable" hatafpatah zerojoin meteg
LCarets2: 2 0 0 
EndChar

StartChar: hatafqamats_meteg
Encoding: 250 -1 188
Width: 0
GlyphClass: 4
Flags: W
HStem: -533 157<219.925 340.585> -289 157<219.925 340.585> -246 112<-346.959 -194 -140 12.9588>
VStem: -194 54<-401.25 -246> 60 90<-517.999 -144.001> 214 133<-528.894 -380.304 -284.886 -136.293>
AnchorPoint: "m2m-6d" 427 0.700012 basemark 0
AnchorPoint: "m2m-1" -430 -1 basemark 0
AnchorPoint: "m2b-4d" -1.76758 0 mark 0
LayerCount: 2
Fore
SplineSet
-82 -453 m 17xbc
 -90 -470 -106 -501 -140 -518 c 1
 -167 -518 l 1
 -167 -518 -184 -518 -194 -518 c 1
 -226 -501 -240 -477 -252 -453 c 9
 -210 -384 l 17
 -199 -371 -194 -330 -194 -320 c 2
 -194 -246 l 1
 -299 -246 l 2
 -347 -246 -347 -246 -347 -187 c 0
 -347 -135 -346 -134 -296 -134 c 2
 -38 -134 l 2
 12 -134 13 -135 13 -187 c 0
 13 -246 13 -246 -35 -246 c 2
 -140 -246 l 1
 -140 -320 l 2
 -140 -330 -135 -371 -124 -384 c 9
 -82 -453 l 17xbc
150 -470 m 2
 150 -476 l 0
 150 -518 149 -518 105 -518 c 0
 61 -518 60 -517 60 -467 c 2
 60 -195 l 2
 60 -145 61 -144 105 -144 c 0
 149 -144 150 -144 150 -192 c 2
 150 -470 l 2
281 -533 m 256
 240 -533 214 -498 214 -455 c 256
 214 -407 243 -376 281 -376 c 256
 319 -376 347 -411 347 -455 c 256
 347 -502 318 -533 281 -533 c 256
281 -289 m 256xdc
 240 -289 214 -254 214 -210 c 256
 214 -163 243 -132 281 -132 c 256
 319 -132 347 -167 347 -210 c 256
 347 -258 318 -289 281 -289 c 256xdc
EndSplineSet
Validated: 1
MultipleSubs2: "AddHairspaceAfterMark subtable" hatafqamats_meteg hairspace
MultipleSubs2: "AddThinspaceAfterMark subtable" hatafqamats_meteg thinspace
Ligature2: "B1ccmpHatafMeteg subtable" hatafqamats zerojoin meteg
LCarets2: 2 0 0 
EndChar

StartChar: underscore
Encoding: 64 95 189
Width: 877
VWidth: 1755
Flags: W
HStem: -235 106<0 878>
LayerCount: 2
Fore
SplineSet
0 -129 m 1
 878 -129 l 1
 878 -235 l 1
 0 -235 l 1
 0 -129 l 1
EndSplineSet
Validated: 1
EndChar

StartChar: grave
Encoding: 65 96 190
Width: 357
VWidth: 1755
Flags: W
HStem: 779 207<140.311 155.86 156 282.537>
VStem: 45 94<900.5 1107.1>
LayerCount: 2
Fore
SplineSet
276 1291 m 1
 318 1243 l 1
 195 1156 139 1077 139 1002 c 0
 139 992 144 986 151 986 c 1
 151 986 153 986 156 988 c 2
 188 990 l 1
 257 990 303 948 303 886 c 0
 303 824 254 779 189 779 c 0
 103 779 45 848 45 953 c 0
 45 1077 120 1184 276 1291 c 1
EndSplineSet
Validated: 1
EndChar

StartChar: braceleft
Encoding: 92 123 191
Width: 583
VWidth: 1755
Flags: W
HStem: -106 59<427.141 521> 1290 60<427.141 521>
VStem: 249 130<-14.9851 527.463 693.229 1257.99>
LayerCount: 2
Fore
SplineSet
116 594 m 1
 116 650 l 1
 190 675 214 690 231 729 c 0
 246 761 249 776 249 883 c 2
 249 1086 l 2
 249 1202 266 1263 310 1302 c 0
 342 1330 411 1350 476 1350 c 2
 521 1350 l 1
 521 1290 l 1
 407 1283 379 1238 379 1069 c 2
 379 841 l 2
 379 720 356 680 261 622 c 1
 356 564 379 524 379 403 c 2
 379 174 l 2
 379 5 407 -40 521 -47 c 1
 521 -106 l 1
 476 -106 l 2
 411 -106 342 -87 310 -59 c 0
 266 -20 249 41 249 157 c 2
 249 361 l 2
 249 477 246 496 225 529 c 1
 204 559 183 571 116 594 c 1
EndSplineSet
Validated: 1
EndChar

StartChar: bar
Encoding: 93 124 192
Width: 1063
VWidth: 1755
Flags: W
HStem: 0 21G<464 600>
VStem: 464 136<0 1267>
LayerCount: 2
Fore
SplineSet
600 1267 m 1
 600 0 l 1
 464 0 l 1
 464 1267 l 1
 600 1267 l 1
EndSplineSet
Validated: 1
EndChar

StartChar: braceright
Encoding: 94 125 193
Width: 583
VWidth: 1755
Flags: W
HStem: -106 59<63 155.703> 1290 60<63 155.703>
VStem: 204 129<-15.8713 513.512 716.537 1258.87>
LayerCount: 2
Fore
SplineSet
469 650 m 1
 469 594 l 1
 394 569 371 554 351 515 c 0
 336 483 333 468 333 361 c 2
 333 157 l 2
 333 41 316 -22 272 -59 c 0
 240 -87 172 -106 107 -106 c 2
 63 -106 l 1
 63 -47 l 1
 175 -40 204 5 204 174 c 2
 204 403 l 2
 204 524 226 564 321 622 c 1
 226 680 204 720 204 841 c 2
 204 1069 l 2
 204 1238 175 1283 63 1290 c 1
 63 1350 l 1
 107 1350 l 2
 172 1350 240 1330 272 1302 c 0
 316 1265 333 1202 333 1086 c 2
 333 883 l 2
 333 767 337 748 360 715 c 0
 380 685 400 673 469 650 c 1
EndSplineSet
Validated: 1
EndChar

StartChar: asciitilde
Encoding: 95 126 194
Width: 1063
VWidth: 1755
Flags: W
HStem: 474 140<598.539 822.302> 618 140<241.028 463.821>
LayerCount: 2
Fore
SplineSet
183 504 m 1
 89 570 l 1
 154 684 251 758 335 758 c 0
 379 758 418 746 509 702 c 2
 590 663 l 2
 683 618 695 614 730 614 c 0
 779 614 834 656 881 728 c 1
 974 661 l 1
 909 547 812 474 728 474 c 0
 684 474 641 488 554 528 c 1
 474 569 l 1
 372 616 368 618 333 618 c 0
 284 618 230 576 183 504 c 1
EndSplineSet
Validated: 1
EndChar

StartChar: Euro
Encoding: 200 8364 195
Width: 1024
Flags: W
HStem: -18 110<537.453 825.068> 408 79<59 181 376 737> 617 79<59 181 362 787> 890 21G<837.5 900.5> 1086 71<529.432 754.827>
VStem: 181 175<487 617 696 828.043> 193 183<281.617 408> 757 206<923.833 1075.76>
LayerCount: 2
Fore
SplineSet
960 108 m 1xfb
 881 38 749 -18 617 -18 c 0
 560 -18 503 -8 450 17 c 0
 306 84 224 229 193 408 c 1xfb
 59 408 l 1
 59 487 l 1
 181 487 l 1
 181 497 181 507 181 518 c 2
 181 548 l 1
 181 617 l 1xfd
 59 617 l 1
 59 696 l 1
 193 696 l 1xfb
 225 895 312 1049 472 1122 c 0
 524 1146 589 1157 655 1157 c 0
 768 1157 882 1124 932 1065 c 0
 952 1041 963 1012 963 976 c 0
 963 924 925 890 876 890 c 0
 799 890 757 967 757 1057 c 1
 724 1076 685 1086 646 1086 c 0
 606 1086 566 1076 534 1055 c 0
 429 989 380 852 362 696 c 1
 787 696 l 1
 787 617 l 1
 356 617 l 1
 356 586 l 2xfd
 356 552 358 519 362 487 c 1
 737 487 l 1
 737 408 l 1
 376 408 l 1
 419 242 499 92 698 92 c 0
 795 92 868 122 945 160 c 1
 950 153 955 144 960 134 c 1
 960 108 l 1xfb
EndSplineSet
Validated: 1
EndChar

StartChar: A
Encoding: 34 65 200
Width: 1370
VWidth: 1900
Flags: W
HStem: 0 89<-15 111.283 317.568 488 800 996.133 1241.83 1389> 444 104<414 840>
LayerCount: 2
Fore
SplineSet
718 1400 m 1
 1203 211 l 2
 1246 104 1268 89 1362 89 c 2
 1389 89 l 1
 1389 0 l 1
 800 0 l 1
 800 89 l 1
 879 89 l 2
 949 89 997 110 997 140 c 0
 997 150 993 162 982 191 c 2
 879 444 l 1
 377 444 l 1
 314 277 l 2
 303 247 296 221 296 198 c 0
 296 125 347 89 450 89 c 2
 488 89 l 1
 488 0 l 1
 -15 0 l 1
 -15 89 l 1
 -8 89 l 2
 43 89 97 112 127 148 c 1
 156 178 163 191 201 290 c 2
 639 1400 l 1
 718 1400 l 1
626 1086 m 1
 414 548 l 1
 840 548 l 1
 626 1086 l 1
EndSplineSet
Validated: 1
EndChar

StartChar: B
Encoding: 35 66 201
Width: 1370
VWidth: 1900
Flags: W
HStem: 0 89<56 257.781 482.177 917.341> 665 90<475 882.4> 1282 90<56 258.514 482.216 880.255>
VStem: 263 212<98.2928 665 755 1272.54> 981 220<880.32 1180.86> 1039 234<204.75 539.33>
LayerCount: 2
Fore
SplineSet
56 1372 m 1xf4
 739 1372 l 2
 852 1372 946 1356 1014 1326 c 0
 1124 1278 1201 1158 1201 1037 c 0xf8
 1201 941 1153 846 1073 788 c 0
 1025 752 984 735 893 717 c 1
 1152 672 1273 560 1273 372 c 0
 1273 140 1075 0 747 0 c 2
 56 0 l 1
 56 89 l 1
 91 89 l 2
 245 89 263 99 263 179 c 2
 263 234 l 1
 263 1138 l 1
 263 1193 l 2
 263 1273 245 1282 91 1282 c 2
 56 1282 l 1
 56 1372 l 1xf4
475 755 m 1
 644 755 l 2
 888 755 981 827 981 1013 c 0
 981 1120 944 1200 876 1242 c 0
 836 1269 765 1282 677 1282 c 2
 600 1282 l 2
 501 1282 475 1263 475 1188 c 2
 475 755 l 1
475 665 m 1
 475 209 l 2
 475 104 490 89 586 89 c 2
 665 89 l 2
 785 89 865 103 923 133 c 0
 998 169 1039 259 1039 379 c 0xf4
 1039 505 992 587 903 629 c 0
 847 654 763 665 642 665 c 2
 475 665 l 1
EndSplineSet
Validated: 1
EndChar

StartChar: C
Encoding: 36 67 202
Width: 1370
VWidth: 1900
Flags: W
HStem: -29 91<559.097 945.215> 1311 89<563.105 898.265>
VStem: 86 250<402.512 940.062> 1158 84<836 968.046> 1180 89<330.806 472.255>
LayerCount: 2
Fore
SplineSet
1215 1385 m 1xe8
 1242 836 l 1
 1158 836 l 1xf0
 1115 982 1087 1055 1051 1118 c 0
 978 1239 861 1311 728 1311 c 0
 607 1311 488 1245 430 1138 c 0
 365 1024 336 879 336 665 c 0
 336 257 469 62 750 62 c 0
 904 62 1026 128 1104 259 c 0
 1139 315 1162 383 1180 484 c 1
 1269 470 l 1
 1226 151 1032 -29 728 -29 c 0
 354 -29 86 264 86 672 c 0
 86 868 143 1027 264 1172 c 0
 393 1326 545 1400 730 1400 c 0
 857 1400 932 1372 1066 1273 c 1
 1142 1385 l 1
 1215 1385 l 1xe8
EndSplineSet
Validated: 1
EndChar

StartChar: D
Encoding: 37 68 203
Width: 1477
VWidth: 1900
Flags: W
HStem: 0 89<55 255.953 477.791 924.639> 1282 90<55 256.666 477.791 910.354>
VStem: 261 212<97.974 1273.3> 1140 251<408.243 970.814>
LayerCount: 2
Fore
SplineSet
261 234 m 1
 261 1138 l 1
 261 1193 l 2
 261 1273 244 1282 91 1282 c 2
 55 1282 l 1
 55 1372 l 1
 659 1372 l 2
 876 1372 1016 1341 1121 1274 c 0
 1295 1160 1391 955 1391 694 c 0
 1391 409 1284 191 1092 83 c 0
 991 27 863 0 694 0 c 2
 55 0 l 1
 55 89 l 1
 91 89 l 2
 244 89 261 99 261 179 c 2
 261 234 l 1
581 89 m 2
 710 89 l 2
 1016 89 1140 260 1140 685 c 0
 1140 1105 1005 1282 680 1282 c 2
 581 1282 l 2
 487 1282 473 1270 473 1177 c 2
 473 194 l 2
 473 101 487 89 581 89 c 2
EndSplineSet
Validated: 1
EndChar

StartChar: E
Encoding: 38 69 204
Width: 1370
VWidth: 1900
Flags: W
HStem: 0 89<55 255.781 488.775 975.287> 665 90<473 694.559> 1282 90<55 256.514 477.892 969.633>
VStem: 261 212<118.516 665 755 1273.39> 785 89<392 577.193 845.374 1014> 1142 81<886 1051.69> 1177 83<350.901 508>
LayerCount: 2
Fore
SplineSet
1196 1372 m 1xfa
 1223 886 l 1
 1142 886 l 1xfc
 1113 1057 1068 1164 1005 1213 c 0
 940 1266 858 1282 691 1282 c 2
 593 1282 l 2
 490 1282 473 1269 473 1188 c 2
 473 755 l 1
 519 755 l 2
 700 755 775 828 785 1014 c 1
 874 1014 l 1
 874 392 l 1
 785 392 l 1
 782 505 761 565 712 614 c 0
 674 654 627 665 511 665 c 2
 473 665 l 1
 473 181 l 2
 473 141 475 129 488 118 c 0
 504 102 554 89 610 89 c 2
 736 89 l 2
 895 89 1004 125 1062 201 c 1
 1107 256 1152 375 1177 508 c 1
 1260 508 l 1
 1222 0 l 1
 55 0 l 1
 55 89 l 1
 89 89 l 2
 243 89 261 99 261 179 c 2
 261 234 l 1
 261 1138 l 1
 261 1193 l 2
 261 1273 243 1282 89 1282 c 2
 55 1282 l 1
 55 1372 l 1
 1196 1372 l 1xfa
EndSplineSet
Validated: 1
EndChar

StartChar: F
Encoding: 39 70 205
Width: 1266
VWidth: 1900
Flags: W
HStem: 0 89<55 255.781 478.062 707> 665 90<473 694.559> 1282 90<55 256.514 477.892 953.867>
VStem: 261 212<97.974 665 755 1273.39> 785 89<392 582.427 845.374 1014> 1129 84<886 1064.73>
LayerCount: 2
Fore
SplineSet
1185 1372 m 1
 1213 886 l 1
 1129 886 l 1
 1076 1211 994 1282 680 1282 c 2
 593 1282 l 2
 490 1282 473 1269 473 1188 c 2
 473 755 l 1
 519 755 l 2
 700 755 775 828 785 1014 c 1
 874 1014 l 1
 874 392 l 1
 785 392 l 1
 782 505 763 565 715 614 c 0
 675 654 629 665 511 665 c 2
 473 665 l 1
 473 234 l 1
 473 179 l 2
 473 99 490 89 644 89 c 2
 707 89 l 1
 707 0 l 1
 55 0 l 1
 55 89 l 1
 89 89 l 2
 243 89 261 99 261 179 c 2
 261 234 l 1
 261 1138 l 1
 261 1193 l 2
 261 1273 243 1282 89 1282 c 2
 55 1282 l 1
 55 1372 l 1
 1185 1372 l 1
EndSplineSet
Validated: 1
EndChar

StartChar: G
Encoding: 40 71 206
Width: 1477
VWidth: 1900
Flags: W
HStem: -29 91<564.062 915.571> 536 90<863 1064.87 1279.77 1467> 1311 89<561.42 914.274>
VStem: 80 250<388.727 942.247> 1072 196<210.367 508.399> 1188 80<852 946.395>
LayerCount: 2
Fore
SplineSet
1235 1385 m 1xf4
 1261 852 l 1
 1180 852 l 1
 1102 1156 953 1311 736 1311 c 0
 472 1311 330 1085 330 661 c 0
 330 457 361 324 431 219 c 0
 496 125 621 62 742 62 c 0
 865 62 986 126 1034 219 c 0
 1057 264 1072 341 1072 422 c 0
 1072 527 1058 536 899 536 c 2
 863 536 l 1
 863 626 l 1
 1467 626 l 1
 1467 536 l 1
 1438 536 l 2
 1335 536 1295 527 1279 509 c 0
 1268 496 1268 495 1268 392 c 2xf8
 1268 -29 l 1
 1188 -29 l 1
 1117 145 l 1
 994 22 881 -29 722 -29 c 0
 539 -29 365 50 247 183 c 0
 137 306 80 467 80 661 c 0
 80 918 167 1108 355 1261 c 0
 475 1357 593 1400 743 1400 c 0
 883 1400 966 1368 1089 1269 c 1
 1163 1385 l 1
 1235 1385 l 1xf4
EndSplineSet
Validated: 1
EndChar

StartChar: H
Encoding: 41 72 207
Width: 1581
VWidth: 1900
Flags: W
HStem: 0 89<55 255.781 478.062 680 905 1104.94 1327.22 1528> 659 103<473 1110> 1282 90<55 256.514 477.346 680 912 1105.65 1326.49 1528>
VStem: 261 212<97.974 659 762 1273.39> 1110 212<97.974 659 762 1273.39>
LayerCount: 2
Fore
SplineSet
1110 659 m 1
 473 659 l 1
 473 234 l 1
 473 179 l 2
 473 99 490 89 644 89 c 2
 680 89 l 1
 680 0 l 1
 55 0 l 1
 55 89 l 1
 89 89 l 2
 243 89 261 99 261 179 c 2
 261 234 l 1
 261 1138 l 1
 261 1193 l 2
 261 1273 243 1282 89 1282 c 2
 55 1282 l 1
 55 1372 l 1
 680 1372 l 1
 680 1282 l 1
 644 1282 l 2
 490 1282 473 1273 473 1193 c 2
 473 1138 l 1
 473 762 l 1
 1110 762 l 1
 1110 1138 l 1
 1110 1193 l 2
 1110 1273 1093 1282 939 1282 c 2
 912 1282 l 1
 912 1372 l 1
 1528 1372 l 1
 1528 1282 l 1
 1494 1282 l 2
 1340 1282 1322 1273 1322 1193 c 2
 1322 1138 l 1
 1322 234 l 1
 1322 179 l 2
 1322 99 1340 89 1494 89 c 2
 1528 89 l 1
 1528 0 l 1
 905 0 l 1
 905 89 l 1
 939 89 l 2
 1093 89 1110 99 1110 179 c 2
 1110 234 l 1
 1110 659 l 1
EndSplineSet
Validated: 1
EndChar

StartChar: I
Encoding: 42 73 208
Width: 771
VWidth: 1900
Flags: W
HStem: 0 89<73 275.938 499.047 702> 1282 90<73 276.654 498.334 702>
VStem: 281 213<97.974 1273.39>
LayerCount: 2
Fore
SplineSet
494 1138 m 1
 494 234 l 1
 494 179 l 2
 494 99 511 89 664 89 c 2
 702 89 l 1
 702 0 l 1
 73 0 l 1
 73 89 l 1
 110 89 l 2
 264 89 281 99 281 179 c 2
 281 234 l 1
 281 1138 l 1
 281 1193 l 2
 281 1273 264 1282 110 1282 c 2
 73 1282 l 1
 73 1372 l 1
 702 1372 l 1
 702 1282 l 1
 664 1282 l 2
 511 1282 494 1273 494 1193 c 2
 494 1138 l 1
EndSplineSet
Validated: 1
EndChar

StartChar: J
Encoding: 43 74 209
Width: 1055
VWidth: 1900
Flags: W
HStem: -29 91<201.046 497.262> 263 263<123.062 308> 1282 90<397 597.805 818.207 1021>
VStem: 10 113<136.489 361> 602 212<184.4 1273.39>
LayerCount: 2
Fore
SplineSet
814 1138 m 1
 814 509 l 2
 814 324 792 209 743 133 c 0
 676 26 555 -29 388 -29 c 0
 272 -29 183 -2 120 53 c 1
 52 109 10 203 10 294 c 0
 10 428 89 526 199 526 c 0
 282 526 342 470 342 390 c 0
 342 312 291 252 223 252 c 0
 201 252 185 255 153 263 c 1
 146 263 l 2
 133 263 123 248 123 232 c 0
 123 209 137 172 159 145 c 0
 199 94 273 62 353 62 c 0
 463 62 542 118 578 226 c 0
 596 282 602 359 602 526 c 2
 602 1138 l 1
 602 1193 l 2
 602 1273 586 1282 433 1282 c 2
 397 1282 l 1
 397 1372 l 1
 1021 1372 l 1
 1021 1282 l 1
 984 1282 l 2
 830 1282 814 1273 814 1193 c 2
 814 1138 l 1
EndSplineSet
Validated: 1
EndChar

StartChar: K
Encoding: 44 75 210
Width: 1477
VWidth: 1900
Flags: W
HStem: 0 89<56 257.781 479.906 682 876 1063.97 1342.89 1526> 1282 90<56 258.514 479.207 682 863 1032.69 1268.57 1449>
VStem: 263 212<97.974 475 621 1273.39>
LayerCount: 2
Fore
SplineSet
475 621 m 1
 941 1089 l 2
 996 1144 1034 1199 1034 1226 c 0
 1034 1266 998 1282 910 1282 c 2
 863 1282 l 1
 863 1372 l 1
 1449 1372 l 1
 1449 1282 l 1
 1335 1282 1217 1227 1126 1131 c 1
 843 847 l 1
 1303 185 l 2
 1358 104 1385 89 1490 89 c 2
 1526 89 l 1
 1526 0 l 1
 876 0 l 1
 876 89 l 1
 935 89 l 2
 1028 89 1064 103 1064 133 c 0
 1064 151 1056 167 1026 212 c 2
 696 697 l 1
 475 475 l 1
 475 234 l 1
 475 179 l 2
 475 99 491 89 645 89 c 2
 682 89 l 1
 682 0 l 1
 56 0 l 1
 56 89 l 1
 91 89 l 2
 245 89 263 99 263 179 c 2
 263 234 l 1
 263 1138 l 1
 263 1193 l 2
 263 1273 245 1282 91 1282 c 2
 56 1282 l 1
 56 1372 l 1
 682 1372 l 1
 682 1282 l 1
 645 1282 l 2
 491 1282 475 1273 475 1193 c 2
 475 1138 l 1
 475 621 l 1
EndSplineSet
Validated: 1
EndChar

StartChar: L
Encoding: 45 76 211
Width: 1266
VWidth: 1900
Flags: W
HStem: 0 89<67 266.938 500.774 947.166> 1282 90<67 267.654 488.486 690>
VStem: 272 212<118.516 1273.39> 1144 84<345.938 521>
LayerCount: 2
Fore
SplineSet
1228 521 m 1
 1188 0 l 1
 67 0 l 1
 67 89 l 1
 101 89 l 2
 255 89 272 99 272 179 c 2
 272 234 l 1
 272 1138 l 1
 272 1193 l 2
 272 1273 255 1282 101 1282 c 2
 67 1282 l 1
 67 1372 l 1
 690 1372 l 1
 690 1282 l 1
 656 1282 l 2
 502 1282 484 1273 484 1193 c 2
 484 1138 l 1
 484 181 l 2
 484 141 487 129 500 118 c 0
 516 102 565 89 621 89 c 2
 702 89 l 2
 861 89 972 124 1030 199 c 0
 1079 262 1126 392 1144 521 c 1
 1228 521 l 1
EndSplineSet
Validated: 1
EndChar

StartChar: M
Encoding: 46 77 212
Width: 1792
VWidth: 1900
Flags: W
HStem: 0 89<42 200.413 427.168 584 1112 1311.65 1534.35 1734> 1282 90<55 258.514 1534.35 1734>
VStem: 263 102<151.072 1249.09> 1316 214<97.68 1249.09>
LayerCount: 2
Fore
SplineSet
546 1372 m 1
 910 359 l 1
 1258 1372 l 1
 1734 1372 l 1
 1734 1282 l 1
 1701 1282 l 2
 1547 1282 1530 1273 1530 1193 c 2
 1530 1138 l 1
 1530 234 l 1
 1530 179 l 2
 1530 98 1547 89 1701 89 c 2
 1734 89 l 1
 1734 0 l 1
 1112 0 l 1
 1112 89 l 1
 1145 89 l 2
 1299 89 1316 98 1316 179 c 2
 1316 234 l 1
 1316 1250 l 1
 893 0 l 1
 817 0 l 1
 365 1250 l 1
 365 410 l 2
 365 151 403 97 584 89 c 1
 584 0 l 1
 42 0 l 1
 42 89 l 1
 225 97 263 151 263 410 c 2
 263 1138 l 1
 263 1193 l 2
 263 1273 245 1282 91 1282 c 2
 55 1282 l 1
 55 1372 l 1
 546 1372 l 1
EndSplineSet
Validated: 1
EndChar

StartChar: N
Encoding: 47 78 213
Width: 1548
VWidth: 1900
Flags: W
HStem: 0 89<38 196.413 423.168 580> 1282 90<36 243.527 967 1123.47 1349.95 1508>
VStem: 259 102<150.823 1117> 1185 103<363 1219.7>
LayerCount: 2
Fore
SplineSet
428 1372 m 1
 1185 363 l 1
 1185 959 l 2
 1185 1220 1148 1274 967 1282 c 1
 967 1372 l 1
 1508 1372 l 1
 1508 1282 l 1
 1325 1274 1288 1220 1288 959 c 2
 1288 -27 l 1
 1209 -27 l 1
 361 1117 l 1
 361 411 l 2
 361 150 399 97 580 89 c 1
 580 0 l 1
 38 0 l 1
 38 89 l 1
 221 97 259 150 259 411 c 2
 259 1220 l 1
 224 1268 179 1282 83 1282 c 2
 36 1282 l 1
 36 1372 l 1
 428 1372 l 1
EndSplineSet
Validated: 1
EndChar

StartChar: O
Encoding: 48 79 214
Width: 1477
VWidth: 1900
Flags: W
HStem: -29 91<556.173 922.18> 1311 89<554.519 914.625>
VStem: 86 250<418.389 948.157> 1142 250<417.714 952.395>
LayerCount: 2
Fore
SplineSet
747 1400 m 0
 1112 1400 1392 1088 1392 685 c 0
 1392 279 1111 -29 739 -29 c 0
 369 -29 86 279 86 684 c 0
 86 901 171 1107 317 1241 c 0
 433 1348 578 1400 747 1400 c 0
745 1311 m 0
 602 1311 501 1258 431 1148 c 1
 361 1034 336 918 336 690 c 0
 336 454 358 340 431 224 c 0
 499 117 605 62 739 62 c 0
 873 62 979 117 1047 224 c 1
 1117 338 1142 453 1142 685 c 0
 1142 917 1117 1035 1047 1148 c 1
 979 1253 872 1311 745 1311 c 0
EndSplineSet
Validated: 1
EndChar

StartChar: P
Encoding: 49 80 215
Width: 1266
VWidth: 1900
Flags: W
HStem: 0 89<53 253.938 476.062 691> 610 89<471 889.125> 1282 90<53 254.654 474.359 893.343>
VStem: 259 212<97.974 610 699 1273.39> 999 234<816.585 1174.8>
LayerCount: 2
Fore
SplineSet
471 610 m 1
 471 234 l 1
 471 179 l 2
 471 99 488 89 642 89 c 2
 691 89 l 1
 691 0 l 1
 53 0 l 1
 53 89 l 1
 88 89 l 2
 242 89 259 99 259 179 c 2
 259 234 l 1
 259 1138 l 1
 259 1193 l 2
 259 1273 242 1282 88 1282 c 2
 53 1282 l 1
 53 1372 l 1
 718 1372 l 2
 849 1372 965 1351 1040 1313 c 0
 1166 1250 1233 1140 1233 995 c 0
 1233 845 1156 724 1022 659 c 0
 946 623 856 610 685 610 c 2
 471 610 l 1
471 699 m 1
 702 699 l 2
 903 699 999 792 999 988 c 0
 999 1189 907 1282 709 1282 c 2
 587 1282 l 2
 482 1282 471 1273 471 1185 c 2
 471 699 l 1
EndSplineSet
Validated: 1
EndChar

StartChar: Q
Encoding: 50 81 216
Width: 1477
VWidth: 1900
Flags: W
HStem: -359 154<1100 1312.93> -29 91<592.886 909.786> 414 89<591.766 830.786> 1311 89<557.305 922.022>
VStem: 86 250<431.196 939.612> 446 88<211.539 355.693> 1144 250<440.441 951.253> 1336 85<-190.168 -38>
LayerCount: 2
Fore
SplineSet
1336 -38 m 1xfd
 1421 -38 l 1
 1421 -40 1421 -42 1421 -44 c 0xfd
 1421 -240 1329 -359 1178 -359 c 0
 1022 -359 927 -228 919 0 c 1
 856 -22 815 -29 750 -29 c 0
 380 -29 86 287 86 684 c 0
 86 901 176 1106 332 1246 c 0
 448 1351 581 1400 737 1400 c 0
 1103 1400 1394 1092 1394 702 c 0xfe
 1394 458 1293 244 1095 81 c 1
 1160 -126 1205 -205 1260 -205 c 0
 1308 -205 1326 -159 1336 -38 c 1xfd
1045 226 m 1
 1118 344 1144 467 1144 690 c 0xfe
 1144 884 1121 1016 1066 1123 c 0
 1008 1241 887 1311 742 1311 c 0
 602 1311 491 1251 433 1144 c 0
 368 1028 336 870 336 684 c 0
 336 463 370 312 446 211 c 1
 444 226 446 240 446 245 c 0
 446 398 561 503 720 503 c 0
 879 503 996 405 1045 226 c 1
912 103 m 1
 912 121 l 2
 912 307 839 414 710 414 c 0
 605 414 534 339 534 226 c 0
 534 121 608 62 734 62 c 0
 809 62 854 73 912 103 c 1
EndSplineSet
Validated: 1
EndChar

StartChar: R
Encoding: 51 82 217
Width: 1370
VWidth: 1900
Flags: W
HStem: -29 145<1043 1247.71> 0 89<49 248.938 473.062 672> 665 90<468 749.469> 1282 90<49 249.654 488.703 884.163>
VStem: 254 214<97.974 665 755 1268.3> 975 234<867.987 1193.51> 1274 80<140.413 304>
LayerCount: 2
Fore
SplineSet
468 665 m 1xbe
 468 232 l 1
 468 179 l 2
 468 99 485 89 639 89 c 2
 672 89 l 1
 672 0 l 1
 49 0 l 1
 49 89 l 1
 83 89 l 2x7e
 237 89 254 99 254 179 c 2
 254 232 l 1
 254 1138 l 1
 254 1193 l 2
 254 1273 237 1282 83 1282 c 2
 49 1282 l 1
 49 1372 l 1
 707 1372 l 2
 1026 1372 1209 1249 1209 1032 c 0
 1209 840 1077 729 803 691 c 1
 951 653 1025 572 1067 398 c 1
 1099 279 l 2
 1131 148 1150 116 1193 116 c 0
 1244 116 1266 173 1274 304 c 1
 1354 304 l 1
 1349 76 1274 -29 1118 -29 c 0
 968 -29 899 60 876 274 c 2
 866 370 l 2
 853 496 824 564 769 607 c 0
 727 642 653 665 578 665 c 2
 468 665 l 1xbe
468 755 m 1
 677 755 l 2
 768 755 853 780 901 820 c 0
 950 860 975 934 975 1030 c 0
 975 1202 890 1282 702 1282 c 2
 599 1282 l 2
 518 1282 503 1280 488 1269 c 0
 470 1254 468 1248 468 1172 c 2
 468 755 l 1
EndSplineSet
Validated: 1
EndChar

StartChar: S
Encoding: 52 83 218
Width: 1196
VWidth: 1900
Flags: W
HStem: -29 87<456.656 842.488> 1309 91<375.846 731.599>
VStem: 96 83<377.263 526> 129 148<962.593 1193.72> 973 148<190.232 461.06> 979 81<889 1007.39>
LayerCount: 2
Fore
SplineSet
1037 1384 m 1xd8
 1060 889 l 1
 979 889 l 1
 954 985 920 1066 865 1144 c 0
 789 1252 681 1309 548 1309 c 0
 387 1309 277 1218 277 1085 c 0xd4
 277 969 357 895 526 852 c 2
 730 800 l 2
 883 762 956 729 1007 680 c 0
 1082 607 1121 508 1121 390 c 0
 1121 136 943 -29 664 -29 c 0
 498 -29 391 9 264 114 c 1
 179 -15 l 1
 105 -15 l 1
 96 526 l 1
 179 526 l 1xe8
 208 380 247 290 327 201 c 0
 416 102 517 58 658 58 c 0
 763 58 824 79 887 134 c 0
 943 185 973 249 973 325 c 0
 973 400 942 463 886 506 c 0
 846 536 832 540 691 576 c 2
 511 621 l 2
 232 694 129 796 129 1003 c 0
 129 1240 297 1400 546 1400 c 0
 680 1400 803 1355 892 1269 c 1
 967 1384 l 1
 1037 1384 l 1xd8
EndSplineSet
Validated: 1
EndChar

StartChar: T
Encoding: 53 84 219
Width: 1266
VWidth: 1900
Flags: W
HStem: 0 89<309 522.938 746.734 959> 1282 90<286.419 525.561 744.282 979.397>
VStem: 36 82<843 1039.01> 528 214<97.974 1276.71> 1150 81<843 1037.91>
LayerCount: 2
Fore
SplineSet
1203 1372 m 1
 1231 843 l 1
 1150 843 l 1
 1135 951 1115 1034 1086 1104 c 0
 1038 1218 946 1282 830 1282 c 0
 767 1282 742 1263 742 1215 c 2
 742 234 l 1
 742 179 l 2
 742 99 757 89 910 89 c 2
 959 89 l 1
 959 0 l 1
 309 0 l 1
 309 89 l 1
 357 89 l 2
 511 89 528 99 528 179 c 2
 528 234 l 1
 528 1215 l 2
 528 1263 501 1282 438 1282 c 0
 309 1282 218 1212 169 1072 c 0
 147 1010 131 937 118 843 c 1
 36 843 l 1
 65 1372 l 1
 1203 1372 l 1
EndSplineSet
Validated: 1
EndChar

StartChar: U
Encoding: 54 85 220
Width: 1548
VWidth: 1900
Flags: W
HStem: -29 104<616.644 1004.29> 1282 90<32 229.805 450.486 654 977 1133.47 1359.95 1518>
VStem: 234 212<234.679 1273.39> 1195 103<263.515 1219.7>
LayerCount: 2
Fore
SplineSet
1298 959 m 2
 1298 528 l 2
 1298 359 1277 259 1215 171 c 0
 1124 37 974 -29 760 -29 c 0
 546 -29 378 41 290 167 c 0
 254 220 239 281 234 382 c 1
 234 513 l 1
 234 1138 l 1
 234 1193 l 2
 234 1273 218 1282 65 1282 c 2
 32 1282 l 1
 32 1372 l 1
 654 1372 l 1
 654 1282 l 1
 618 1282 l 2
 464 1282 446 1273 446 1193 c 2
 446 1138 l 1
 446 502 l 2
 446 326 457 279 508 209 c 0
 571 123 682 75 811 75 c 0
 965 75 1088 143 1150 261 c 0
 1186 328 1195 387 1195 540 c 2
 1195 959 l 2
 1195 1220 1158 1274 977 1282 c 1
 977 1372 l 1
 1518 1372 l 1
 1518 1282 l 1
 1335 1274 1298 1220 1298 959 c 2
EndSplineSet
Validated: 1
EndChar

StartChar: V
Encoding: 55 86 221
Width: 1370
VWidth: 1900
Flags: W
HStem: 1282 90<-15 138.174 384.094 578 874 1044.25 1241.67 1389>
LayerCount: 2
Fore
SplineSet
747 294 m 1
 1040 1077 l 2
 1053 1113 1064 1156 1064 1183 c 0
 1064 1245 1006 1282 910 1282 c 2
 874 1282 l 1
 874 1372 l 1
 1389 1372 l 1
 1389 1282 l 1
 1371 1282 l 2
 1263 1282 1219 1245 1163 1097 c 2
 725 -29 l 1
 650 -29 l 1
 169 1177 l 2
 133 1265 109 1282 23 1282 c 2
 -15 1282 l 1
 -15 1372 l 1
 578 1372 l 1
 578 1282 l 1
 502 1282 l 2
 416 1282 384 1270 384 1235 c 0
 384 1224 388 1201 398 1178 c 2
 747 294 l 1
EndSplineSet
Validated: 1
EndChar

StartChar: W
Encoding: 56 87 222
Width: 1863
VWidth: 1900
Flags: W
HStem: 1282 90<11 149.871 380.015 548 671 827.779 1081.02 1220 1389 1550.49 1724.75 1855>
LayerCount: 2
Fore
SplineSet
664 346 m 1
 883 1075 l 1
 834 1223 l 2
 819 1268 793 1282 715 1282 c 2
 671 1282 l 1
 671 1372 l 1
 1220 1372 l 1
 1220 1282 l 1
 1190 1282 l 2
 1115 1282 1102 1281 1080 1273 c 0
 1064 1265 1053 1247 1053 1231 c 0
 1053 1218 1055 1214 1066 1178 c 2
 1328 346 l 1
 1556 1117 l 2
 1564 1139 1568 1165 1568 1183 c 0
 1568 1250 1514 1282 1404 1282 c 2
 1389 1282 l 1
 1389 1372 l 1
 1855 1372 l 1
 1855 1282 l 1
 1847 1282 l 2
 1784 1282 1736 1260 1706 1215 c 0
 1684 1185 1677 1161 1655 1086 c 2
 1320 -29 l 1
 1242 -29 l 1
 935 916 l 1
 654 -29 l 1
 572 -29 l 1
 161 1209 l 2
 138 1276 128 1282 48 1282 c 2
 11 1282 l 1
 11 1372 l 1
 548 1372 l 1
 548 1282 l 1
 462 1282 l 2
 400 1282 380 1273 380 1244 c 0
 380 1234 385 1212 390 1196 c 2
 664 346 l 1
EndSplineSet
Validated: 1
EndChar

StartChar: X
Encoding: 57 88 223
Width: 1335
VWidth: 1900
Flags: W
HStem: 0 89<-10 142.663 373.797 529 737 917.994 1179.66 1360> 1282 90<-11 160.144 411.014 576 760 912.143 1113.68 1282>
LayerCount: 2
Fore
SplineSet
739 760 m 1
 1138 188 l 2
 1203 95 1217 89 1338 89 c 2
 1360 89 l 1
 1360 0 l 1
 737 0 l 1
 737 89 l 1
 790 89 l 1
 910 91 918 93 918 123 c 0
 918 138 908 160 893 183 c 2
 610 584 l 1
 390 264 l 2
 372 235 359 206 359 181 c 0
 359 125 407 89 483 89 c 2
 529 89 l 1
 529 0 l 1
 -10 0 l 1
 -10 89 l 1
 0 89 l 2
 96 89 172 134 247 241 c 1
 554 669 l 1
 181 1210 l 2
 138 1273 115 1282 22 1282 c 2
 -11 1282 l 1
 -11 1372 l 1
 576 1372 l 1
 576 1282 l 1
 503 1282 l 2
 430 1282 411 1276 411 1258 c 0
 411 1248 420 1228 433 1210 c 2
 685 846 l 1
 892 1144 l 2
 914 1174 918 1187 918 1209 c 0
 918 1260 878 1282 787 1282 c 2
 760 1282 l 1
 760 1372 l 1
 1282 1372 l 1
 1282 1282 l 1
 1253 1282 l 2
 1152 1282 1099 1247 992 1104 c 2
 739 760 l 1
EndSplineSet
Validated: 1
EndChar

StartChar: Y
Encoding: 58 89 224
Width: 1335
VWidth: 1900
Flags: W
HStem: 0 89<361 575.938 798.79 1013> 1282 90<-25 140.031 398.018 586 815 997.716 1195.69 1354>
VStem: 581 214<97.974 546>
LayerCount: 2
Fore
SplineSet
739 678 m 1
 975 1099 l 2
 997 1137 1007 1167 1007 1196 c 0
 1007 1258 965 1282 860 1282 c 2
 815 1282 l 1
 815 1372 l 1
 1354 1372 l 1
 1354 1282 l 1
 1339 1282 l 2
 1276 1282 1215 1258 1172 1218 c 0
 1143 1189 1119 1154 1077 1079 c 2
 795 567 l 1
 795 234 l 1
 795 179 l 2
 795 98 808 89 962 89 c 2
 1013 89 l 1
 1013 0 l 1
 361 0 l 1
 361 89 l 1
 410 89 l 2
 564 89 581 99 581 179 c 2
 581 234 l 1
 581 546 l 1
 171 1195 l 2
 128 1265 97 1282 16 1282 c 2
 -25 1282 l 1
 -25 1372 l 1
 586 1372 l 1
 586 1282 l 1
 473 1282 l 2
 422 1282 398 1271 398 1246 c 0
 398 1233 405 1216 420 1193 c 2
 739 678 l 1
EndSplineSet
Validated: 1
EndChar

StartChar: Z
Encoding: 59 90 225
Width: 1160
VWidth: 1900
Flags: W
HStem: 0 89<301 821.698> 1282 90<350.728 823>
VStem: 101 85<892 1056.4> 1003 89<327.879 528>
LayerCount: 2
Fore
SplineSet
1080 1372 m 1
 1080 1303 l 1
 301 89 l 1
 616 89 l 2
 739 89 841 125 889 188 c 1
 944 256 976 352 1003 528 c 1
 1092 528 l 1
 1059 0 l 1
 45 0 l 1
 45 68 l 1
 823 1282 l 1
 576 1282 l 2
 322 1282 248 1209 186 892 c 1
 101 892 l 1
 140 1372 l 1
 1080 1372 l 1
EndSplineSet
Validated: 1
EndChar

StartChar: a
Encoding: 66 97 226
Width: 1055
VWidth: 1900
Flags: W
HStem: -29 102<318.371 553.348> -13 112<812.5 991.884> 468 81<485.072 680> 833 81<330.315 621.187>
VStem: 83 193<112.652 329.117> 134 172<617.879 792.676> 680 180<183.913 468 541.144 780.68>
LayerCount: 2
Fore
SplineSet
860 612 m 2xb6
 860 231 l 2
 860 137 878 99 931 99 c 0
 946 99 954 102 984 113 c 0
 997 118 1005 120 1013 120 c 0
 1023 120 1032 109 1032 96 c 0
 1032 41 943 -13 857 -13 c 0x76
 768 -13 720 25 690 121 c 1
 609 25 490 -29 359 -29 c 0
 192 -29 83 60 83 194 c 0xba
 83 314 164 401 327 463 c 0
 420 499 481 514 680 549 c 1
 680 624 l 2
 680 710 667 755 631 785 c 1
 601 814 533 833 475 833 c 0
 384 833 306 798 306 758 c 0
 306 753 308 747 319 734 c 0
 337 707 348 681 348 656 c 0
 348 600 303 559 245 559 c 0
 178 559 134 604 134 677 c 0
 134 813 294 914 506 914 c 0
 627 914 720 887 783 838 c 0
 838 793 860 732 860 612 c 2xb6
680 380 m 2
 680 468 l 1
 532 443 456 424 398 397 c 0
 315 357 276 301 276 221 c 0
 276 135 339 73 425 73 c 0xba
 506 73 594 121 642 191 c 0
 674 240 680 266 680 380 c 2
EndSplineSet
Validated: 1
EndChar

StartChar: b
Encoding: 67 98 227
Width: 1055
VWidth: 1900
Flags: W
HStem: -29 82<449.423 684.496> 817 97<439.375 683.848> 1298 81<15 158.624>
VStem: 163 179<171.408 702.663 765 1295.44> 788 200<227.43 677.098>
LayerCount: 2
Fore
SplineSet
342 1400 m 1
 342 765 l 1
 415 873 484 914 600 914 c 0
 828 914 988 722 988 448 c 0
 988 174 814 -29 580 -29 c 0
 462 -29 372 18 294 121 c 1
 201 -29 l 1
 129 -29 l 1
 154 84 163 209 163 463 c 2
 163 1203 l 2
 163 1284 151 1298 81 1298 c 2
 15 1298 l 1
 15 1379 l 1
 342 1400 l 1
566 817 m 0
 413 817 332 677 332 425 c 0
 332 191 422 53 572 53 c 0
 712 53 788 191 788 430 c 0
 788 679 709 817 566 817 c 0
EndSplineSet
Validated: 1
EndChar

StartChar: c
Encoding: 68 99 228
Width: 842
VWidth: 1900
Flags: W
HStem: -29 117<384.025 636.725> 833 81<387.296 595.145>
VStem: 65 199<222.208 655.736> 604 181<635.831 807.131>
LayerCount: 2
Fore
SplineSet
736 279 m 1
 809 250 l 1
 728 49 631 -29 462 -29 c 0
 226 -29 65 158 65 428 c 0
 65 711 241 914 488 914 c 0
 657 914 785 814 785 687 c 0
 785 611 736 559 669 559 c 0
 602 559 554 602 554 665 c 0
 554 697 563 716 593 752 c 0
 601 763 604 770 604 775 c 0
 604 805 554 833 498 833 c 0
 357 833 264 679 264 448 c 0
 264 225 358 88 511 88 c 0
 610 88 674 143 736 279 c 1
EndSplineSet
Validated: 1
EndChar

StartChar: d
Encoding: 69 100 229
Width: 1089
VWidth: 1900
Flags: W
HStem: -29 104<379.223 613.106> 0 81<912.218 1053> 811 103<383.343 613.568> 1298 81<528 717.252>
VStem: 81 200<205.485 665.912> 722 179<89.3008 136 205.208 683.119 774 1295.44>
LayerCount: 2
Fore
SplineSet
722 -13 m 1x7c
 722 136 l 1
 660 22 580 -29 460 -29 c 0xbc
 239 -29 81 163 81 433 c 0
 81 707 246 914 460 914 c 0
 570 914 652 870 722 774 c 1
 722 1203 l 2
 722 1284 708 1298 640 1298 c 2
 528 1298 l 1
 528 1379 l 1
 901 1400 l 1
 901 221 l 2
 901 101 916 81 1019 81 c 2
 1053 81 l 1
 1053 0 l 1
 722 -13 l 1x7c
498 811 m 0
 420 811 349 755 317 672 c 0
 292 607 281 523 281 410 c 0
 281 199 363 75 496 75 c 0
 632 75 722 217 722 438 c 0
 722 529 707 611 684 667 c 0
 649 755 576 811 498 811 c 0
EndSplineSet
Validated: 1
EndChar

StartChar: e
Encoding: 70 101 230
Width: 949
VWidth: 1900
Flags: W
HStem: -29 104<389.518 689.567> 428 81<270 677.389> 833 81<379.274 597.234>
VStem: 67 201<206.08 428 509 648.678> 680 203<511.538 666.28>
LayerCount: 2
Fore
SplineSet
883 428 m 1
 268 428 l 1
 268 422 268 415 268 409 c 0
 268 315 282 252 315 199 c 0
 364 116 436 75 532 75 c 0
 659 75 739 131 817 277 c 1
 883 241 l 1
 805 60 677 -29 496 -29 c 0
 239 -29 67 152 67 418 c 0
 67 703 248 914 492 914 c 0
 723 914 883 715 883 433 c 0
 883 431 883 430 883 428 c 1
270 509 m 1
 602 509 l 2
 664 509 680 525 680 580 c 0
 680 733 604 833 488 833 c 0
 397 833 336 778 296 664 c 0
 278 611 270 567 270 509 c 1
EndSplineSet
Validated: 1
EndChar

StartChar: f
Encoding: 71 102 231
Width: 631
VWidth: 1900
Flags: W
HStem: 0 68<53 194.426 391.645 561> 803 83<36 204 382 591> 1324 76<471.934 637.675>
VStem: 204 178<76.4375 803 886 1206.48> 640 183<1165.56 1323.15>
LayerCount: 2
Fore
SplineSet
382 886 m 1
 591 886 l 1
 591 803 l 1
 382 803 l 1
 382 234 l 1
 382 158 l 2
 382 82 403 68 526 68 c 2
 561 68 l 1
 561 0 l 1
 53 0 l 1
 53 68 l 1
 62 68 l 2
 183 68 204 82 204 158 c 2
 204 234 l 1
 204 803 l 1
 36 803 l 1
 36 886 l 1
 204 886 l 1
 204 944 l 2
 204 1098 223 1180 279 1260 c 0
 347 1354 443 1400 574 1400 c 0
 728 1400 823 1332 823 1222 c 0
 823 1154 780 1105 717 1105 c 0
 659 1105 612 1150 612 1206 c 0
 612 1228 618 1250 629 1268 c 0
 639 1283 640 1288 640 1293 c 0
 640 1315 616 1324 576 1324 c 0
 500 1324 433 1273 403 1190 c 0
 388 1152 382 1088 382 994 c 2
 382 886 l 1
EndSplineSet
Validated: 1
EndChar

StartChar: g
Encoding: 72 103 232
Width: 1018
VWidth: 1900
Flags: W
HStem: -384 75<263.715 675.128> -23 164<257.453 759.457> 292 73<363.711 588.667> 833 81<359.996 602.657> 836 105<787.198 942.5>
VStem: 43 158<-260.05 -86.6032> 91 126<152.066 269.628> 113 172<442.576 758.066> 671 175<443.219 754.181> 788 133<-230.718 -54.4416> 860 170<750.146 833.033>
LayerCount: 2
Fore
SplineSet
372 141 m 1xeaa0
 566 141 l 2
 697 141 759 132 808 114 c 0
 878 85 921 8 921 -86 c 0
 921 -285 761 -384 444 -384 c 0
 190 -384 43 -317 43 -191 c 0xec40
 43 -113 101 -52 219 -10 c 1
 130 20 91 71 91 154 c 0xea
 91 259 145 315 272 344 c 1
 173 389 113 486 113 599 c 0
 113 790 260 914 486 914 c 0xf1
 580 914 642 894 722 841 c 1
 810 921 843 941 905 941 c 0
 980 941 1030 895 1030 830 c 0
 1030 779 992 739 944 739 c 0
 896 739 868 764 860 809 c 0
 857 831 850 836 840 836 c 0
 825 836 807 825 775 790 c 1
 828 727 846 680 846 604 c 0
 846 478 781 379 667 328 c 0
 604 299 576 295 395 292 c 0
 268 289 217 263 217 207 c 0
 217 185 226 166 239 158 c 0
 262 145 267 143 372 141 c 1xeaa0
484 833 m 0xf180
 357 833 285 747 285 597 c 0
 285 454 358 365 476 365 c 0
 597 365 671 454 671 602 c 0
 671 748 604 833 484 833 c 0xf180
468 -23 m 2
 327 -23 l 1
 236 -71 201 -111 201 -174 c 0
 201 -260 292 -309 451 -309 c 0
 663 -309 788 -244 788 -136 c 0xe440
 788 -74 741 -35 665 -27 c 0
 636 -24 626 -23 468 -23 c 2
EndSplineSet
Validated: 1
EndChar

StartChar: h
Encoding: 73 104 233
Width: 1160
VWidth: 1900
Flags: W
HStem: 0 68<51 191.174 389.645 532 645 788.355 986.322 1126> 798 116<516.481 732.665> 1298 81<29 196.836>
VStem: 201 179<76.4375 673.629 730 1295.44> 798 179<76.4375 729.021>
LayerCount: 2
Fore
SplineSet
380 1400 m 1
 380 730 l 1
 466 857 559 914 680 914 c 0
 794 914 890 859 938 768 c 0
 973 703 977 668 977 532 c 2
 977 234 l 1
 977 158 l 2
 977 82 997 68 1118 68 c 2
 1126 68 l 1
 1126 0 l 1
 645 0 l 1
 645 68 l 1
 654 68 l 2
 777 68 798 82 798 158 c 2
 798 234 l 1
 798 540 l 2
 798 633 785 689 756 731 c 1
 727 769 670 798 621 798 c 0
 540 798 454 740 414 654 c 0
 392 611 380 524 380 430 c 2
 380 234 l 1
 380 158 l 2
 380 82 401 68 524 68 c 2
 532 68 l 1
 532 0 l 1
 51 0 l 1
 51 68 l 1
 58 68 l 2
 179 68 201 82 201 158 c 2
 201 234 l 1
 201 1203 l 2
 201 1284 190 1298 120 1298 c 2
 29 1298 l 1
 29 1379 l 1
 380 1400 l 1
EndSplineSet
Validated: 1
EndChar

StartChar: i
Encoding: 74 105 234
Width: 597
VWidth: 1900
Flags: W
HStem: 0 68<56 202.426 401.645 549> 783 82<35 207.836> 1138 221<215.927 389.808>
VStem: 192 219<1161.08 1337.15> 212 180<76.4375 780.313>
LayerCount: 2
Fore
SplineSet
392 886 m 1xe8
 392 234 l 1
 392 158 l 2
 392 82 413 68 536 68 c 2
 549 68 l 1
 549 0 l 1
 56 0 l 1
 56 68 l 1
 70 68 l 2
 191 68 212 82 212 158 c 2
 212 234 l 1
 212 687 l 2
 212 768 201 783 131 783 c 2
 35 783 l 1
 35 865 l 1
 392 886 l 1xe8
302 1359 m 0
 364 1359 411 1310 411 1248 c 0
 411 1186 364 1138 301 1138 c 0
 243 1138 192 1190 192 1248 c 0xf0
 192 1310 240 1359 302 1359 c 0
EndSplineSet
Validated: 1
EndChar

StartChar: j
Encoding: 75 106 235
Width: 561
VWidth: 1900
Flags: W
HStem: -384 80<27.0196 158.167> 783 82<23 209.836> 1138 221<217.543 392.086>
VStem: -156 183<-302.977 -169.535> 194 220<1161.08 1337.15> 214 179<-198.868 780.313>
LayerCount: 2
Fore
SplineSet
393 886 m 1xf4
 393 134 l 2
 393 -80 373 -178 315 -261 c 0
 260 -337 163 -384 56 -384 c 0
 -71 -384 -156 -321 -156 -228 c 0
 -156 -163 -111 -114 -49 -114 c 0
 4 -114 49 -156 49 -204 c 0
 49 -217 46 -227 36 -249 c 0
 28 -267 27 -271 27 -279 c 0
 27 -292 48 -304 75 -304 c 0
 115 -304 161 -275 179 -237 c 0
 206 -182 214 -111 214 43 c 2
 214 687 l 2
 214 768 203 783 133 783 c 2
 23 783 l 1
 23 865 l 1
 393 886 l 1xf4
304 1359 m 0
 366 1359 414 1310 414 1248 c 0
 414 1186 365 1138 302 1138 c 0
 244 1138 194 1190 194 1248 c 0xf8
 194 1310 242 1359 304 1359 c 0
EndSplineSet
Validated: 1
EndChar

StartChar: k
Encoding: 76 107 236
Width: 1125
VWidth: 1900
Flags: W
HStem: 0 68<49 189.174 388.392 529 614 733.985 990.1 1115> 817 69<529 677.98 891.023 1030> 1298 81<27 194.836>
VStem: 199 180<76.4375 342 460 1295.44>
LayerCount: 2
Fore
SplineSet
379 460 m 1
 634 707 l 2
 664 737 678 760 678 782 c 0
 678 807 651 817 589 817 c 2
 529 817 l 1
 529 886 l 1
 1030 886 l 1
 1030 817 l 1
 901 802 819 760 709 652 c 2
 624 567 l 1
 893 199 l 1
 971 100 1008 78 1115 68 c 1
 1115 0 l 1
 614 0 l 1
 614 68 l 1
 650 68 l 2
 713 68 734 76 734 101 c 0
 734 111 728 121 720 134 c 2
 494 451 l 1
 379 342 l 1
 379 234 l 1
 379 158 l 2
 379 82 399 68 522 68 c 2
 529 68 l 1
 529 0 l 1
 49 0 l 1
 49 68 l 1
 56 68 l 2
 177 68 199 82 199 158 c 2
 199 234 l 1
 199 1203 l 2
 199 1284 188 1298 118 1298 c 2
 27 1298 l 1
 27 1379 l 1
 379 1400 l 1
 379 460 l 1
EndSplineSet
Validated: 1
EndChar

StartChar: l
Encoding: 77 108 237
Width: 597
VWidth: 1900
Flags: W
HStem: 0 68<53 199.426 397.645 546> 1298 81<36 204.676>
VStem: 209 179<76.4375 1295.44>
LayerCount: 2
Fore
SplineSet
388 1400 m 1
 388 234 l 1
 388 158 l 2
 388 82 409 68 532 68 c 2
 546 68 l 1
 546 0 l 1
 53 0 l 1
 53 68 l 1
 67 68 l 2
 188 68 209 82 209 158 c 2
 209 234 l 1
 209 1203 l 2
 209 1284 197 1298 129 1298 c 2
 36 1298 l 1
 36 1379 l 1
 388 1400 l 1
EndSplineSet
Validated: 1
EndChar

StartChar: m
Encoding: 78 109 238
Width: 1687
VWidth: 1900
Flags: W
HStem: 0 68<53 193.678 391.574 532 610 752.355 950.574 1091 1169 1310.61 1508.57 1650> 783 82<43 198.624> 798 116<503.961 708.378 1054.38 1264.95>
VStem: 203 179<76.2266 682.114 739 780.313> 762 179<76.4375 686.53> 1320 179<76.4375 740.417>
LayerCount: 2
Fore
SplineSet
382 886 m 1xdc
 382 739 l 1
 457 859 542 914 656 914 c 0
 783 914 886 837 918 723 c 1
 999 854 1092 914 1215 914 c 0
 1306 914 1383 875 1438 805 c 0
 1487 740 1499 702 1499 584 c 2
 1499 234 l 1
 1499 159 l 2
 1499 81 1520 68 1641 68 c 2
 1650 68 l 1
 1650 0 l 1
 1169 0 l 1
 1169 68 l 1
 1177 68 l 2
 1300 68 1320 82 1320 158 c 2
 1320 234 l 1
 1320 546 l 2
 1320 621 1314 662 1298 704 c 0
 1273 762 1221 798 1158 798 c 0
 1025 798 941 677 941 486 c 2
 941 234 l 1
 941 158 l 2
 941 82 962 68 1083 68 c 2
 1091 68 l 1
 1091 0 l 1
 610 0 l 1
 610 68 l 1
 618 68 l 2
 741 68 762 82 762 158 c 2
 762 234 l 1
 762 566 l 2
 762 644 750 700 723 736 c 1
 700 772 648 798 599 798 c 0xbc
 476 798 382 672 382 503 c 2
 382 234 l 1
 382 159 l 2
 382 81 403 68 524 68 c 2
 532 68 l 1
 532 0 l 1
 53 0 l 1
 53 68 l 1
 62 68 l 2
 183 68 203 81 203 159 c 2
 203 234 l 1
 203 687 l 2
 203 768 191 783 121 783 c 2
 43 783 l 1
 43 865 l 1
 382 886 l 1xdc
EndSplineSet
Validated: 1
EndChar

StartChar: n
Encoding: 79 110 239
Width: 1160
VWidth: 1900
Flags: W
HStem: 0 68<51 191.174 389.645 532 645 788.355 986.322 1126> 783 82<51 196.836> 798 116<515.919 732.499>
VStem: 201 179<76.4375 673.629 731 780.313> 798 179<76.4375 729.111>
LayerCount: 2
Fore
SplineSet
380 886 m 1xd8
 380 731 l 1
 463 857 559 914 680 914 c 0
 793 914 890 859 938 768 c 0
 973 703 977 668 977 532 c 2
 977 234 l 1
 977 158 l 2
 977 82 997 68 1118 68 c 2
 1126 68 l 1
 1126 0 l 1
 645 0 l 1
 645 68 l 1
 654 68 l 2
 777 68 798 82 798 158 c 2
 798 234 l 1
 798 541 l 2
 798 632 785 691 756 731 c 0
 727 769 670 798 621 798 c 0xb8
 540 798 454 740 414 654 c 0
 392 611 380 524 380 431 c 2
 380 234 l 1
 380 158 l 2
 380 82 401 68 524 68 c 2
 532 68 l 1
 532 0 l 1
 51 0 l 1
 51 68 l 1
 58 68 l 2
 179 68 201 82 201 158 c 2
 201 234 l 1
 201 687 l 2
 201 768 190 783 120 783 c 2
 51 783 l 1
 51 865 l 1
 380 886 l 1xd8
EndSplineSet
Validated: 1
EndChar

StartChar: o
Encoding: 80 111 240
Width: 949
VWidth: 1900
Flags: W
HStem: -29 82<368.906 581.011> 833 81<365.123 583.084>
VStem: 65 199<229.202 656.721> 685 201<229.853 655.156>
LayerCount: 2
Fore
SplineSet
479 914 m 0
 703 914 886 704 886 443 c 0
 886 180 703 -29 475 -29 c 0
 247 -29 65 180 65 441 c 0
 65 707 247 914 479 914 c 0
479 833 m 0
 336 833 264 700 264 441 c 0
 264 191 339 53 475 53 c 0
 611 53 685 191 685 443 c 0
 685 693 612 833 479 833 c 0
EndSplineSet
Validated: 1
EndChar

StartChar: p
Encoding: 81 112 241
Width: 1089
VWidth: 1900
Flags: W
HStem: -384 69<53 194.426 391.645 548> -29 104<487.528 714.644> 783 82<53 199.411> 811 103<488.725 722.388>
VStem: 204 178<-306.879 126 202.973 684.754 750 780.313> 817 200<218.512 669.387>
LayerCount: 2
Fore
SplineSet
382 886 m 1xec
 382 750 l 1
 449 864 526 914 644 914 c 0xdc
 853 914 1017 709 1017 446 c 0
 1017 174 853 -29 632 -29 c 0
 516 -29 445 16 382 126 c 1
 382 -150 l 1
 382 -226 l 2
 382 -302 403 -315 526 -315 c 2
 548 -315 l 1
 548 -384 l 1
 53 -384 l 1
 53 -315 l 1
 62 -315 l 2
 183 -315 204 -302 204 -226 c 2
 204 -150 l 1
 204 687 l 2
 204 768 191 783 121 783 c 2
 53 783 l 1
 53 865 l 1
 382 886 l 1xec
610 811 m 0
 465 811 380 669 380 433 c 0
 380 214 470 75 604 75 c 0
 738 75 817 213 817 458 c 0
 817 681 741 811 610 811 c 0
EndSplineSet
Validated: 1
EndChar

StartChar: q
Encoding: 82 113 242
Width: 1055
VWidth: 1900
Flags: W
HStem: -384 69<548 702.103 901.574 1040> -29 104<369.689 612.326> 833 81<377.207 603.138>
VStem: 68 200<203.768 651.103> 712 180<-306.069 110 196.797 711.409>
LayerCount: 2
Fore
SplineSet
853 886 m 1
 923 886 l 1
 901 787 896 759 893 723 c 1
 893 712 893 705 893 687 c 0
 893 670 893 641 892 587 c 1
 892 -150 l 1
 892 -226 l 2
 892 -302 913 -315 1034 -315 c 2
 1040 -315 l 1
 1040 -384 l 1
 548 -384 l 1
 548 -315 l 1
 567 -315 l 2
 690 -315 712 -302 712 -226 c 2
 712 -150 l 1
 712 110 l 1
 636 5 572 -29 454 -29 c 0
 231 -29 68 161 68 422 c 0
 68 703 243 914 475 914 c 0
 595 914 687 863 763 756 c 1
 853 886 l 1
492 833 m 0
 342 833 268 699 268 433 c 0
 268 205 348 75 489 75 c 0
 637 75 712 202 712 463 c 0
 712 571 701 641 672 704 c 0
 636 784 568 833 492 833 c 0
EndSplineSet
Validated: 1
EndChar

